<svg width="169" height="59" viewBox="0 0 169 59" fill="none" xmlns="http://www.w3.org/2000/svg">
<g clip-path="url(#clip0_729_89937)">
<path d="M80.5436 0.779175H70.2225V27.0833H80.5436C89.0562 27.0833 94.5519 21.9359 94.5519 13.9967C94.5519 6.05745 89.0562 0.779175 80.5436 0.779175ZM75.9388 5.62123H80.3495C85.6423 5.62123 88.7122 8.66606 88.7122 13.9705C88.7122 19.275 85.66 22.2064 80.3495 22.2064H75.9388V5.62123Z" fill="#0B2866"/>
<path d="M112.098 5.6387C113.355 5.57081 114.605 5.87582 115.686 6.51465C116.767 7.15348 117.631 8.09704 118.167 9.22443L118.229 9.3553H124.739L124.633 9.04122C122.869 3.80656 118.096 0.517456 112.133 0.517456C104.326 0.517456 98.6539 6.17961 98.6539 13.9705C98.6539 21.7614 104.326 27.3712 112.133 27.3712C118.202 27.3712 122.869 24.1868 124.633 18.8475L124.73 18.5421H118.229L118.167 18.673C117.636 19.8051 116.774 20.7537 115.692 21.396C114.61 22.0384 113.358 22.345 112.098 22.2762C107.564 22.2762 104.52 18.9347 104.52 13.9705C104.52 9.00632 107.564 5.6387 112.098 5.6387Z" fill="#0B2866"/>
<path d="M153.938 0.779175L145.002 12.9585L136.021 0.875144L135.951 0.779175H130.579V27.0833H136.233V9.88748L142.637 18.4025L142.708 18.4898H147.225L153.62 9.62575V27.0833H159.275V0.779175H153.938Z" fill="#0B2866"/>
<path d="M25.4981 0.5H2.13019C1.0535 0.5 0.180664 1.36324 0.180664 2.4281V25.5391C0.180664 26.604 1.0535 27.4672 2.13019 27.4672H25.4981C26.5748 27.4672 27.4476 26.604 27.4476 25.5391V2.4281C27.4476 1.36324 26.5748 0.5 25.4981 0.5Z" fill="#105DFB"/>
<path d="M25.4981 31.5066H2.13019C1.0535 31.5066 0.180664 32.3698 0.180664 33.4347V56.5457C0.180664 57.6106 1.0535 58.4738 2.13019 58.4738H25.4981C26.5748 58.4738 27.4476 57.6106 27.4476 56.5457V33.4347C27.4476 32.3698 26.5748 31.5066 25.4981 31.5066Z" fill="#1650CF"/>
<path d="M56.8493 31.5066H33.4814C32.4048 31.5066 31.5319 32.3698 31.5319 33.4347V56.5457C31.5319 57.6106 32.4048 58.4738 33.4814 58.4738H56.8493C57.926 58.4738 58.7989 57.6106 58.7989 56.5457V33.4347C58.7989 32.3698 57.926 31.5066 56.8493 31.5066Z" fill="#105DFB"/>
<path d="M56.8493 0.5H33.4814C32.4048 0.5 31.5319 1.36324 31.5319 2.4281V25.5391C31.5319 26.604 32.4048 27.4672 33.4814 27.4672H56.8493C57.926 27.4672 58.7989 26.604 58.7989 25.5391V2.4281C58.7989 1.36324 57.926 0.5 56.8493 0.5Z" fill="#1650CF"/>
<g opacity="0.9">
<path d="M15.9621 43.4765L11.4456 51.5641L9.30197 47.9609C9.20308 47.7944 9.06193 47.6564 8.8925 47.5605C8.72307 47.4646 8.53124 47.4142 8.33603 47.4142C8.14081 47.4142 7.94899 47.4646 7.77956 47.5605C7.61013 47.6564 7.46897 47.7944 7.37009 47.9609L4.59135 52.611C4.48938 52.7785 4.4344 52.9698 4.43208 53.1652C4.42976 53.3607 4.48018 53.5532 4.57814 53.723C4.67611 53.8928 4.81807 54.0336 4.9894 54.1311C5.16073 54.2285 5.35524 54.279 5.55288 54.2774H22.0489C22.2441 54.2794 22.4364 54.2305 22.6065 54.1357C22.7765 54.0408 22.9183 53.9033 23.0176 53.7371C23.1169 53.5708 23.1701 53.3816 23.1719 53.1885C23.1738 52.9954 23.1241 52.8053 23.0281 52.6372L17.9205 43.4765C17.8234 43.3039 17.6815 43.16 17.5093 43.0599C17.3371 42.9597 17.141 42.9069 16.9413 42.9069C16.7416 42.9069 16.5455 42.9597 16.3733 43.0599C16.2011 43.16 16.0592 43.3039 15.9621 43.4765Z" fill="white"/>
<path d="M8.34045 42.9618C9.8751 42.9618 11.1192 41.7314 11.1192 40.2136C11.1192 38.6958 9.8751 37.4654 8.34045 37.4654C6.80579 37.4654 5.56171 38.6958 5.56171 40.2136C5.56171 41.7314 6.80579 42.9618 8.34045 42.9618Z" fill="white"/>
</g>
<path opacity="0.9" d="M11.525 18.5596L17.4177 15.0698C17.6096 14.957 17.7686 14.7967 17.879 14.6047C17.9894 14.4128 18.0475 14.1957 18.0475 13.9749C18.0475 13.7541 17.9894 13.537 17.879 13.3451C17.7686 13.1531 17.6096 12.9928 17.4177 12.88L11.525 9.39021C11.3291 9.27419 11.1055 9.21177 10.8771 9.20936C10.6487 9.20695 10.4239 9.26464 10.2255 9.3765C10.0271 9.48837 9.86233 9.65039 9.74811 9.84597C9.63389 10.0415 9.5743 10.2636 9.57546 10.4895V17.469C9.57855 17.6931 9.64095 17.9124 9.75643 18.1052C9.87192 18.298 10.0365 18.4575 10.2337 18.5678C10.4309 18.6781 10.6539 18.7354 10.8804 18.734C11.107 18.7325 11.3292 18.6724 11.525 18.5596Z" fill="white"/>
<g opacity="0.9">
<path d="M50.1539 40.0217H40.1681C39.4617 40.0217 38.889 40.588 38.889 41.2867V41.5921C38.889 42.2907 39.4617 42.8571 40.1681 42.8571H50.1539C50.8603 42.8571 51.433 42.2907 51.433 41.5921V41.2867C51.433 40.588 50.8603 40.0217 50.1539 40.0217Z" fill="white"/>
<path d="M50.1539 47.1146H40.1681C39.4617 47.1146 38.889 47.681 38.889 48.3797V48.685C38.889 49.3837 39.4617 49.9501 40.1681 49.9501H50.1539C50.8603 49.9501 51.433 49.3837 51.433 48.685V48.3797C51.433 47.681 50.8603 47.1146 50.1539 47.1146Z" fill="white"/>
</g>
<g opacity="0.9">
<path d="M39.7887 11.0914L49.7833 8.02916C50.0052 7.96552 50.2404 7.96291 50.4636 8.02162C50.6869 8.08032 50.8897 8.19812 51.0503 8.36232C51.2109 8.52653 51.3231 8.73094 51.375 8.95356C51.4269 9.17617 51.4164 9.40856 51.3447 9.62573L48.169 19.1354C48.0861 19.3808 47.9286 19.5949 47.718 19.7485C47.5073 19.902 47.2539 19.9875 46.9923 19.9932C46.7308 19.9989 46.4738 19.9246 46.2565 19.7805C46.0392 19.6363 45.8723 19.4293 45.7784 19.1877L44.1994 15.1308C44.1722 15.066 44.1314 15.0076 44.0797 14.9595C44.028 14.9114 43.9666 14.8746 43.8995 14.8517L39.7622 13.4819C39.5077 13.3974 39.2867 13.2353 39.1311 13.0188C38.9755 12.8024 38.8933 12.5427 38.8963 12.2772C38.8992 12.0116 38.9872 11.7538 39.1475 11.5408C39.3078 11.3277 39.5323 11.1704 39.7887 11.0914Z" fill="white"/>
</g>
<path d="M76.274 41.8887C76.274 44.0436 74.792 45.3784 72.5337 45.3784H70.2225V38.3989H72.5161C74.792 38.3815 76.274 39.7599 76.274 41.8887ZM72.5161 44.4188C72.8612 44.456 73.2105 44.4162 73.538 44.3023C73.8655 44.1883 74.163 44.0031 74.4085 43.7603C74.654 43.5175 74.8413 43.2233 74.9565 42.8993C75.0717 42.5754 75.112 42.23 75.0743 41.8887C75.1124 41.5453 75.0728 41.1978 74.9584 40.8714C74.844 40.545 74.6576 40.2478 74.4127 40.0015C74.1678 39.7551 73.8706 39.5657 73.5426 39.447C73.2145 39.3282 72.8639 39.2832 72.5161 39.315H71.3693V44.4188H72.5161Z" fill="#0B2866"/>
<path d="M78.4882 38.3815H79.6438V45.361H78.4882V38.3815Z" fill="#0B2866"/>
<path d="M88.721 40.3881H87.3272C87.1492 40.0507 86.8762 39.7715 86.5412 39.5842C86.2062 39.3969 85.8236 39.3094 85.4395 39.3324C84.7881 39.3703 84.176 39.6529 83.7284 40.1224C83.2807 40.5919 83.0314 41.2128 83.0314 41.8581C83.0314 42.5034 83.2807 43.1244 83.7284 43.5939C84.176 44.0634 84.7881 44.346 85.4395 44.3839C85.9968 44.4154 86.5445 44.2307 86.9663 43.869C87.388 43.5073 87.6504 42.9971 87.6977 42.447H85.0513V41.5048H88.9416V42.3772C88.8307 43.2189 88.409 43.9902 87.7575 44.5427C87.106 45.0952 86.2709 45.3898 85.413 45.3697C84.4881 45.3244 83.6162 44.9292 82.9778 44.2658C82.3394 43.6024 81.9834 42.7216 81.9834 41.8058C81.9834 40.89 82.3394 40.0092 82.9778 39.3458C83.6162 38.6824 84.4881 38.2871 85.413 38.2419C86.123 38.2076 86.8257 38.3969 87.4201 38.7826C88.0145 39.1682 88.47 39.7303 88.721 40.3881Z" fill="#0B2866"/>
<path d="M91.1469 38.3815H92.3025V45.361H91.1469V38.3815Z" fill="#0B2866"/>
<path d="M94.2697 38.3815H99.192V39.315H97.3131V45.3523H96.1575V39.315H94.2697V38.3815Z" fill="#0B2866"/>
<path d="M104.697 43.9302H101.741L101.23 45.3523H100.03L102.553 38.3727H103.894L106.417 45.3523H105.199L104.697 43.9302ZM103.223 39.7599L102.068 43.0054H104.37L103.223 39.7599Z" fill="#0B2866"/>
<path d="M109.566 38.3815V44.4275H111.948V45.3523H108.419V38.3727L109.566 38.3815Z" fill="#0B2866"/>
<path d="M120.76 38.2855C121.46 38.2542 122.151 38.4401 122.738 38.8172C123.325 39.1943 123.778 39.7436 124.033 40.3881H122.648C122.477 40.0418 122.207 39.753 121.871 39.5575C121.536 39.3621 121.149 39.2686 120.76 39.2888C120.429 39.2874 120.102 39.3545 119.798 39.4858C119.495 39.6172 119.223 39.8098 118.999 40.0514C118.776 40.293 118.606 40.5782 118.501 40.8886C118.395 41.199 118.357 41.5278 118.387 41.8538C118.358 42.1832 118.398 42.5152 118.507 42.828C118.615 43.1409 118.789 43.4276 119.017 43.6696C119.245 43.9116 119.522 44.1033 119.83 44.2324C120.138 44.3615 120.47 44.425 120.804 44.4188C121.193 44.4409 121.579 44.3492 121.915 44.1552C122.251 43.9612 122.521 43.6735 122.692 43.3282H124.077C123.819 43.9695 123.365 44.515 122.778 44.8888C122.192 45.2626 121.502 45.446 120.804 45.4133C120.316 45.4372 119.828 45.3628 119.37 45.1945C118.912 45.0261 118.493 44.7675 118.139 44.4342C117.785 44.1009 117.503 43.6999 117.31 43.2556C117.117 42.8113 117.018 42.3329 117.018 41.8494C117.018 41.366 117.117 40.8876 117.31 40.4432C117.503 39.9989 117.785 39.5979 118.139 39.2646C118.493 38.9314 118.912 38.6727 119.37 38.5044C119.828 38.3361 120.316 38.2616 120.804 38.2855H120.76Z" fill="#0B2866"/>
<path d="M129.414 45.4221C128.701 45.4221 128.003 45.2128 127.41 44.8207C126.816 44.4287 126.354 43.8714 126.081 43.2193C125.808 42.5673 125.736 41.8499 125.876 41.1577C126.015 40.4655 126.358 39.8297 126.863 39.3307C127.368 38.8316 128.01 38.4918 128.71 38.3541C129.41 38.2164 130.136 38.2871 130.795 38.5571C131.454 38.8272 132.018 39.2846 132.414 39.8714C132.81 40.4582 133.022 41.1481 133.022 41.8538C133.033 42.3253 132.947 42.7942 132.77 43.2319C132.592 43.6697 132.327 44.0674 131.99 44.4009C131.652 44.7344 131.25 44.9968 130.808 45.1724C130.365 45.3479 129.891 45.4328 129.414 45.4221ZM129.414 44.4275C129.753 44.4332 130.089 44.3675 130.401 44.2348C130.712 44.1021 130.991 43.9055 131.22 43.658C131.448 43.4105 131.621 43.1177 131.726 42.7992C131.832 42.4806 131.868 42.1435 131.831 41.8102C131.86 41.4791 131.819 41.1457 131.71 40.8312C131.602 40.5167 131.428 40.2279 131.201 39.9832C130.974 39.7384 130.698 39.543 130.39 39.4093C130.082 39.2756 129.75 39.2066 129.414 39.2066C129.078 39.2066 128.746 39.2756 128.438 39.4093C128.131 39.543 127.854 39.7384 127.627 39.9832C127.4 40.2279 127.227 40.5167 127.118 40.8312C127.01 41.1457 126.968 41.4791 126.997 41.8102C126.961 42.1435 126.997 42.4806 127.102 42.7992C127.207 43.1177 127.38 43.4105 127.609 43.658C127.837 43.9055 128.116 44.1021 128.428 44.2348C128.739 44.3675 129.075 44.4332 129.414 44.4275Z" fill="#0B2866"/>
<path d="M141.014 38.364V45.3436H139.859L136.33 40.1089V45.3436H135.174V38.364H136.33L139.859 43.5987V38.364H141.014Z" fill="#0B2866"/>
<path d="M142.99 38.3815H147.913V39.315H146.034V45.3523H144.852V39.315H142.964L142.99 38.3815Z" fill="#0B2866"/>
<path d="M153.796 39.2975H151.027V41.3478H153.461V42.2813H151.027V44.4188H153.77V45.3523H149.871V38.3727H153.77L153.796 39.2975Z" fill="#0B2866"/>
<path d="M161.921 38.364V45.3436H160.73L157.246 40.1089V45.3436H156.09V38.364H157.246L160.73 43.5987V38.364H161.921Z" fill="#0B2866"/>
<path d="M163.897 38.3815H168.819V39.315H166.905V45.3523H165.749V39.315H163.862L163.897 38.3815Z" fill="#0B2866"/>
<path d="M83.8781 57.0169H80.9317L80.4554 58.439H79.2115L81.7433 51.4594H83.1018L85.6335 58.439H84.3897L83.8781 57.0169ZM82.4137 52.8466L81.2493 56.0834H83.5517L82.4137 52.8466Z" fill="#0B2866"/>
<path d="M93.3523 51.4507V58.4302H92.1967L88.6681 53.1956V58.4302H87.5566V51.4507H88.7122L92.2408 56.6853V51.4507H93.3523Z" fill="#0B2866"/>
<path d="M99.9771 57.0169H97.0219L96.5191 58.439H95.3106L97.8335 51.4594H99.1744L101.697 58.439H100.48L99.9771 57.0169ZM98.5039 52.8466L97.3483 56.0921H99.6507L98.5039 52.8466Z" fill="#0B2866"/>
<path d="M109.91 53.4747H108.525C108.345 53.1388 108.072 52.8608 107.737 52.6737C107.403 52.4866 107.021 52.3983 106.637 52.4191C105.986 52.457 105.374 52.7396 104.926 53.2091C104.479 53.6786 104.229 54.2995 104.229 54.9448C104.229 55.5901 104.479 56.211 104.926 56.6805C105.374 57.15 105.986 57.4326 106.637 57.4705C107.194 57.5019 107.74 57.3169 108.161 56.955C108.581 56.5931 108.842 56.083 108.887 55.5337H106.24V54.5915H110.131V55.4639C110.009 56.3008 109.584 57.0655 108.935 57.616C108.286 58.1664 107.457 58.465 106.602 58.4564C106.114 58.4803 105.626 58.4058 105.167 58.2375C104.709 58.0692 104.29 57.8105 103.936 57.4772C103.582 57.1439 103.3 56.743 103.108 56.2986C102.915 55.8543 102.816 55.3759 102.816 54.8925C102.816 54.409 102.915 53.9306 103.108 53.4863C103.3 53.0419 103.582 52.641 103.936 52.3077C104.29 51.9744 104.709 51.7157 105.167 51.5474C105.626 51.3791 106.114 51.3046 106.602 51.3285C107.312 51.2929 108.016 51.4817 108.61 51.8675C109.205 52.2533 109.66 52.8162 109.91 53.4747Z" fill="#0B2866"/>
<path d="M116.226 52.3842H113.483V54.4344H115.917V55.368H113.483V57.5054H116.226V58.439H112.327V51.4594H116.226V52.3842Z" fill="#0B2866"/>
<path d="M132.069 52.3842H129.326V54.4344H131.761V55.368H129.326V57.5054H132.069V58.439H128.17V51.4594H132.069V52.3842Z" fill="#0B2866"/>
<path d="M140.194 51.4507V58.4302H139.038L135.554 53.1956V58.4302H134.398V51.4507H135.554L139.038 56.6853V51.4507H140.194Z" fill="#0B2866"/>
<path d="M142.205 51.4681H147.127V52.4016H145.249V58.4389H144.093V52.4016H142.205V51.4681Z" fill="#0B2866"/>
<path d="M73.7246 54.6874L71.3517 51.4681H70.2225V58.4389H71.387V53.3177L73.3188 55.9437H74.1745L76.0976 53.3177V58.4389H77.2532V51.4681H76.1152L73.7423 54.7136L73.7246 54.6874Z" fill="#0B2866"/>
<path d="M122.057 54.6874L119.675 51.4681H118.555V58.4389H119.711V53.3177L121.642 55.9437H122.498L124.421 53.3177V58.4389H125.577V51.4681H124.448L122.075 54.7136L122.057 54.6874Z" fill="#0B2866"/>
</g>
<defs>
<clipPath id="clip0_729_89937">
<rect width="168.639" height="58" fill="white" transform="translate(0.180664 0.5)"/>
</clipPath>
</defs>
</svg>
