<svg width="20" height="20" viewBox="0 0 20 20" fill="none" xmlns="http://www.w3.org/2000/svg">
<path d="M18.1406 7.78906V4.03906C18.1406 3.69388 17.8608 3.41406 17.5156 3.41406C17.1704 3.41406 16.8906 3.69388 16.8906 4.03906V7.16406H13.7656C13.4204 7.16406 13.1406 7.44388 13.1406 7.78906C13.1406 8.13424 13.4204 8.41406 13.7656 8.41406H17.5156C17.8608 8.41406 18.1406 8.13424 18.1406 7.78906Z" fill="#FFFFFF"/>
<path d="M17.0739 8.2312L17.0743 8.23166C17.1915 8.34847 17.3502 8.41407 17.5156 8.41407L17.5165 8.41407C17.6823 8.41382 17.8412 8.34774 17.9582 8.23036C18.075 8.1132 18.1406 7.95451 18.1406 7.78907L18.1406 7.78815C18.1404 7.62239 18.0743 7.46351 17.9569 7.34647L17.9567 7.34628L15.3007 4.69804C13.6931 3.08918 11.4615 2.64456 11.4615 2.64456C9.2298 2.19995 7.12732 3.07032 7.12732 3.07032C5.02484 3.94069 3.76044 5.83259 3.76044 5.83259C2.49603 7.72448 2.49603 10 2.49603 10C2.49603 12.2755 3.76044 14.1674 3.76044 14.1674C5.02484 16.0593 7.12732 16.9297 7.12732 16.9297C9.2298 17.8001 11.4615 17.3554 11.4615 17.3554C13.6929 16.9109 15.3012 15.3014 15.3012 15.3014L15.3015 15.3011C15.4186 15.1839 15.4844 15.0251 15.4844 14.8594V14.8591C15.4843 14.6934 15.4184 14.5344 15.3011 14.4173C15.1839 14.3002 15.025 14.2344 14.8594 14.2344H14.8591C14.6934 14.2344 14.5344 14.3004 14.4173 14.4176C13.0769 15.759 11.2172 16.1295 11.2172 16.1295C9.35751 16.5001 7.60544 15.7747 7.60544 15.7747C5.85337 15.0494 4.7997 13.4728 4.7997 13.4728C3.74603 11.8963 3.74603 10 3.74603 10C3.74603 8.10374 4.7997 6.52716 4.7997 6.52716C5.85337 4.95058 7.60544 4.22527 7.60544 4.22527C9.35751 3.49996 11.2172 3.87047 11.2172 3.87047C13.0769 4.24098 14.4181 5.58322 14.4181 5.58322L17.0739 8.2312Z" fill="#FFFFFF"/>
</svg>
