<svg width="20" height="20" viewBox="0 0 20 20" fill="none" xmlns="http://www.w3.org/2000/svg">
<path d="M15.6064 12.6514L15.6065 12.651C15.6188 12.6016 15.625 12.5509 15.625 12.5C15.625 12.4897 15.6248 12.4795 15.6243 12.4692C15.6192 12.3663 15.5888 12.2663 15.5357 12.178C15.4503 12.0359 15.3119 11.9336 15.1511 11.8935C15.1017 11.8812 15.0509 11.875 15 11.875C14.9928 11.875 14.9856 11.8751 14.9784 11.8754C14.6996 11.885 14.461 12.0783 14.3936 12.349L14.3935 12.3493L13.3627 16.488L12.5019 15.9167C12.5007 15.916 12.5 15.9156 12.5 15.9156L12.5 6.25C12.5 5.90482 12.2202 5.625 11.875 5.625C11.5299 5.625 11.25 5.90482 11.25 6.25L11.2501 15.9083C11.2471 16.227 11.398 16.5077 11.398 16.5077C11.5488 16.7884 11.8107 16.9583 11.8107 16.9583L12.6686 17.5276C12.922 17.6968 13.2249 17.7304 13.2249 17.7304C13.5277 17.764 13.8121 17.6545 13.8121 17.6545C14.0964 17.5449 14.2984 17.3168 14.2984 17.3168C14.5005 17.0887 14.5753 16.7917 14.5753 16.7917L15.6064 12.6514Z" fill="#8D9CAD"/>
<path fill-rule="evenodd" clip-rule="evenodd" d="M11.875 13.125C11.875 13.125 11.6449 13.125 11.2176 13.1744C11.2176 13.1744 10.3381 13.2762 9.39841 13.5318C9.39841 13.5318 6.37834 14.3532 3.9219 16.4112C3.9219 16.4112 3.64313 16.6419 3.28423 16.688C3.28423 16.688 2.92534 16.7341 2.59732 16.5813C2.59732 16.5813 2.2693 16.4286 2.07359 16.1243C2.07359 16.1243 1.87789 15.8199 1.875 15.4531L1.87502 3.29192C1.87502 3.29192 1.87789 2.9301 2.07359 2.62575C2.07359 2.62575 2.2693 2.3214 2.59732 2.16866C2.59732 2.16866 2.92534 2.01592 3.28423 2.06202C3.28423 2.06202 3.64312 2.10811 3.92481 2.34123C3.92481 2.34123 6.37833 4.39675 9.39841 5.2182C9.39841 5.2182 10.3381 5.47379 11.2176 5.57556C11.2176 5.57556 11.6449 5.625 11.875 5.625H15C15 5.625 16.5533 5.625 17.6517 6.72335C17.6517 6.72335 18.75 7.8217 18.75 9.375C18.75 9.375 18.75 10.9283 17.6517 12.0267C17.6517 12.0267 16.5533 13.125 15 13.125H11.875ZM11.875 11.875H15C15 11.875 16.0355 11.875 16.7678 11.1428C16.7678 11.1428 17.5 10.4105 17.5 9.375C17.5 9.375 17.5 8.33947 16.7678 7.60723C16.7678 7.60723 16.0355 6.875 15 6.875H11.875C11.875 6.875 10.7271 6.875 9.07034 6.42438C9.07034 6.42438 5.78752 5.53147 3.12498 3.30184L3.125 15.4482C3.125 15.4482 5.78574 13.219 9.07034 12.3256C9.07034 12.3256 10.7271 11.875 11.875 11.875Z" fill="#8D9CAD"/>
</svg>
