<svg width="20" height="20" viewBox="0 0 20 20" fill="none" xmlns="http://www.w3.org/2000/svg">
<path fill-rule="evenodd" clip-rule="evenodd" d="M18.125 13.75C18.125 13.75 18.125 14.5267 17.5758 15.0758C17.5758 15.0758 17.0267 15.625 16.25 15.625H3.75C3.75 15.625 2.97335 15.625 2.42417 15.0758C2.42417 15.0758 1.875 14.5267 1.875 13.75V5C1.875 5 1.875 4.22335 2.42417 3.67417C2.42417 3.67417 2.97335 3.125 3.75 3.125H16.25C16.25 3.125 17.0267 3.125 17.5758 3.67417C17.5758 3.67417 18.125 4.22335 18.125 5V13.75ZM16.875 13.75V5C16.875 5 16.875 4.74112 16.6919 4.55806C16.6919 4.55806 16.5089 4.375 16.25 4.375H3.75C3.75 4.375 3.49112 4.375 3.30806 4.55806C3.30806 4.55806 3.125 4.74112 3.125 5V13.75C3.125 13.75 3.125 14.0089 3.30806 14.1919C3.30806 14.1919 3.49112 14.375 3.75 14.375H16.25C16.25 14.375 16.5089 14.375 16.6919 14.1919C16.6919 14.1919 16.875 14.0089 16.875 13.75Z" fill="#8D9CAD"/>
<path d="M12.5 16.875H7.5C7.15482 16.875 6.875 17.1548 6.875 17.5C6.875 17.8452 7.15482 18.125 7.5 18.125H12.5C12.8452 18.125 13.125 17.8452 13.125 17.5C13.125 17.1548 12.8452 16.875 12.5 16.875Z" fill="#8D9CAD"/>
<path d="M2.5 12.5H17.5C17.8452 12.5 18.125 12.2202 18.125 11.875C18.125 11.5298 17.8452 11.25 17.5 11.25H2.5C2.15482 11.25 1.875 11.5298 1.875 11.875C1.875 12.2202 2.15482 12.5 2.5 12.5Z" fill="#8D9CAD"/>
<path d="M9.375 15V17.5C9.375 17.8452 9.65482 18.125 10 18.125C10.3452 18.125 10.625 17.8452 10.625 17.5V15C10.625 14.6548 10.3452 14.375 10 14.375C9.65482 14.375 9.375 14.6548 9.375 15Z" fill="#8D9CAD"/>
</svg>
