<svg width="20" height="20" viewBox="0 0 20 20" fill="none" xmlns="http://www.w3.org/2000/svg">
<path fill-rule="evenodd" clip-rule="evenodd" d="M3.4375 17.5C3.09232 17.5 2.8125 17.2202 2.8125 16.875V13.125C2.8125 12.7798 3.09232 12.5 3.4375 12.5H4.53125C4.53125 12.5 5.56678 12.5 6.29902 13.2322C6.29902 13.2322 7.03125 13.9645 7.03125 15C7.03125 15 7.03125 16.0355 6.29902 16.7678C6.29902 16.7678 5.56678 17.5 4.53125 17.5H3.4375ZM4.53125 16.25H4.0625V13.75H4.53125C4.53125 13.75 5.04902 13.75 5.41513 14.1161C5.41513 14.1161 5.78125 14.4822 5.78125 15C5.78125 15 5.78125 15.5178 5.41513 15.8839C5.41513 15.8839 5.04902 16.25 4.53125 16.25Z" fill="#8D9CAD"/>
<path fill-rule="evenodd" clip-rule="evenodd" d="M10.1562 12.5C10.1562 12.5 11.1431 12.5 11.8323 13.2518C11.8323 13.2518 12.5 13.9802 12.5 15C12.5 15 12.5 16.0198 11.8323 16.7482C11.8323 16.7482 11.1431 17.5 10.1562 17.5C10.1562 17.5 9.16938 17.5 8.48019 16.7482C8.48019 16.7482 7.8125 16.0198 7.8125 15C7.8125 15 7.8125 13.9802 8.48019 13.2518C8.48019 13.2518 9.16938 12.5 10.1562 12.5ZM10.1562 13.75C10.1562 13.75 9.71926 13.75 9.40163 14.0965C9.40163 14.0965 9.0625 14.4665 9.0625 15C9.0625 15 9.0625 15.5335 9.40163 15.9035C9.40163 15.9035 9.71926 16.25 10.1562 16.25C10.1562 16.25 10.5932 16.25 10.9109 15.9035C10.9109 15.9035 11.25 15.5335 11.25 15C11.25 15 11.25 14.4665 10.9109 14.0965C10.9109 14.0965 10.5932 13.75 10.1562 13.75Z" fill="#8D9CAD"/>
<path d="M15.4637 13.75C15.8533 13.7531 16.1408 14.016 16.1408 14.016C16.256 14.1213 16.4064 14.1797 16.5625 14.1797C16.5718 14.1797 16.5812 14.1795 16.5905 14.179C16.7561 14.1716 16.9119 14.0987 17.0238 13.9764C17.1291 13.8612 17.1875 13.7107 17.1875 13.5547L17.1875 13.5529C17.1875 13.5442 17.1873 13.5354 17.1869 13.5267C17.1795 13.3611 17.1065 13.2052 16.9842 13.0934C16.3428 12.507 15.4738 12.5 15.4738 12.5C14.479 12.5 13.7912 13.2506 13.7912 13.2506C13.125 13.9775 13.125 15 13.125 15C13.125 16.0225 13.7912 16.7494 13.7912 16.7494C14.479 17.5 15.4687 17.5 15.4687 17.5C16.3428 17.493 16.9842 16.9066 16.9842 16.9066C17.1137 16.7882 17.1875 16.6208 17.1875 16.4453L17.1875 16.4409C17.1864 16.2864 17.1281 16.1377 17.0238 16.0236C16.9054 15.8941 16.738 15.8203 16.5625 15.8203L16.5581 15.8203C16.4036 15.8214 16.2549 15.8797 16.1408 15.984C15.8533 16.2469 15.4687 16.25 15.4687 16.25C15.029 16.25 14.7127 15.9049 14.7127 15.9049C14.375 15.5363 14.375 15 14.375 15C14.375 14.4636 14.7127 14.0951 14.7127 14.0951C15.029 13.75 15.4637 13.75 15.4637 13.75Z" fill="#8D9CAD"/>
<path d="M15.625 7.13388V10C15.625 10.3452 15.9048 10.625 16.25 10.625C16.5952 10.625 16.875 10.3452 16.875 10V6.875C16.875 6.70924 16.8092 6.55027 16.6919 6.43306L12.3169 2.05806C12.1997 1.94085 12.0408 1.875 11.875 1.875L4.375 1.875C3.85723 1.875 3.49112 2.24112 3.49112 2.24112C3.125 2.60723 3.125 3.125 3.125 3.125V10C3.125 10.3452 3.40482 10.625 3.75 10.625C4.09518 10.625 4.375 10.3452 4.375 10V3.125H11.6161L15.625 7.13388Z" fill="#8D9CAD"/>
<path d="M11.875 7.5H16.25C16.5952 7.5 16.875 7.22018 16.875 6.875C16.875 6.52982 16.5952 6.25 16.25 6.25H12.5V2.5C12.5 2.15482 12.2202 1.875 11.875 1.875C11.5298 1.875 11.25 2.15482 11.25 2.5V6.875C11.25 7.22018 11.5298 7.5 11.875 7.5Z" fill="#8D9CAD"/>
</svg>
