<svg width="20" height="20" viewBox="0 0 20 20" fill="none" xmlns="http://www.w3.org/2000/svg">
<path fill-rule="evenodd" clip-rule="evenodd" d="M11.6161 17.1339C11.6161 17.1339 11.25 16.7678 11.25 16.25V12.5H8.75V16.25C8.75 16.25 8.75 16.7678 8.38388 17.1339C8.38388 17.1339 8.01777 17.5 7.5 17.5H3.75C3.75 17.5 3.23223 17.5 2.86612 17.1339C2.86612 17.1339 2.5 16.7678 2.5 16.25V9.02348C2.5 9.02348 2.50425 8.756 2.60805 8.52045C2.60805 8.52045 2.71185 8.2849 2.89899 8.10816L9.15779 2.42032C9.15779 2.42032 9.51448 2.09399 10 2.09399C10 2.09399 10.4855 2.09399 10.8438 2.42172L17.0922 8.1C17.0922 8.1 17.2882 8.2849 17.392 8.52045C17.392 8.52045 17.4958 8.756 17.4999 9.01337L17.5 16.25C17.5 16.25 17.5 16.7678 17.1339 17.1339C17.1339 17.1339 16.7678 17.5 16.25 17.5H12.5C12.5 17.5 11.9822 17.5 11.6161 17.1339ZM12.5 16.25H16.25L16.2501 9.0336C16.2501 9.0336 16.25 9.02886 16.2481 9.02452C16.2481 9.02452 16.2473 9.02283 16.2477 9.02254C16.2477 9.02254 16.2483 9.02212 16.2513 9.02485L10 3.34399L9.99975 3.34422L9.99846 3.3454L3.75726 9.01693C3.75726 9.01693 3.75382 9.02019 3.75191 9.02452C3.75191 9.02452 3.75101 9.02655 3.75054 9.02645C3.75054 9.02645 3.75 9.02635 3.75 9.02354V16.25H7.5V12.5C7.5 12.5 7.5 11.9823 7.86612 11.6162C7.86612 11.6162 8.23223 11.25 8.75 11.25H11.25C11.25 11.25 11.7678 11.25 12.1339 11.6162C12.1339 11.6162 12.5 11.9823 12.5 12.5L12.5 16.25Z" fill="#8D9CAD"/>
</svg>
