<svg width="20" height="20" viewBox="0 0 20 20" fill="none" xmlns="http://www.w3.org/2000/svg">
<path fill-rule="evenodd" clip-rule="evenodd" d="M2.5 3.75C2.5 3.75 2.5 3.23223 2.86612 2.86612C2.86612 2.86612 3.23223 2.5 3.75 2.5H16.25C16.25 2.5 16.7678 2.5 17.1339 2.86612C17.1339 2.86612 17.5 3.23223 17.5 3.75V16.25C17.5 16.25 17.5 16.7678 17.1339 17.1339C17.1339 17.1339 16.7678 17.5 16.25 17.5H3.75C3.75 17.5 3.23223 17.5 2.86612 17.1339C2.86612 17.1339 2.5 16.7678 2.5 16.25V3.75ZM3.75 3.75V16.25H16.25V3.75H3.75Z" fill="#8D9CAD"/>
<path d="M2.68329 13.3079L2.68306 13.3081C2.56585 13.4253 2.5 13.5843 2.5 13.7501C2.5 13.7601 2.50024 13.7701 2.50072 13.7801C2.50819 13.9353 2.57319 14.0821 2.68306 14.192C2.80027 14.3092 2.95924 14.3751 3.125 14.3751C3.29076 14.3751 3.44973 14.3092 3.56694 14.192L3.56718 14.1918L6.24663 11.5123C6.25 11.5089 6.25 11.5089 6.25 11.5089L7.86275 13.1217C8.03559 13.2972 8.26723 13.3942 8.26723 13.3942C8.49887 13.4912 8.75 13.4912 8.75 13.4912C9.00113 13.4912 9.23277 13.3942 9.23277 13.3942C9.46441 13.2972 9.64062 13.1183 9.64062 13.1183L13.1216 9.63731L13.125 9.63391L16.4331 12.942C16.5503 13.0592 16.7092 13.1251 16.875 13.1251C17.0408 13.1251 17.1997 13.0592 17.3169 12.942C17.4342 12.8248 17.5 12.6658 17.5 12.5001C17.5 12.3343 17.4342 12.1753 17.3169 12.0581L14.0156 8.75682C13.8394 8.57789 13.6078 8.4809 13.6078 8.4809C13.3761 8.38391 13.125 8.38391 13.125 8.38391C12.8739 8.38391 12.6422 8.4809 12.6422 8.4809C12.4106 8.57789 12.2377 8.75342 12.2377 8.75342L8.75 12.2412L8.74663 12.2378L7.14062 10.6318C6.96441 10.4529 6.73277 10.3559 6.73277 10.3559C6.50113 10.2589 6.25 10.2589 6.25 10.2589C5.99887 10.2589 5.76723 10.3559 5.76723 10.3559C5.53559 10.4529 5.36275 10.6284 5.36275 10.6284L2.68329 13.3079Z" fill="#8D9CAD"/>
<path d="M8.75 7.1875C8.75 7.70527 8.33023 8.125 7.8125 8.125C7.29477 8.125 6.875 7.70527 6.875 7.1875C6.875 6.66973 7.29477 6.25 7.8125 6.25C8.33023 6.25 8.75 6.66973 8.75 7.1875Z" fill="#8D9CAD"/>
</svg>
