<svg width="20" height="20" viewBox="0 0 20 20" fill="none" xmlns="http://www.w3.org/2000/svg">
<path fill-rule="evenodd" clip-rule="evenodd" d="M4.375 3.125C4.375 3.125 4.375 2.34835 4.92417 1.79917C4.92417 1.79917 5.47335 1.25 6.25 1.25H13.75C13.75 1.25 14.5267 1.25 15.0758 1.79917C15.0758 1.79917 15.625 2.34835 15.625 3.125V16.875C15.625 16.875 15.625 17.6517 15.0758 18.2008C15.0758 18.2008 14.5266 18.75 13.75 18.75H6.25C6.25 18.75 5.47335 18.75 4.92417 18.2008C4.92417 18.2008 4.375 17.6517 4.375 16.875V3.125ZM5.625 3.125L5.625 16.875C5.625 16.875 5.625 17.1339 5.80806 17.3169C5.80806 17.3169 5.99112 17.5 6.25 17.5H13.75C13.75 17.5 14.0089 17.5 14.1919 17.3169C14.1919 17.3169 14.375 17.1339 14.375 16.875V3.125C14.375 3.125 14.375 2.86612 14.1919 2.68306C14.1919 2.68306 14.0089 2.5 13.75 2.5L6.25 2.5C6.25 2.5 5.99112 2.5 5.80806 2.68306C5.80806 2.68306 5.625 2.86612 5.625 3.125Z" fill="#8D9CAD"/>
<path d="M5 5H15C15.3452 5 15.625 4.72018 15.625 4.375C15.625 4.02982 15.3452 3.75 15 3.75H5C4.65482 3.75 4.375 4.02982 4.375 4.375C4.375 4.72018 4.65482 5 5 5Z" fill="#8D9CAD"/>
<path d="M5 16.25H15C15.3452 16.25 15.625 15.9702 15.625 15.625C15.625 15.2798 15.3452 15 15 15H5C4.65482 15 4.375 15.2798 4.375 15.625C4.375 15.9702 4.65482 16.25 5 16.25Z" fill="#8D9CAD"/>
</svg>
