<svg width="20" height="20" viewBox="0 0 20 20" fill="none" xmlns="http://www.w3.org/2000/svg">
<path fill-rule="evenodd" clip-rule="evenodd" d="M11.25 15.0918V13.523C11.25 13.2341 10.9702 13 10.625 13C10.2798 13 10 13.2341 10 13.523V15.0918C10 15.1095 10.001 15.1269 10.0031 15.1441C10.001 15.1613 10 15.1788 10 15.1964V16.0332V16.7653V17.602C10 17.8909 10.2798 18.125 10.625 18.125C10.9702 18.125 11.25 17.8909 11.25 17.602V16.7653V16.0332V15.1964C11.25 15.1788 11.249 15.1613 11.2469 15.1441C11.249 15.1269 11.25 15.1095 11.25 15.0918Z" fill="#8D9CAD"/>
<path fill-rule="evenodd" clip-rule="evenodd" d="M10.5 18.25L8.625 18.25C8.27982 18.25 8 17.9702 8 17.625C8 17.2798 8.27982 17 8.625 17H10.5C10.5211 17 10.5419 17.001 10.5625 17.0031C10.5831 17.001 10.6039 17 10.625 17H12.5C12.8452 17 13.125 17.2798 13.125 17.625C13.125 17.9702 12.8452 18.25 12.5 18.25L10.625 18.25C10.6039 18.25 10.5831 18.249 10.5625 18.2469C10.5419 18.249 10.5211 18.25 10.5 18.25Z" fill="#8D9CAD"/>
<path fill-rule="evenodd" clip-rule="evenodd" d="M2 3.25C2 3.25 2 2.73223 2.36612 2.36612C2.36612 2.36612 2.73223 2 3.25 2H17C17 2 17.5178 2 17.8839 2.36612C17.8839 2.36612 18.25 2.73223 18.25 3.25V12.625C18.25 12.625 18.25 13.1428 17.8839 13.5089C17.8839 13.5089 17.5178 13.875 17 13.875H3.25C3.25 13.875 2.73223 13.875 2.36612 13.5089C2.36612 13.5089 2 13.1428 2 12.625V3.25ZM3.25 3.25V12.625H17V3.25H3.25Z" fill="#8D9CAD"/>
</svg>
