<?xml version="1.0" encoding="UTF-8"?>
<svg xmlns="http://www.w3.org/2000/svg" xmlns:xlink="http://www.w3.org/1999/xlink" width="20px" height="20px" viewBox="0 0 20 20" version="1.1">
<g id="surface1">
<path style=" stroke:none;fill-rule:nonzero;fill:#8D9CAD;fill-opacity:1;" d="M 5.738281 1.128906 C 5.660156 1.171875 5.570312 1.246094 5.535156 1.296875 C 5.4375 1.425781 4.660156 3.414062 4.640625 3.582031 C 4.613281 3.832031 4.691406 4.039062 4.890625 4.238281 L 5.089844 4.390625 L 6.164062 4.757812 C 7.113281 5.054688 7.28125 5.101562 7.441406 5.085938 C 7.664062 5.070312 7.820312 4.96875 7.914062 4.777344 C 8.046875 4.519531 7.972656 4.175781 7.75 4.019531 C 7.667969 3.960938 7.335938 3.839844 6.738281 3.65625 C 6.675781 3.640625 6.625 3.617188 6.625 3.609375 C 6.625 3.578125 7.027344 3.390625 7.355469 3.269531 C 8.828125 2.707031 10.371094 2.617188 11.894531 3 C 12.433594 3.132812 12.796875 3.269531 13.34375 3.539062 C 15.398438 4.546875 16.894531 6.476562 17.355469 8.722656 C 17.796875 10.875 17.261719 13.117188 15.886719 14.867188 C 15.597656 15.230469 14.929688 15.882812 14.542969 16.171875 C 11.753906 18.261719 7.925781 18.164062 5.253906 15.9375 C 2.675781 13.789062 1.855469 10.128906 3.269531 7.089844 C 3.46875 6.660156 3.484375 6.539062 3.371094 6.3125 C 3.1875 5.953125 2.75 5.863281 2.441406 6.121094 C 2.164062 6.355469 1.640625 7.792969 1.476562 8.769531 C 0.941406 11.988281 2.222656 15.195312 4.824219 17.15625 C 6.046875 18.074219 7.378906 18.613281 8.980469 18.835938 C 9.394531 18.894531 10.703125 18.890625 11.128906 18.832031 C 12.167969 18.691406 12.960938 18.453125 13.867188 18.011719 C 16.125 16.910156 17.832031 14.824219 18.457031 12.390625 C 18.648438 11.628906 18.714844 11.097656 18.714844 10.21875 C 18.714844 9.316406 18.648438 8.773438 18.4375 7.988281 C 17.804688 5.59375 16.09375 3.511719 13.867188 2.429688 C 11.652344 1.347656 9.097656 1.257812 6.792969 2.179688 C 6.582031 2.261719 6.414062 2.324219 6.414062 2.324219 C 6.414062 2.320312 6.464844 2.195312 6.519531 2.050781 C 6.578125 1.898438 6.625 1.722656 6.625 1.65625 C 6.625 1.203125 6.125 0.90625 5.738281 1.128906 Z M 5.738281 1.128906 "/>
<path style=" stroke:none;fill-rule:nonzero;fill:#8D9CAD;fill-opacity:1;" d="M 8.769531 6.710938 C 8.636719 6.769531 8.492188 6.925781 8.441406 7.054688 C 8.390625 7.195312 8.390625 10.710938 8.441406 10.957031 C 8.578125 11.597656 9.152344 12.15625 9.796875 12.273438 C 9.898438 12.296875 10.539062 12.308594 11.222656 12.308594 C 12.5625 12.308594 12.59375 12.304688 12.773438 12.113281 C 13 11.871094 13 11.527344 12.773438 11.285156 C 12.59375 11.09375 12.5625 11.089844 11.242188 11.089844 C 9.886719 11.089844 9.863281 11.085938 9.707031 10.847656 L 9.625 10.730469 L 9.625 8.949219 C 9.625 6.949219 9.628906 6.984375 9.363281 6.785156 C 9.214844 6.664062 8.9375 6.628906 8.769531 6.710938 Z M 8.769531 6.710938 "/>
</g>
</svg>
