<svg width="20" height="20" viewBox="0 0 20 20" fill="none" xmlns="http://www.w3.org/2000/svg">
<path fill-rule="evenodd" clip-rule="evenodd" d="M10 5.625C10 5.625 11.8122 5.625 13.0936 6.90641C13.0936 6.90641 14.375 8.18782 14.375 10C14.375 10 14.375 11.8122 13.0936 13.0936C13.0936 13.0936 11.8122 14.375 10 14.375C10 14.375 8.18782 14.375 6.90641 13.0936C6.90641 13.0936 5.625 11.8122 5.625 10C5.625 10 5.625 8.18782 6.90641 6.90641C6.90641 6.90641 8.18782 5.625 10 5.625ZM10 6.875C10 6.875 8.70558 6.875 7.79029 7.79029C7.79029 7.79029 6.875 8.70558 6.875 10C6.875 10 6.875 11.2944 7.79029 12.2097C7.79029 12.2097 8.70558 13.125 10 13.125C10 13.125 11.2944 13.125 12.2097 12.2097C12.2097 12.2097 13.125 11.2944 13.125 10C13.125 10 13.125 8.70558 12.2097 7.79029C12.2097 7.79029 11.2944 6.875 10 6.875Z" fill="#8D9CAD"/>
<path fill-rule="evenodd" clip-rule="evenodd" d="M16.0859 3.9949L16.0501 6.11849C16.0501 6.11849 16.2353 6.40287 16.3893 6.70535L18.2412 7.735C18.3972 7.82171 18.5086 7.97092 18.5475 8.14506C18.5475 8.14506 18.9611 9.99768 18.5559 11.8522C18.5175 12.0278 18.4054 12.1784 18.2481 12.2655L16.389 13.2952C16.389 13.2952 16.2352 13.5974 16.0501 13.8815L16.0859 16.0051C16.0889 16.1846 16.0146 16.3567 15.8819 16.4776C15.8819 16.4776 14.4806 17.7546 12.6764 18.337C12.5047 18.3924 12.3175 18.3709 12.1628 18.2781L10.3359 17.182C10.3359 17.182 9.99981 17.197 9.66372 17.1819L7.84439 18.2707C7.69099 18.3625 7.50563 18.3842 7.33517 18.3303C7.33517 18.3303 5.52286 17.7578 4.11809 16.4776C3.98542 16.3567 3.91113 16.1845 3.91416 16.0051L3.94995 13.8863C3.94995 13.8863 3.76584 13.599 3.6111 13.2948L1.75881 12.265C1.60221 12.1779 1.49052 12.0279 1.45207 11.8529C1.45207 11.8529 1.04552 10.0023 1.44365 8.14992C1.48159 7.97343 1.59397 7.82197 1.75189 7.73451L3.61101 6.70484C3.61101 6.70484 3.76484 6.40263 3.94991 6.11849L3.91416 3.9949C3.91114 3.81542 3.98543 3.64331 4.11811 3.52241C4.11811 3.52241 5.51943 2.24545 7.32364 1.66304C7.49529 1.60762 7.68252 1.62908 7.8372 1.72188L9.66413 2.81804C9.66413 2.81804 10.0002 2.803 10.3363 2.81806L12.1556 1.72932C12.309 1.63752 12.4944 1.61581 12.6649 1.66966C12.6649 1.66966 14.4772 2.24223 15.8819 3.52243C16.0146 3.64333 16.0889 3.81543 16.0859 3.9949ZM14.797 6.29417L14.8312 4.26285C14.8312 4.26285 13.8106 3.39841 12.5506 2.94969L10.8131 3.98943C10.7031 4.05527 10.5755 4.08568 10.4476 4.07653C10.4476 4.07653 10 4.04452 9.55242 4.07653C9.42428 4.0857 9.29642 4.05516 9.18626 3.98906L7.4432 2.94322C7.4432 2.94322 6.18771 3.39902 5.16885 4.26277L5.20305 6.29417C5.20526 6.42576 5.16588 6.55469 5.09052 6.66258C5.09052 6.66258 4.8386 7.02325 4.65183 7.42158C4.59596 7.54074 4.5039 7.63923 4.38876 7.703L2.6119 8.68711C2.6119 8.68711 2.37896 10.0004 2.61827 11.3126L4.38966 12.2975C4.50392 12.361 4.59538 12.4588 4.65118 12.577C4.65118 12.577 4.84199 12.9814 5.09421 13.3506C5.1672 13.4574 5.20523 13.5843 5.20305 13.7137L5.16887 15.7372C5.16887 15.7372 6.18944 16.6016 7.44942 17.0503L9.18689 16.0106C9.29691 15.9447 9.42452 15.9143 9.55242 15.9235C9.55242 15.9235 10 15.9555 10.4476 15.9235C10.5757 15.9143 10.7036 15.9448 10.8138 16.0109L12.5568 17.0568C12.5568 17.0568 13.8123 16.601 14.8312 15.7372L14.797 13.7058C14.7948 13.5742 14.8341 13.4453 14.9095 13.3374C14.9095 13.3374 15.1614 12.9768 15.3482 12.5784C15.4041 12.4593 15.4961 12.3608 15.6113 12.297L17.3892 11.3123C17.3892 11.3123 17.6261 9.99958 17.3828 8.68796L15.6104 7.7025C15.4956 7.63872 15.4039 7.54043 15.3482 7.42158C15.3482 7.42158 15.1614 7.02325 14.9095 6.66258C14.8341 6.55469 14.7948 6.42576 14.797 6.29417Z" fill="#8D9CAD"/>
</svg>
