<svg width="20" height="20" viewBox="0 0 20 20" fill="none" xmlns="http://www.w3.org/2000/svg">
<path fill-rule="evenodd" clip-rule="evenodd" d="M0.991116 4.42862C0.991116 4.42862 1.35723 4.0625 1.875 4.0625H11.875C11.875 4.0625 13.1694 4.0625 14.0847 4.97779C14.0847 4.97779 15 5.89308 15 7.1875V14.6875C15 14.6875 15 15.2053 14.6339 15.5714C14.6339 15.5714 14.2678 15.9375 13.75 15.9375H3.75C3.75 15.9375 2.45558 15.9375 1.54029 15.0222C1.54029 15.0222 0.625 14.1069 0.625 12.8125V5.3125C0.625 5.3125 0.625 4.79473 0.991116 4.42862ZM1.875 5.3125V12.8125C1.875 12.8125 1.875 13.5892 2.42417 14.1383C2.42417 14.1383 2.97335 14.6875 3.75 14.6875H13.75V7.1875C13.75 7.1875 13.75 6.41085 13.2008 5.86167C13.2008 5.86167 12.6517 5.3125 11.875 5.3125H1.875Z" fill="#8D9CAD"/>
<path d="M18.125 12.673L14.6851 10.7073C14.5907 10.6534 14.4838 10.625 14.375 10.625L14.361 10.6252C14.3101 10.6263 14.2596 10.6336 14.2106 10.647C14.0506 10.6906 13.9146 10.796 13.8323 10.9399C13.7784 11.0343 13.75 11.1412 13.75 11.25C13.75 11.2625 13.7504 11.2749 13.7511 11.2874C13.7637 11.498 13.8817 11.688 14.0649 11.7927L18.4399 14.2927C18.7396 14.4639 19.1214 14.3598 19.2927 14.0601C19.3466 13.9657 19.375 13.8588 19.375 13.75V6.25C19.375 5.90482 19.0952 5.625 18.75 5.625C18.6412 5.625 18.5343 5.65338 18.4399 5.70735L14.0649 8.20735C13.8702 8.31862 13.75 8.52571 13.75 8.75C13.75 8.75874 13.7502 8.76748 13.7505 8.77621C13.7547 8.87601 13.7828 8.97336 13.8323 9.06009C13.9146 9.20401 14.0506 9.30936 14.2106 9.35298C14.2641 9.36759 14.3194 9.375 14.375 9.375L14.3919 9.37477C14.4949 9.37198 14.5956 9.34377 14.6851 9.29265L18.125 7.32699V12.673Z" fill="#8D9CAD"/>
</svg>
