<svg width="20" height="20" viewBox="0 0 20 20" fill="none" xmlns="http://www.w3.org/2000/svg">
<path d="M6.4644 5.58055C6.22033 5.33647 5.8246 5.33647 5.58052 5.58055C5.33644 5.82463 5.33644 6.22036 5.58052 6.46443L9.11608 9.99999L5.58057 13.5355C5.33649 13.7796 5.33649 14.1753 5.58057 14.4194C5.82464 14.6635 6.22037 14.6635 6.46445 14.4194L9.99996 10.8839L13.5355 14.4194C13.7795 14.6635 14.1753 14.6635 14.4194 14.4194C14.6634 14.1753 14.6634 13.7796 14.4194 13.5355L10.8838 9.99999L14.4194 6.46443C14.6635 6.22036 14.6635 5.82463 14.4194 5.58055C14.1753 5.33647 13.7796 5.33647 13.5355 5.58055L9.99996 9.11611L6.4644 5.58055Z" fill="#FFFFFF"/>
</svg>
