<svg width="20" height="20" viewBox="0 0 20 20" fill="none" xmlns="http://www.w3.org/2000/svg">
<path d="M2.5 10.625H6.25C6.59518 10.625 6.875 10.3452 6.875 10C6.875 9.65482 6.59518 9.375 6.25 9.375H2.5C1.98223 9.375 1.61612 9.74112 1.61612 9.74112C1.25 10.1072 1.25 10.625 1.25 10.625V15.625C1.25 16.1428 1.61612 16.5089 1.61612 16.5089C1.98223 16.875 2.5 16.875 2.5 16.875H17.5C18.0178 16.875 18.3839 16.5089 18.3839 16.5089C18.75 16.1428 18.75 15.625 18.75 15.625V10.625C18.75 10.1072 18.3839 9.74112 18.3839 9.74112C18.0178 9.375 17.5 9.375 17.5 9.375H13.75C13.4048 9.375 13.125 9.65482 13.125 10C13.125 10.3452 13.4048 10.625 13.75 10.625H17.5V15.625H2.5V10.625Z" fill="white"/>
<path d="M9.375 1.875V10C9.375 10.3452 9.65482 10.625 10 10.625C10.3452 10.625 10.625 10.3452 10.625 10V1.875C10.625 1.52982 10.3452 1.25 10 1.25C9.65482 1.25 9.375 1.52982 9.375 1.875Z" fill="white"/>
<path d="M14.1917 6.69218L14.1919 6.69194C14.3092 6.57473 14.375 6.41576 14.375 6.25C14.375 6.08424 14.3092 5.92527 14.1919 5.80806C14.0747 5.69085 13.9158 5.625 13.75 5.625C13.5842 5.625 13.4253 5.69085 13.3081 5.80806L13.3078 5.80829L10 9.11612L6.69202 5.80813C6.57473 5.69085 6.41576 5.625 6.25 5.625C6.08424 5.625 5.92527 5.69085 5.80806 5.80806C5.69085 5.92527 5.625 6.08424 5.625 6.25C5.625 6.41576 5.69085 6.57473 5.80806 6.69194L9.55806 10.4419C9.67527 10.5592 9.83424 10.625 10 10.625C10.1658 10.625 10.3247 10.5592 10.4419 10.4419L14.1917 6.69218Z" fill="white"/>
<path d="M15.625 13.125C15.625 13.6427 15.2052 14.0625 14.6875 14.0625C14.1698 14.0625 13.75 13.6427 13.75 13.125C13.75 12.6073 14.1698 12.1875 14.6875 12.1875C15.2052 12.1875 15.625 12.6073 15.625 13.125Z" fill="white"/>
</svg>
