<svg width="20" height="20" viewBox="0 0 20 20" fill="none" xmlns="http://www.w3.org/2000/svg">
<path fill-rule="evenodd" clip-rule="evenodd" d="M2.5 11.875C2.5 11.875 2.5 11.3572 2.86612 10.9911C2.86612 10.9911 3.23223 10.625 3.75 10.625H16.25C16.25 10.625 16.7678 10.625 17.1339 10.9911C17.1339 10.9911 17.5 11.3572 17.5 11.875V15C17.5 15 17.5 15.5178 17.1339 15.8839C17.1339 15.8839 16.7678 16.25 16.25 16.25H3.75C3.75 16.25 3.23223 16.25 2.86612 15.8839C2.86612 15.8839 2.5 15.5178 2.5 15V11.875ZM3.75 11.875V15H16.25V11.875H3.75Z" fill="#0B2866"/>
<path fill-rule="evenodd" clip-rule="evenodd" d="M2.5 5C2.5 5 2.5 4.48223 2.86612 4.11612C2.86612 4.11612 3.23223 3.75 3.75 3.75H16.25C16.25 3.75 16.7678 3.75 17.1339 4.11612C17.1339 4.11612 17.5 4.48223 17.5 5V8.125C17.5 8.125 17.5 8.64277 17.1339 9.00888C17.1339 9.00888 16.7678 9.375 16.25 9.375H3.75C3.75 9.375 3.23223 9.375 2.86612 9.00888C2.86612 9.00888 2.5 8.64277 2.5 8.125V5ZM3.75 5V8.125H16.25V5H3.75Z" fill="#0B2866"/>
</svg>
