<svg width="20" height="20" viewBox="0 0 20 20" fill="none" xmlns="http://www.w3.org/2000/svg">
<path fill-rule="evenodd" clip-rule="evenodd" d="M10 7.5C10 7.5 11.0355 7.5 11.7678 8.23223C11.7678 8.23223 12.5 8.96447 12.5 10C12.5 10 12.5 11.0355 11.7678 11.7678C11.7678 11.7678 11.0355 12.5 10 12.5C10 12.5 8.96447 12.5 8.23223 11.7678C8.23223 11.7678 7.5 11.0355 7.5 10C7.5 10 7.5 8.96447 8.23223 8.23223C8.23223 8.23223 8.96447 7.5 10 7.5ZM10 8.75C10 8.75 9.48223 8.75 9.11612 9.11612C9.11612 9.11612 8.75 9.48223 8.75 10C8.75 10 8.75 10.5178 9.11612 10.8839C9.11612 10.8839 9.48223 11.25 10 11.25C10 11.25 10.5178 11.25 10.8839 10.8839C10.8839 10.8839 11.25 10.5178 11.25 10C11.25 10 11.25 9.48223 10.8839 9.11612C10.8839 9.11612 10.5178 8.75 10 8.75Z" fill="#0B2866"/>
<path fill-rule="evenodd" clip-rule="evenodd" d="M10 1.25C10 1.25 11.0355 1.25 11.7678 1.98223C11.7678 1.98223 12.5 2.71447 12.5 3.75C12.5 3.75 12.5 4.78553 11.7678 5.51777C11.7678 5.51777 11.0355 6.25 10 6.25C10 6.25 8.96447 6.25 8.23223 5.51777C8.23223 5.51777 7.5 4.78553 7.5 3.75C7.5 3.75 7.5 2.71447 8.23223 1.98223C8.23223 1.98223 8.96447 1.25 10 1.25ZM10 2.5C10 2.5 9.48223 2.5 9.11612 2.86612C9.11612 2.86612 8.75 3.23223 8.75 3.75C8.75 3.75 8.75 4.26777 9.11612 4.63388C9.11612 4.63388 9.48223 5 10 5C10 5 10.5178 5 10.8839 4.63388C10.8839 4.63388 11.25 4.26777 11.25 3.75C11.25 3.75 11.25 3.23223 10.8839 2.86612C10.8839 2.86612 10.5178 2.5 10 2.5Z" fill="#0B2866"/>
<path fill-rule="evenodd" clip-rule="evenodd" d="M10 13.75C10 13.75 11.0355 13.75 11.7678 14.4822C11.7678 14.4822 12.5 15.2145 12.5 16.25C12.5 16.25 12.5 17.2855 11.7678 18.0178C11.7678 18.0178 11.0355 18.75 10 18.75C10 18.75 8.96447 18.75 8.23223 18.0178C8.23223 18.0178 7.5 17.2855 7.5 16.25C7.5 16.25 7.5 15.2145 8.23223 14.4822C8.23223 14.4822 8.96447 13.75 10 13.75ZM10 15C10 15 9.48223 15 9.11612 15.3661C9.11612 15.3661 8.75 15.7322 8.75 16.25C8.75 16.25 8.75 16.7678 9.11612 17.1339C9.11612 17.1339 9.48223 17.5 10 17.5C10 17.5 10.5178 17.5 10.8839 17.1339C10.8839 17.1339 11.25 16.7678 11.25 16.25C11.25 16.25 11.25 15.7322 10.8839 15.3661C10.8839 15.3661 10.5178 15 10 15Z" fill="#0B2866"/>
</svg>
