<svg width="20" height="20" viewBox="0 0 20 20" fill="none" xmlns="http://www.w3.org/2000/svg">
<path d="M15 9.37499L10.625 4.99999L12.6797 2.94531C12.7378 2.88626 12.8072 2.83934 12.8836 2.80737C12.9601 2.77533 13.0421 2.75885 13.125 2.75885C13.2079 2.75885 13.29 2.77533 13.3664 2.80737C13.4428 2.83934 13.5122 2.88626 13.5703 2.94531L17.0547 6.42966C17.1137 6.48787 17.1607 6.55715 17.1926 6.6336C17.2247 6.71004 17.2411 6.79213 17.2411 6.87499C17.2411 6.95784 17.2247 7.03994 17.1926 7.11638C17.1607 7.19283 17.1137 7.26218 17.0547 7.32032L15 9.37499Z" fill="#FFFFFF"/>
<path fill-rule="evenodd" clip-rule="evenodd" d="M17.4953 7.76358L7.94195 17.3169C7.82474 17.4341 7.66577 17.5 7.50001 17.5H3.75001C3.75001 17.5 3.23224 17.5 2.86612 17.1339C2.86612 17.1339 2.50001 16.7678 2.50001 16.25L2.50001 12.7578C2.50001 12.7578 2.49914 12.5126 2.59314 12.2837C2.59314 12.2837 2.68714 12.0548 2.86166 11.8795L12.2378 2.50336C12.2378 2.50336 12.4106 2.32783 12.6422 2.23084C12.6422 2.23084 12.8739 2.13385 13.125 2.13385C13.125 2.13385 13.3761 2.13385 13.6078 2.23084C13.6078 2.23084 13.8394 2.32783 14.0156 2.50676L17.4966 5.98774C17.4966 5.98774 17.6722 6.16058 17.7692 6.39222C17.7692 6.39222 17.8661 6.62387 17.8661 6.87499C17.8661 6.87499 17.8661 7.12612 17.7692 7.35776C17.7692 7.35776 17.6731 7.58719 17.4966 7.76225L17.4953 7.76358ZM16.6161 6.87499L16.6128 6.87162L13.125 3.38385L13.1216 3.38725L3.75001 12.7589V16.25H7.24112L16.6128 6.87836L16.6161 6.87499Z" fill="#FFFFFF"/>
<path d="M14.5577 9.81662L14.5581 9.81694C14.6753 9.93415 14.8342 10 15 10C15.1658 10 15.3247 9.93415 15.4419 9.81694C15.5592 9.69973 15.625 9.54076 15.625 9.375C15.625 9.20924 15.5592 9.05027 15.4419 8.93306L15.4416 8.93274L11.067 4.55813C10.9497 4.44085 10.7908 4.375 10.625 4.375C10.4592 4.375 10.3003 4.44085 10.1831 4.55806C10.0658 4.67527 10 4.83424 10 5C10 5.16576 10.0658 5.32473 10.1831 5.44194L14.5577 9.81662Z" fill="#FFFFFF"/>
<path d="M16.875 16.25H7.5C7.15482 16.25 6.875 16.5298 6.875 16.875C6.875 17.2202 7.15482 17.5 7.5 17.5H16.875C17.2202 17.5 17.5 17.2202 17.5 16.875C17.5 16.5298 17.2202 16.25 16.875 16.25Z" fill="#FFFFFF"/>
</svg>
