<svg width="20" height="20" viewBox="0 0 20 20" fill="none" xmlns="http://www.w3.org/2000/svg">
<path fill-rule="evenodd" clip-rule="evenodd" d="M17.7589 5.99112C17.7589 5.99112 18.125 6.35723 18.125 6.875V15.6953C18.125 15.6953 18.125 16.184 17.7795 16.5295C17.7795 16.5295 17.434 16.875 16.9453 16.875H3.125C3.125 16.875 2.60723 16.875 2.24112 16.5089C2.24112 16.5089 1.875 16.1428 1.875 15.625V5C1.875 5 1.875 4.48223 2.24112 4.11612C2.24112 4.11612 2.60723 3.75 3.125 3.75H7.28906C7.28906 3.75 7.70516 3.75171 8.037 3.99846L10.2104 5.62457C10.2104 5.62457 10.2109 5.62499 10.2135 5.62501L16.875 5.625C16.875 5.625 17.3928 5.625 17.7589 5.99112ZM16.875 6.875L10.2084 6.87499C10.2084 6.87499 9.79484 6.87329 9.46151 6.62543L7.29112 5.00154L7.28906 5H3.125V15.625H16.875V6.875Z" fill="#0B2866"/>
<path d="M10.7547 8.62079L10.7544 8.62056C10.6372 8.50335 10.4783 8.4375 10.3125 8.4375C10.1467 8.4375 9.98777 8.50335 9.87056 8.62056C9.75335 8.73777 9.6875 8.89674 9.6875 9.0625C9.6875 9.22826 9.75335 9.38723 9.87056 9.50444L9.87079 9.50468L11.6161 11.25L9.87056 12.9956C9.75335 13.1128 9.6875 13.2717 9.6875 13.4375C9.6875 13.6033 9.75335 13.7622 9.87056 13.8794C9.98777 13.9967 10.1467 14.0625 10.3125 14.0625C10.4783 14.0625 10.6372 13.9967 10.7544 13.8794L12.9419 11.6919C13.0592 11.5747 13.125 11.4158 13.125 11.25C13.125 11.0842 13.0592 10.9253 12.9419 10.8081L10.7547 8.62079Z" fill="#0B2866"/>
<path d="M7.5 11.875L12.5 11.875C12.8452 11.875 13.125 11.5952 13.125 11.25C13.125 10.9048 12.8452 10.625 12.5 10.625L7.5 10.625C7.15482 10.625 6.875 10.9048 6.875 11.25C6.875 11.5952 7.15482 11.875 7.5 11.875Z" fill="#0B2866"/>
</svg>
