<svg width="20" height="20" viewBox="0 0 20 20" fill="none" xmlns="http://www.w3.org/2000/svg">
<path fill-rule="evenodd" clip-rule="evenodd" d="M2.5 3.75C2.5 3.75 2.5 3.23223 2.86612 2.86612C2.86612 2.86612 3.23223 2.5 3.75 2.5H16.25C16.25 2.5 16.7678 2.5 17.1339 2.86612C17.1339 2.86612 17.5 3.23223 17.5 3.75V16.25C17.5 16.25 17.5 16.7678 17.1339 17.1339C17.1339 17.1339 16.7678 17.5 16.25 17.5H3.75C3.75 17.5 3.23223 17.5 2.86612 17.1339C2.86612 17.1339 2.5 16.7678 2.5 16.25V3.75ZM3.75 3.75V16.25H16.25V3.75H3.75Z" fill="#8D9CAD"/>
<path d="M13.125 1.875V4.375C13.125 4.72018 13.4048 5 13.75 5C14.0952 5 14.375 4.72018 14.375 4.375V1.875C14.375 1.52982 14.0952 1.25 13.75 1.25C13.4048 1.25 13.125 1.52982 13.125 1.875Z" fill="#8D9CAD"/>
<path d="M5.625 1.875V4.375C5.625 4.72018 5.90482 5 6.25 5C6.59518 5 6.875 4.72018 6.875 4.375V1.875C6.875 1.52982 6.59518 1.25 6.25 1.25C5.90482 1.25 5.625 1.52982 5.625 1.875Z" fill="#8D9CAD"/>
<path d="M3.125 7.5H16.875C17.2202 7.5 17.5 7.22018 17.5 6.875C17.5 6.52982 17.2202 6.25 16.875 6.25H3.125C2.77982 6.25 2.5 6.52982 2.5 6.875C2.5 7.22018 2.77982 7.5 3.125 7.5Z" fill="#8D9CAD"/>
</svg>
