<svg width="20" height="20" viewBox="0 0 20 20" fill="none" xmlns="http://www.w3.org/2000/svg">
<path d="M7.31671 13.5672L7.31694 13.5669C7.43415 13.4497 7.5 13.2908 7.5 13.125C7.5 12.9592 7.43415 12.8003 7.31694 12.6831L7.31658 12.6827L7.31155 12.6777L7.31118 12.6774C7.19447 12.5636 7.03796 12.5 6.875 12.5C6.70924 12.5 6.55027 12.5658 6.43306 12.6831L6.43282 12.6833L3.30829 15.8078L3.30806 15.8081C3.19085 15.9253 3.125 16.0842 3.125 16.25C3.125 16.4158 3.19085 16.5747 3.30806 16.6919C3.42527 16.8092 3.58424 16.875 3.75 16.875C3.91576 16.875 4.07473 16.8092 4.19194 16.6919L4.19218 16.6917L7.31671 13.5672Z" fill="#8D9CAD"/>
<path fill-rule="evenodd" clip-rule="evenodd" d="M12.0171 1.60578C12.0171 1.60578 12.2487 1.50879 12.4998 1.50879C12.4998 1.50879 12.751 1.50879 12.9826 1.60578C12.9826 1.60578 13.2143 1.70277 13.3871 1.8783L18.1181 6.60931C18.1181 6.60931 18.297 6.78552 18.394 7.01716C18.394 7.01716 18.491 7.24881 18.491 7.49993C18.491 7.49993 18.491 7.75106 18.394 7.9827C18.394 7.9827 18.297 8.21434 18.1215 8.38719L13.5544 12.9543C13.5544 12.9543 14.004 14.1754 13.6009 15.5595C13.6009 15.5595 13.2898 16.6277 12.5228 17.6411C12.5228 17.6411 12.3588 17.8594 12.1187 17.9893C12.1187 17.9893 11.8786 18.1192 11.6062 18.1372C11.6062 18.1372 11.3338 18.1552 11.0787 18.0581C11.0787 18.0581 10.8236 17.9609 10.636 17.77L2.21606 9.35002C2.21606 9.35002 2.02684 9.16242 1.93057 8.91397C1.93057 8.91397 1.8343 8.66551 1.84772 8.3994C1.84772 8.3994 1.86114 8.13328 1.98191 7.89577C1.98191 7.89577 2.10268 7.65826 2.31015 7.49037C2.31015 7.49037 3.9445 6.16968 5.84316 6.25446C5.84316 6.25446 6.51368 6.2844 7.03718 6.45371L11.6092 1.8817C11.6092 1.8817 11.7854 1.70277 12.0171 1.60578ZM12.4998 2.75879L7.62929 7.62937C7.43883 7.81983 7.14777 7.86685 6.90703 7.74604C6.90703 7.74604 6.48522 7.53438 5.78739 7.50322C5.78739 7.50322 4.36202 7.43957 3.09613 8.46234L11.5199 16.8861L11.5237 16.89C11.5237 16.89 12.154 16.0571 12.4008 15.2099C12.4008 15.2099 12.7371 14.0552 12.2538 13.0929C12.1329 12.8521 12.1799 12.561 12.3704 12.3705L17.2376 7.5033L17.241 7.49993L12.5032 2.76219L12.4998 2.75879Z" fill="#8D9CAD"/>
</svg>
