<svg width="24" height="24" viewBox="0 0 24 24" fill="none" xmlns="http://www.w3.org/2000/svg">
<path d="M18.8661 12.3381L13.6817 17.8381C13.5786 17.9474 13.4099 18.0006 13.2974 18.0006C13.1728 18.0006 13.0477 17.9576 12.9486 17.8707C12.737 17.6851 12.7213 17.3688 12.9137 17.1647L17.3099 12.5006H5.51893C5.23233 12.5006 5.00049 12.277 5.00049 12.0287C5.00049 11.7804 5.23239 11.5006 5.51893 11.5006H17.3096L12.9127 6.83494C12.7203 6.63084 12.736 6.31431 12.9476 6.129C13.1598 5.94444 13.4873 5.95809 13.6804 6.16319L18.8648 11.6632C19.0442 11.8537 19.0442 12.1474 18.8661 12.3381Z" fill="white"/>
</svg>
