<svg width="20" height="20" viewBox="0 0 20 20" fill="none" xmlns="http://www.w3.org/2000/svg">
<path d="M10.2524 11.2711C9.73591 11.0566 9.34121 10.6605 9.34121 10.6605C9.22421 10.543 9.06537 10.4769 8.89961 10.4766L8.89844 10.4766C8.88882 10.4766 8.87919 10.4768 8.86958 10.4772C8.71437 10.4844 8.5674 10.5491 8.45732 10.6588C8.33961 10.7761 8.27344 10.9354 8.27344 11.1016C8.27344 11.112 8.2737 11.1224 8.27422 11.1327C8.28192 11.2871 8.34657 11.4332 8.45567 11.5427C9.02629 12.1154 9.77296 12.4255 9.77296 12.4255C10.5196 12.7356 11.3281 12.7356 11.3281 12.7356C12.1366 12.7356 12.8833 12.4255 12.8833 12.4255C13.63 12.1154 14.2006 11.5427 14.2006 11.5427L16.4099 9.34116C16.417 9.3341 16.4239 9.32686 16.4307 9.31946C17.5294 8.11399 17.4916 6.48338 17.4916 6.48338C17.4539 4.85277 16.3006 3.69944 16.3006 3.69944C15.1472 2.54612 13.5166 2.50836 13.5166 2.50836C11.886 2.47061 10.6805 3.56933 10.6805 3.56933C10.6734 3.57583 10.6664 3.58249 10.6596 3.58931L9.11275 5.13619C8.99554 5.2534 8.92969 5.41237 8.92969 5.57813C8.92969 5.58814 8.92993 5.59815 8.93041 5.60815C8.93787 5.76335 9.00288 5.9102 9.11275 6.02007C9.22996 6.13728 9.38893 6.20313 9.55469 6.20313C9.72045 6.20313 9.87942 6.13728 9.99663 6.02007L9.99683 6.01987L11.5328 4.48387C12.3648 3.73203 13.4877 3.75803 13.4877 3.75803C14.6175 3.78419 15.4167 4.58332 15.4167 4.58332C16.2158 5.38246 16.242 6.51231 16.242 6.51231C16.268 7.63497 15.5165 8.46679 15.5165 8.46679L13.315 10.6605C12.9203 11.0566 12.4039 11.2711 12.4039 11.2711C11.8874 11.4856 11.3281 11.4856 11.3281 11.4856C10.7689 11.4856 10.2524 11.2711 10.2524 11.2711Z" fill="white"/>
<path d="M9.74758 8.72887C10.2641 8.94336 10.6588 9.33955 10.6588 9.33955C10.776 9.45727 10.9354 9.52344 11.1015 9.52344C11.1119 9.52344 11.1223 9.52318 11.1327 9.52266C11.2871 9.51495 11.4331 9.45031 11.5426 9.34121C11.6601 9.22422 11.7262 9.06537 11.7265 8.89961L11.7265 8.89844C11.7265 8.88882 11.7263 8.8792 11.7259 8.86958C11.7187 8.71437 11.654 8.5674 11.5443 8.45733C10.9737 7.88456 10.227 7.57446 10.227 7.57446C9.48034 7.26437 8.67185 7.26437 8.67185 7.26437C7.86335 7.26437 7.11668 7.57446 7.11668 7.57446C6.37002 7.88456 5.79939 8.45733 5.79939 8.45733L3.59006 10.6588C3.58297 10.6659 3.57605 10.6731 3.5693 10.6805C2.47058 11.886 2.50833 13.5166 2.50833 13.5166C2.54608 15.1472 3.69941 16.3006 3.69941 16.3006C4.85274 17.4539 6.48335 17.4916 6.48335 17.4916C8.11396 17.5294 9.31943 16.4307 9.31943 16.4307C9.32655 16.4242 9.33353 16.4175 9.34035 16.4107L10.8869 14.8641L10.8872 14.8638C11.0044 14.7466 11.0703 14.5876 11.0703 14.4219C11.0703 14.2561 11.0044 14.0971 10.8872 13.9799C10.77 13.8627 10.611 13.7969 10.4453 13.7969C10.2795 13.7969 10.1206 13.8627 10.0033 13.9799L10.003 13.9803L8.46715 15.5161C7.63521 16.268 6.51228 16.242 6.51228 16.242C5.38243 16.2158 4.58329 15.4167 4.58329 15.4167C3.78416 14.6175 3.758 13.4877 3.758 13.4877C3.73201 12.365 4.48348 11.5332 4.48348 11.5332L6.68493 9.33955C7.07964 8.94336 7.59611 8.72887 7.59611 8.72887C8.1126 8.51437 8.67185 8.51437 8.67185 8.51437C9.2311 8.51437 9.74758 8.72887 9.74758 8.72887Z" fill="white"/>
</svg>
