<svg width="20" height="20" viewBox="0 0 20 20" fill="none" xmlns="http://www.w3.org/2000/svg">
<path fill-rule="evenodd" clip-rule="evenodd" d="M9.0625 1.875C9.0625 1.875 10.5244 1.875 11.8604 2.44009C11.8604 2.44009 13.1504 2.98569 14.1448 3.98017C14.1448 3.98017 15.1393 4.97465 15.6849 6.26461C15.6849 6.26461 16.25 7.60062 16.25 9.0625C16.25 9.0625 16.25 10.5244 15.6849 11.8604C15.6849 11.8604 15.1393 13.1504 14.1448 14.1448C14.1448 14.1448 13.1504 15.1393 11.8604 15.6849C11.8604 15.6849 10.5244 16.25 9.0625 16.25C9.0625 16.25 7.60062 16.25 6.26461 15.6849C6.26461 15.6849 4.97465 15.1393 3.98017 14.1448C3.98017 14.1448 2.98569 13.1504 2.44009 11.8604C2.44009 11.8604 1.875 10.5244 1.875 9.0625C1.875 9.0625 1.875 7.60062 2.44009 6.26461C2.44009 6.26461 2.98569 4.97465 3.98017 3.98017C3.98017 3.98017 4.97464 2.9857 6.26461 2.44009C6.26461 2.44009 7.60062 1.875 9.0625 1.875ZM9.0625 3.125C9.0625 3.125 7.8541 3.125 6.75155 3.59134C6.75155 3.59134 5.68613 4.04198 4.86405 4.86405C4.86405 4.86405 4.04197 5.68613 3.59134 6.75155C3.59134 6.75155 3.125 7.8541 3.125 9.0625C3.125 9.0625 3.125 10.2709 3.59134 11.3735C3.59134 11.3735 4.04197 12.4389 4.86405 13.2609C4.86405 13.2609 5.68613 14.083 6.75155 14.5337C6.75155 14.5337 7.85411 15 9.0625 15C9.0625 15 10.2709 15 11.3735 14.5337C11.3735 14.5337 12.4389 14.083 13.2609 13.2609C13.2609 13.2609 14.083 12.4389 14.5337 11.3735C14.5337 11.3735 15 10.2709 15 9.0625C15 9.0625 15 7.85411 14.5337 6.75155C14.5337 6.75155 14.083 5.68613 13.2609 4.86405C13.2609 4.86405 12.4389 4.04197 11.3735 3.59134C11.3735 3.59134 10.2709 3.125 9.0625 3.125Z" fill="#FFFFFF"/>
<path d="M17.0577 17.9416L17.0581 17.9419C17.1753 18.0592 17.3342 18.125 17.5 18.125C17.6658 18.125 17.8247 18.0592 17.9419 17.9419C18.0592 17.8247 18.125 17.6658 18.125 17.5C18.125 17.3342 18.0592 17.1753 17.9419 17.0581L17.9416 17.0577L14.1451 13.2613C14.0279 13.144 13.8689 13.0781 13.7031 13.0781C13.5374 13.0781 13.3784 13.144 13.2612 13.2612C13.144 13.3784 13.0781 13.5374 13.0781 13.7031C13.0781 13.8689 13.144 14.0279 13.2612 14.1451L17.0577 17.9416Z" fill="#FFFFFF"/>
</svg>
