<svg width="20" height="20" viewBox="0 0 20 20" fill="none" xmlns="http://www.w3.org/2000/svg">
<path fill-rule="evenodd" clip-rule="evenodd" d="M16.9108 2.19362C16.9108 2.19362 16.584 2.11003 16.2602 2.20308L16.2577 2.2038L1.70234 6.30338C1.70234 6.30338 1.32139 6.40753 1.06943 6.71165C1.06943 6.71165 0.817475 7.01577 0.785981 7.40944C0.785981 7.40944 0.754487 7.80312 0.954892 8.14343C0.954892 8.14343 1.1553 8.48374 1.50612 8.64308L8.19308 11.8069L11.3529 18.4851C11.3529 18.4851 11.5163 18.8447 11.8566 19.0451C11.8566 19.0451 12.1969 19.2455 12.5905 19.214C12.5905 19.214 12.9842 19.1825 13.2883 18.9306C13.2883 18.9306 13.5925 18.6786 13.6953 18.3023L17.7952 3.74576C17.7952 3.74576 17.8907 3.41903 17.8064 3.08922C17.8064 3.08922 17.722 2.75942 17.4813 2.5187C17.4813 2.5187 17.2406 2.27799 16.9108 2.19362ZM2.032 7.50913L16.5916 3.40839L12.4921 17.9634L12.4909 17.968L9.32275 11.2718C9.32275 11.2718 9.13458 10.8654 8.72357 10.6751L2.04072 7.51317L2.032 7.50913Z" fill="white"/>
<path d="M12.637 8.24686L12.6373 8.24663C12.7545 8.12942 12.8203 7.97045 12.8203 7.80469C12.8203 7.63893 12.7545 7.47996 12.6373 7.36275L12.6369 7.36239L12.6319 7.35742L12.6315 7.35706C12.5148 7.24333 12.3583 7.17969 12.1953 7.17969C12.1766 7.17969 12.1578 7.18053 12.1392 7.18222C11.9934 7.19537 11.8569 7.25926 11.7534 7.36275L11.7531 7.36298L8.22236 10.8938L8.22212 10.894C8.10491 11.0112 8.03906 11.1702 8.03906 11.3359C8.03906 11.3459 8.0393 11.356 8.03978 11.366C8.04725 11.5212 8.11225 11.668 8.22212 11.7779C8.33933 11.8951 8.4983 11.9609 8.66406 11.9609C8.82982 11.9609 8.98879 11.8951 9.106 11.7779L9.10624 11.7776L12.637 8.24686Z" fill="white"/>
</svg>
