<svg width="20" height="20" viewBox="0 0 20 20" fill="none" xmlns="http://www.w3.org/2000/svg">
<path d="M9.375 9.375V16.875C9.375 17.2202 9.65482 17.5 10 17.5C10.3452 17.5 10.625 17.2202 10.625 16.875V9.375C10.625 9.02982 10.3452 8.75 10 8.75C9.65482 8.75 9.375 9.02982 9.375 9.375Z" fill="white"/>
<path d="M9.375 3.125V6.875C9.375 7.22018 9.65482 7.5 10 7.5C10.3452 7.5 10.625 7.22018 10.625 6.875V3.125C10.625 2.77982 10.3452 2.5 10 2.5C9.65482 2.5 9.375 2.77982 9.375 3.125Z" fill="white"/>
<path d="M15.625 15C15.2798 15 15 15.2798 15 15.625V16.875C15 17.2202 15.2798 17.5 15.625 17.5C15.9702 17.5 16.25 17.2202 16.25 16.875V15.625C16.25 15.2798 15.9702 15 15.625 15Z" fill="white"/>
<path d="M15 3.125V13.125C15 13.4702 15.2798 13.75 15.625 13.75C15.9702 13.75 16.25 13.4702 16.25 13.125V3.125C16.25 2.77982 15.9702 2.5 15.625 2.5C15.2798 2.5 15 2.77982 15 3.125Z" fill="white"/>
<path d="M17.5 12.5H13.75C13.4048 12.5 13.125 12.7798 13.125 13.125C13.125 13.4702 13.4048 13.75 13.75 13.75H17.5C17.8452 13.75 18.125 13.4702 18.125 13.125C18.125 12.7798 17.8452 12.5 17.5 12.5Z" fill="white"/>
<path d="M3.75 13.125V16.875C3.75 17.2202 4.02982 17.5 4.375 17.5C4.72018 17.5 5 17.2202 5 16.875V13.125C5 12.7798 4.72018 12.5 4.375 12.5C4.02982 12.5 3.75 12.7798 3.75 13.125Z" fill="white"/>
<path d="M3.75 3.125V10.625C3.75 10.9702 4.02982 11.25 4.375 11.25C4.72018 11.25 5 10.9702 5 10.625V3.125C5 2.77982 4.72018 2.5 4.375 2.5C4.02982 2.5 3.75 2.77982 3.75 3.125Z" fill="white"/>
<path d="M2.5 11.25H6.25C6.59518 11.25 6.875 10.9702 6.875 10.625C6.875 10.2798 6.59518 10 6.25 10H2.5C2.15482 10 1.875 10.2798 1.875 10.625C1.875 10.9702 2.15482 11.25 2.5 11.25Z" fill="white"/>
<path d="M11.875 6.25H8.125C7.77982 6.25 7.5 6.52982 7.5 6.875C7.5 7.22018 7.77982 7.5 8.125 7.5H11.875C12.2202 7.5 12.5 7.22018 12.5 6.875C12.5 6.52982 12.2202 6.25 11.875 6.25Z" fill="white"/>
</svg>
