<svg width="20" height="20" viewBox="0 0 20 20" fill="none" xmlns="http://www.w3.org/2000/svg">
<path fill-rule="evenodd" clip-rule="evenodd" d="M2.5 10H5.625V5.625C5.625 5.27982 5.90482 5 6.25 5H13.75C14.0952 5 14.375 5.27982 14.375 5.625V10H17.5C17.6658 10 17.8247 10.0658 17.9419 10.1831C18.186 10.4271 18.186 10.8229 17.9419 11.0669L10.4419 18.5669C10.1979 18.811 9.80214 18.811 9.55806 18.5669L2.05806 11.0669C1.94085 10.9497 1.875 10.7908 1.875 10.625C1.875 10.2798 2.15482 10 2.5 10ZM6.25 11.25H4.00888L10 17.2411L15.9911 11.25H13.75C13.4048 11.25 13.125 10.9702 13.125 10.625V6.25H6.875V10.625C6.875 10.9702 6.59518 11.25 6.25 11.25Z" fill="white"/>
<path d="M13.75 2.5H6.25C5.90482 2.5 5.625 2.77982 5.625 3.125C5.625 3.47018 5.90482 3.75 6.25 3.75H13.75C14.0952 3.75 14.375 3.47018 14.375 3.125C14.375 2.77982 14.0952 2.5 13.75 2.5Z" fill="white"/>
</svg>
