<svg width="20" height="20" viewBox="0 0 20 20" fill="none" xmlns="http://www.w3.org/2000/svg">
<path d="M16.875 9.375L3.125 9.375C2.77982 9.375 2.5 9.65482 2.5 10C2.5 10.3452 2.77982 10.625 3.125 10.625L16.875 10.625C17.2202 10.625 17.5 10.3452 17.5 10C17.5 9.65482 17.2202 9.375 16.875 9.375Z" fill="#105DFB"/>
<path d="M4.00888 10L9.19194 4.81694C9.30915 4.69973 9.375 4.54076 9.375 4.375C9.375 4.20924 9.30915 4.05027 9.19194 3.93306C9.07473 3.81585 8.91576 3.75 8.75 3.75C8.58424 3.75 8.42527 3.81585 8.30806 3.93306L2.68306 9.55806C2.43898 9.80214 2.43898 10.1979 2.68306 10.4419L8.30806 16.0669C8.42527 16.1842 8.58424 16.25 8.75 16.25C8.91576 16.25 9.07473 16.1842 9.19194 16.0669C9.30915 15.9497 9.375 15.7908 9.375 15.625C9.375 15.4592 9.30915 15.3003 9.19194 15.1831L4.00888 10Z" fill="#105DFB"/>
</svg>
