<svg width="25" height="25" viewBox="0 0 25 25" fill="none" xmlns="http://www.w3.org/2000/svg">
<path d="M9.25391 4.73047C9.52891 4.73047 9.75391 4.95434 9.75391 5.23047V6.73047H15.7539V5.23047C15.7539 4.95434 15.9789 4.73047 16.2539 4.73047C16.5289 4.73047 16.7539 4.95434 16.7539 5.23047V6.73047H17.7539C18.857 6.73047 19.7539 7.62578 19.7539 8.73047V18.7305C19.7539 19.8336 18.857 20.7305 17.7539 20.7305H7.75391C6.64922 20.7305 5.75391 19.8336 5.75391 18.7305V8.73047C5.75391 7.62578 6.64922 6.73047 7.75391 6.73047H8.75391V5.23047C8.75391 4.95434 8.97891 4.73047 9.25391 4.73047ZM18.7539 10.7305H6.75391V18.7305C6.75391 19.2836 7.20172 19.7305 7.75391 19.7305H17.7539C18.307 19.7305 18.7539 19.2836 18.7539 18.7305V10.7305ZM17.7539 7.73047H7.75391C7.20172 7.73047 6.75391 8.17734 6.75391 8.73047V9.73047H18.7539V8.73047C18.7539 8.17734 18.307 7.73047 17.7539 7.73047Z" fill="#0B2866"/>
</svg>
