<svg width="34" height="34" viewBox="0 0 34 34" fill="none" xmlns="http://www.w3.org/2000/svg">
<path fill-rule="evenodd" clip-rule="evenodd" d="M28.0651 30.1901C28.0651 30.1901 27.4427 30.8125 26.5625 30.8125H7.4375C7.4375 30.8125 6.5573 30.8125 5.9349 30.1901C5.9349 30.1901 5.3125 29.5677 5.3125 28.6875V5.3125C5.3125 5.3125 5.3125 4.4323 5.9349 3.8099C5.9349 3.8099 6.5573 3.1875 7.4375 3.1875H20.1875C20.4693 3.1875 20.7395 3.29944 20.9388 3.4987L28.3763 10.9362C28.5756 11.1355 28.6875 11.4057 28.6875 11.6875V28.6875C28.6875 28.6875 28.6875 29.5677 28.0651 30.1901ZM26.5625 28.6875V12.1276L19.7474 5.3125H7.4375V28.6875H26.5625Z" fill="#8D9CAD"/>
<path d="M20.1875 12.75H27.625C28.2118 12.75 28.6875 12.2743 28.6875 11.6875C28.6875 11.1007 28.2118 10.625 27.625 10.625H21.25V4.25C21.25 3.6632 20.7743 3.1875 20.1875 3.1875C19.6007 3.1875 19.125 3.6632 19.125 4.25V11.6875C19.125 12.2743 19.6007 12.75 20.1875 12.75Z" fill="#8D9CAD"/>
<path d="M21.4697 21.4704L21.4701 21.4701C21.6693 21.2708 21.7812 21.0005 21.7812 20.7188C21.7812 20.437 21.6693 20.1667 21.4701 19.9674C21.2708 19.7682 21.0005 19.6562 20.7188 19.6562C20.437 19.6562 20.1667 19.7682 19.9674 19.9674L19.9671 19.9678L17 22.9349L14.0326 19.9674C13.8333 19.7682 13.563 19.6562 13.2812 19.6562C12.9995 19.6562 12.7292 19.7682 12.5299 19.9674C12.3307 20.1667 12.2188 20.437 12.2188 20.7188C12.2188 21.0005 12.3307 21.2708 12.5299 21.4701L16.2487 25.1888C16.448 25.3881 16.7182 25.5 17 25.5C17.2818 25.5 17.552 25.3881 17.7513 25.1888L21.4697 21.4704Z" fill="#8D9CAD"/>
<path d="M15.9375 15.9375V24.4375C15.9375 25.0243 16.4132 25.5 17 25.5C17.5868 25.5 18.0625 25.0243 18.0625 24.4375V15.9375C18.0625 15.3507 17.5868 14.875 17 14.875C16.4132 14.875 15.9375 15.3507 15.9375 15.9375Z" fill="#8D9CAD"/>
</svg>
