<svg width="40" height="40" viewBox="0 0 40 40" fill="none" xmlns="http://www.w3.org/2000/svg">
<rect width="40" height="40" rx="5" fill="#D7E3FC"/>
<g opacity="0.9">
<path d="M22.25 11V16.25H27.5L22.25 11Z" fill="#AFC6F8"/>
<path fill-rule="evenodd" clip-rule="evenodd" d="M27.8107 29.3107C27.8107 29.3107 27.3713 29.75 26.75 29.75H13.25C13.25 29.75 12.6287 29.75 12.1893 29.3107C12.1893 29.3107 11.75 28.8713 11.75 28.25V11.75C11.75 11.75 11.75 11.1287 12.1893 10.6893C12.1893 10.6893 12.6287 10.25 13.25 10.25H22.25C22.4489 10.25 22.6397 10.329 22.7803 10.4697L28.0303 15.7197C28.171 15.8603 28.25 16.0511 28.25 16.25V28.25C28.25 28.25 28.25 28.8713 27.8107 29.3107ZM26.75 28.25V16.5607L21.9393 11.75H13.25V28.25H26.75Z" fill="#0B2866"/>
<path d="M22.25 17H27.5C27.9142 17 28.25 16.6642 28.25 16.25C28.25 15.8358 27.9142 15.5 27.5 15.5H23V11C23 10.5858 22.6642 10.25 22.25 10.25C21.8358 10.25 21.5 10.5858 21.5 11V16.25C21.5 16.6642 21.8358 17 22.25 17Z" fill="#0B2866"/>
</g>
</svg>
