<svg width="40" height="40" viewBox="0 0 40 40" fill="none" xmlns="http://www.w3.org/2000/svg">
<rect width="40" height="40" rx="5" fill="#FFDB9E"/>
<path d="M22.5 11.45V16.7H27.75L22.5 11.45Z" fill="#FFC564"/>
<path d="M12 12.2V20.45C12 20.8642 12.3358 21.2 12.75 21.2C13.1642 21.2 13.5 20.8642 13.5 20.45V12.2H22.1893L27 17.0107V28.7H24C23.5858 28.7 23.25 29.0358 23.25 29.45C23.25 29.8642 23.5858 30.2 24 30.2H27C27.6213 30.2 28.0607 29.7607 28.0607 29.7607C28.5 29.3213 28.5 28.7 28.5 28.7V16.7C28.5 16.5011 28.421 16.3103 28.2803 16.1697L23.0303 10.9197C22.8897 10.779 22.6989 10.7 22.5 10.7H13.5C12.8787 10.7 12.4393 11.1393 12.4393 11.1393C12 11.5787 12 12.2 12 12.2Z" fill="#0B2866"/>
<path d="M22.5 17.45H27.75C28.1642 17.45 28.5 17.1142 28.5 16.7C28.5 16.2858 28.1642 15.95 27.75 15.95H23.25V11.45C23.25 11.0358 22.9142 10.7 22.5 10.7C22.0858 10.7 21.75 11.0358 21.75 11.45V16.7C21.75 17.1142 22.0858 17.45 22.5 17.45Z" fill="#0B2866"/>
<path d="M20.9805 28.747C20.9805 28.9912 20.8996 29.181 20.7378 29.3163C20.58 29.4506 20.375 29.5233 20.1638 29.5198C19.9575 29.525 19.7569 29.4552 19.6025 29.3244C19.5173 29.2527 19.4501 29.1635 19.4059 29.0636C19.3616 28.9636 19.3415 28.8554 19.347 28.747V24.1032C19.3419 23.994 19.363 23.8852 19.4088 23.7851C19.4545 23.685 19.5237 23.5963 19.611 23.5258C19.7683 23.3964 19.9714 23.3295 20.1787 23.3385C20.3812 23.3396 20.5768 23.4088 20.7314 23.5339C20.8137 23.6057 20.8785 23.6939 20.9211 23.7923C20.9638 23.8907 20.9833 23.9968 20.9784 24.1032L20.9805 28.747Z" fill="#0B2866"/>
<path d="M17.9961 28.4628C17.251 26.6084 16.5152 25.0635 15.6815 23.8272C15.5069 23.5626 15.3593 23.3387 15.0272 23.3387C14.7533 23.3387 14.6015 23.5626 14.4241 23.8272C13.5906 25.0635 12.8025 26.6087 12.0598 28.4628C12.021 28.5599 12.0008 28.6629 12.0002 28.7668C11.9978 28.8702 12.02 28.9727 12.065 29.0667C12.1099 29.1607 12.1766 29.2437 12.2599 29.3096C12.4245 29.4506 12.6384 29.5276 12.8595 29.5254C13.2166 29.5254 13.4574 29.3601 13.5818 29.0294C13.6329 28.8991 13.684 28.7664 13.7351 28.6311H16.3208C16.3719 28.7668 16.423 28.8996 16.4741 29.0294C16.5989 29.3596 16.84 29.5249 17.1971 29.5254C17.4181 29.5274 17.6319 29.4504 17.7967 29.3096C17.8799 29.2437 17.9464 29.1606 17.9913 29.0666C18.0361 28.9726 18.0582 28.8701 18.0557 28.7668C18.0551 28.6629 18.0349 28.5599 17.9961 28.4628ZM14.3134 27.2673C14.5405 26.7797 14.7786 26.3133 15.0279 25.8682C15.2777 26.3133 15.5159 26.7797 15.7425 27.2673H14.3134Z" fill="#0B2866"/>
</svg>
