<svg width="40" height="40" viewBox="0 0 40 40" fill="none" xmlns="http://www.w3.org/2000/svg">
<rect width="40" height="40" rx="5" fill="#88AAF5"/>
<path fill-rule="evenodd" clip-rule="evenodd" d="M12.125 29C11.7108 29 11.375 28.6642 11.375 28.25V23.75C11.375 23.3358 11.7108 23 12.125 23H13.4375C13.4375 23 14.6801 23 15.5588 23.8787C15.5588 23.8787 16.4375 24.7574 16.4375 26C16.4375 26 16.4375 27.2426 15.5588 28.1213C15.5588 28.1213 14.6801 29 13.4375 29H12.125ZM13.4375 27.5H12.875V24.5H13.4375C13.4375 24.5 14.0588 24.5 14.4982 24.9393C14.4982 24.9393 14.9375 25.3787 14.9375 26C14.9375 26 14.9375 26.6213 14.4982 27.0607C14.4982 27.0607 14.0588 27.5 13.4375 27.5Z" fill="#0B2866"/>
<path fill-rule="evenodd" clip-rule="evenodd" d="M20.1875 23C20.1875 23 21.3717 23 22.1988 23.9022C22.1988 23.9022 23 24.7763 23 26C23 26 23 27.2237 22.1988 28.0978C22.1988 28.0978 21.3717 29 20.1875 29C20.1875 29 19.0033 29 18.1762 28.0978C18.1762 28.0978 17.375 27.2237 17.375 26C17.375 26 17.375 24.7763 18.1762 23.9022C18.1762 23.9022 19.0033 23 20.1875 23ZM20.1875 24.5C20.1875 24.5 19.6631 24.5 19.282 24.9158C19.282 24.9158 18.875 25.3598 18.875 26C18.875 26 18.875 26.6402 19.282 27.0842C19.282 27.0842 19.6631 27.5 20.1875 27.5C20.1875 27.5 20.7119 27.5 21.093 27.0842C21.093 27.0842 21.5 26.6402 21.5 26C21.5 26 21.5 25.3598 21.093 24.9158C21.093 24.9158 20.7119 24.5 20.1875 24.5Z" fill="#0B2866"/>
<path d="M26.5565 24.5C27.0239 24.5038 27.369 24.8192 27.369 24.8192C27.5072 24.9456 27.6877 25.0156 27.875 25.0156C27.8862 25.0156 27.8974 25.0154 27.9086 25.0149C28.1073 25.006 28.2943 24.9185 28.4285 24.7717C28.5549 24.6334 28.625 24.4529 28.625 24.2656L28.625 24.2636C28.625 24.253 28.6247 24.2425 28.6242 24.232C28.6153 24.0333 28.5279 23.8463 28.381 23.7121C27.6114 23.0084 26.5685 23 26.5685 23C25.3748 23 24.5494 23.9007 24.5494 23.9007C23.75 24.773 23.75 26 23.75 26C23.75 27.227 24.5494 28.0993 24.5494 28.0993C25.3748 29 26.5625 29 26.5625 29C27.6114 28.9916 28.381 28.2879 28.381 28.2879C28.5365 28.1458 28.625 27.945 28.625 27.7344L28.625 27.7292C28.6237 27.5437 28.5537 27.3652 28.4285 27.2283C28.2865 27.0729 28.0856 26.9844 27.875 26.9844L27.8698 26.9844C27.6843 26.9857 27.5059 27.0557 27.369 27.1808C27.0239 27.4963 26.5625 27.5 26.5625 27.5C26.0348 27.5 25.6553 27.0859 25.6553 27.0859C25.25 26.6436 25.25 26 25.25 26C25.25 25.3564 25.6553 24.9141 25.6553 24.9141C26.0348 24.5 26.5565 24.5 26.5565 24.5Z" fill="#0B2866"/>
<path d="M22.25 11V16.25H27.5L22.25 11Z" fill="#608DF1"/>
<path d="M26.75 16.5607V20C26.75 20.4142 27.0858 20.75 27.5 20.75C27.9142 20.75 28.25 20.4142 28.25 20V16.25C28.25 16.0511 28.171 15.8603 28.0303 15.7197L22.7803 10.4697C22.6397 10.329 22.4489 10.25 22.25 10.25L13.25 10.25C12.6287 10.25 12.1893 10.6893 12.1893 10.6893C11.75 11.1287 11.75 11.75 11.75 11.75V20C11.75 20.4142 12.0858 20.75 12.5 20.75C12.9142 20.75 13.25 20.4142 13.25 20V11.75H21.9393L26.75 16.5607Z" fill="#0B2866"/>
<path d="M22.25 17H27.5C27.9142 17 28.25 16.6642 28.25 16.25C28.25 15.8358 27.9142 15.5 27.5 15.5H23V11C23 10.5858 22.6642 10.25 22.25 10.25C21.8358 10.25 21.5 10.5858 21.5 11V16.25C21.5 16.6642 21.8358 17 22.25 17Z" fill="#0B2866"/>
</svg>
