<svg width="40" height="40" viewBox="0 0 40 40" fill="none" xmlns="http://www.w3.org/2000/svg">
<rect width="40" height="40" rx="5" fill="#D7E3FC"/>
<path d="M14.5063 20H19.025C19.1711 19.9984 19.3139 19.9562 19.4375 19.8781L21.3125 18.6219C21.4361 18.5438 21.5789 18.5016 21.725 18.5H27.5V16.25C27.5 16.0511 27.4209 15.8604 27.2803 15.7196C27.1396 15.579 26.9489 15.5 26.75 15.5H20.2531C20.091 15.4994 19.9333 15.4468 19.8032 15.35L17.1968 13.4C17.0667 13.3032 16.909 13.2506 16.7469 13.25H11.75C11.5511 13.25 11.3604 13.329 11.2197 13.4696C11.0791 13.6104 11 13.8011 11 14V27.5L13.8125 20.4688C13.8674 20.3298 13.963 20.2106 14.0868 20.1269C14.2106 20.0433 14.3569 19.999 14.5063 20Z" fill="#AFC6F8"/>
<path d="M26.75 16.25V18.5C26.75 18.9142 27.0858 19.25 27.5 19.25C27.9142 19.25 28.25 18.9142 28.25 18.5V16.25C28.25 15.6287 27.8107 15.1893 27.8107 15.1893C27.3713 14.75 26.75 14.75 26.75 14.75H20.2531L20.2507 14.7482L17.6462 12.7995C17.2462 12.502 16.75 12.5 16.75 12.5L11.75 12.5C11.1287 12.5 10.6893 12.9393 10.6893 12.9393C10.25 13.3787 10.25 14 10.25 14V27.5C10.25 27.9142 10.5858 28.25 11 28.25C11.4142 28.25 11.75 27.9142 11.75 27.5V14L16.7438 14C16.7469 14 16.7476 14.0005 16.7476 14.0005L19.3556 15.9518C19.7538 16.248 20.2531 16.25 20.2531 16.25H26.75Z" fill="#0B2866"/>
<path fill-rule="evenodd" clip-rule="evenodd" d="M27.5 28.25H11C10.5858 28.25 10.25 27.9142 10.25 27.5C10.25 27.4046 10.2682 27.31 10.3036 27.2215L13.1161 20.1902C13.1161 20.1902 13.2843 19.764 13.6669 19.5055C13.6669 19.5055 14.0494 19.247 14.5111 19.25L19.025 19.25C19.025 19.25 19.0269 19.2499 19.0319 19.2471L20.895 17.9988L20.9116 17.988C20.9116 17.988 21.2805 17.7547 21.717 17.75L29.4594 17.75C29.4594 17.75 29.8202 17.75 30.1416 17.9141C30.1416 17.9141 30.463 18.0782 30.6745 18.3705C30.6745 18.3705 30.8861 18.6628 30.9416 19.0194C30.9416 19.0194 30.9971 19.376 30.8843 19.7188L28.2115 27.7372C28.1094 28.0434 27.8228 28.25 27.5 28.25ZM12.1078 26.75H26.9594L29.4594 19.25L21.733 19.25C21.733 19.25 21.7242 19.2501 21.7165 19.254L19.855 20.5012L19.8384 20.512C19.8384 20.512 19.4695 20.7453 19.025 20.75L14.5078 20.75L12.1078 26.75Z" fill="#0B2866"/>
</svg>
