<svg width="40" height="40" viewBox="0 0 40 40" fill="none" xmlns="http://www.w3.org/2000/svg">
<rect width="40" height="40" rx="5" fill="#D7E3FC"/>
<path d="M11.75 24.5V12.5C11.75 12.3011 11.8291 12.1103 11.9697 11.9697C12.1104 11.829 12.3011 11.75 12.5 11.75H27.5C27.6989 11.75 27.8896 11.829 28.0303 11.9697C28.1709 12.1103 28.25 12.3011 28.25 12.5V23L24.2843 19.0344C24.2145 18.9635 24.1314 18.9072 24.0397 18.8688C23.9479 18.8304 23.8494 18.8106 23.75 18.8106C23.6506 18.8106 23.5521 18.8304 23.4603 18.8688C23.3686 18.9072 23.2855 18.9635 23.2157 19.0344L19.0343 23.2156C18.9645 23.2865 18.8814 23.3428 18.7897 23.3812C18.6979 23.4196 18.5994 23.4394 18.5 23.4394C18.4006 23.4394 18.3021 23.4196 18.2103 23.3812C18.1186 23.3428 18.0355 23.2865 17.9657 23.2156L16.0343 21.2844C15.9645 21.2135 15.8814 21.1572 15.7897 21.1188C15.6979 21.0804 15.5994 21.0606 15.5 21.0606C15.4006 21.0606 15.3021 21.0804 15.2103 21.1188C15.1186 21.1572 15.0355 21.2135 14.9657 21.2844L11.75 24.5Z" fill="#AFC6F8"/>
<path fill-rule="evenodd" clip-rule="evenodd" d="M11 12.5C11 12.5 11 11.8787 11.4393 11.4393C11.4393 11.4393 11.8787 11 12.5 11H27.5C27.5 11 28.1213 11 28.5607 11.4393C28.5607 11.4393 29 11.8787 29 12.5V27.5C29 27.5 29 28.1213 28.5607 28.5607C28.5607 28.5607 28.1213 29 27.5 29H12.5C12.5 29 11.8787 29 11.4393 28.5607C11.4393 28.5607 11 28.1213 11 27.5V12.5ZM12.5 12.5V27.5H27.5V12.5H12.5Z" fill="#0B2866"/>
<path d="M11.22 23.9694L11.2197 23.9697C11.079 24.1103 11 24.3011 11 24.5C11 24.512 11.0003 24.524 11.0009 24.536C11.0098 24.7223 11.0878 24.8985 11.2197 25.0303C11.3603 25.171 11.5511 25.25 11.75 25.25C11.9489 25.25 12.1397 25.171 12.2803 25.0303L12.2806 25.03L15.496 21.8147C15.5 21.8106 15.5 21.8106 15.5 21.8106L17.4353 23.7459C17.6427 23.9566 17.9207 24.073 17.9207 24.073C18.1986 24.1894 18.5 24.1894 18.5 24.1894C18.8014 24.1894 19.0793 24.073 19.0793 24.073C19.3573 23.9566 19.5687 23.7419 19.5687 23.7419L23.746 19.5647L23.75 19.5606L27.7197 23.5303C27.8603 23.671 28.0511 23.75 28.25 23.75C28.4489 23.75 28.6397 23.671 28.7803 23.5303C28.921 23.3897 29 23.1989 29 23C29 22.8011 28.921 22.6103 28.7803 22.4697L24.8187 18.5081C24.6073 18.2934 24.3293 18.177 24.3293 18.177C24.0514 18.0606 23.75 18.0606 23.75 18.0606C23.4486 18.0606 23.1707 18.177 23.1707 18.177C22.8927 18.2934 22.6853 18.504 22.6853 18.504L18.5 22.6894L18.496 22.6853L16.5688 20.7581C16.3573 20.5434 16.0793 20.427 16.0793 20.427C15.8014 20.3106 15.5 20.3106 15.5 20.3106C15.1986 20.3106 14.9207 20.427 14.9207 20.427C14.6427 20.5434 14.4353 20.754 14.4353 20.754L11.22 23.9694Z" fill="#0B2866"/>
<path d="M18.5 16.625C18.5 17.2463 17.9963 17.75 17.375 17.75C16.7537 17.75 16.25 17.2463 16.25 16.625C16.25 16.0037 16.7537 15.5 17.375 15.5C17.9963 15.5 18.5 16.0037 18.5 16.625Z" fill="#0B2866"/>
</svg>
