<svg width="40" height="40" viewBox="0 0 40 40" fill="none" xmlns="http://www.w3.org/2000/svg">
<rect width="40" height="40" rx="5" fill="#F9D0E7"/>
<path d="M22.5 11.4502V16.7002H27.75L22.5 11.4502Z" fill="#F7B3D8"/>
<path d="M27 17.0109V20.4502C27 20.8644 27.3358 21.2002 27.75 21.2002C28.1642 21.2002 28.5 20.8644 28.5 20.4502V16.7002C28.5 16.5013 28.421 16.3105 28.2803 16.1699L23.0303 10.9199C22.8897 10.7792 22.6989 10.7002 22.5 10.7002L13.5 10.7002C12.8787 10.7002 12.4393 11.1395 12.4393 11.1395C12 11.5789 12 12.2002 12 12.2002V20.4502C12 20.8644 12.3358 21.2002 12.75 21.2002C13.1642 21.2002 13.5 20.8644 13.5 20.4502V12.2002H22.1893L27 17.0109Z" fill="#0B2866"/>
<path d="M22.5 17.4502H27.75C28.1642 17.4502 28.5 17.1144 28.5 16.7002C28.5 16.286 28.1642 15.9502 27.75 15.9502H23.25V11.4502C23.25 11.036 22.9142 10.7002 22.5 10.7002C22.0858 10.7002 21.75 11.036 21.75 11.4502V16.7002C21.75 17.1144 22.0858 17.4502 22.5 17.4502Z" fill="#0B2866"/>
<path d="M12.084 28.7518C12.084 28.9957 12.0043 29.1854 11.8448 29.3209C11.6908 29.4565 11.5065 29.5242 11.292 29.5242C11.0775 29.5242 10.896 29.4592 10.7475 29.3291C10.5825 29.1881 10.5 28.9957 10.5 28.7518V24.1091C10.5 23.8652 10.5852 23.6728 10.7558 23.5319C10.9098 23.4018 11.094 23.3394 11.3085 23.3448C11.5175 23.3503 11.6962 23.4153 11.8448 23.54C12.0043 23.6809 12.084 23.8706 12.084 24.1091V28.7518Z" fill="#0B2866"/>
<path d="M18.0442 28.7437C18.0442 28.9713 17.9699 29.1583 17.8214 29.3047C17.6729 29.451 17.4859 29.5242 17.2604 29.5242C16.9689 29.5242 16.7297 29.386 16.5427 29.1095L14.8597 26.6541V28.7437C14.8597 28.9876 14.7827 29.1773 14.6287 29.3128C14.4747 29.4483 14.2904 29.5161 14.0759 29.5161C13.8614 29.5161 13.6799 29.451 13.5314 29.3209C13.3664 29.18 13.2839 28.9876 13.2839 28.7437V24.101C13.2839 23.8733 13.3582 23.6918 13.5067 23.5562C13.6607 23.4153 13.8532 23.3448 14.0842 23.3448C14.3592 23.3448 14.6039 23.4993 14.8184 23.8083L16.4684 26.215V24.101C16.4684 23.8625 16.5537 23.6728 16.7242 23.5319C16.8727 23.4018 17.0569 23.3394 17.2769 23.3448C17.4859 23.3503 17.6619 23.4153 17.8049 23.54C17.9644 23.6809 18.0442 23.8679 18.0442 24.101V28.7437Z" fill="#0B2866"/>
<path d="M23.8787 26.3532C23.8952 27.2042 23.5817 27.9279 22.9382 28.5241C22.2232 29.1854 21.2607 29.5161 20.0507 29.5161C19.8307 29.5161 19.6464 29.4537 19.4979 29.3291C19.3274 29.1881 19.2422 28.9957 19.2422 28.7518V24.101C19.2422 23.8571 19.3274 23.6647 19.4979 23.5237C19.6464 23.3991 19.8307 23.3367 20.0507 23.3367C21.2497 23.3367 22.2039 23.6511 22.9134 24.2799C23.5459 24.8382 23.8677 25.5293 23.8787 26.3532ZM22.3854 26.3695C22.3909 25.9955 22.2644 25.673 22.0059 25.4019C21.7254 25.1038 21.3322 24.9168 20.8262 24.8409V28.0119C21.3102 27.8981 21.6924 27.6812 21.9729 27.3614C22.2369 27.0633 22.3744 26.7327 22.3854 26.3695Z" fill="#0B2866"/>
<path d="M29.6194 26.3532C29.6359 27.2042 29.3224 27.9279 28.6789 28.5241C27.9639 29.1854 27.0014 29.5161 25.7914 29.5161C25.5714 29.5161 25.3872 29.4537 25.2387 29.3291C25.0682 29.1881 24.9829 28.9957 24.9829 28.7518V24.101C24.9829 23.8571 25.0682 23.6647 25.2387 23.5237C25.3872 23.3991 25.5714 23.3367 25.7914 23.3367C26.9904 23.3367 27.9447 23.6511 28.6542 24.2799C29.2867 24.8382 29.6084 25.5293 29.6194 26.3532ZM28.1262 26.3695C28.1317 25.9955 28.0052 25.673 27.7467 25.4019C27.4662 25.1038 27.0729 24.9168 26.5669 24.8409V28.0119C27.0509 27.8981 27.4332 27.6812 27.7137 27.3614C27.9777 27.0633 28.1152 26.7327 28.1262 26.3695Z" fill="#0B2866"/>
</svg>
