<svg width="40" height="40" viewBox="0 0 40 40" fill="none" xmlns="http://www.w3.org/2000/svg">
<rect width="40" height="40" rx="5" fill="#F26464"/>
<path d="M22.25 11V16.25H27.5L22.25 11Z" fill="#C53434"/>
<path d="M26.75 16.5607V20C26.75 20.4142 27.0858 20.75 27.5 20.75C27.9142 20.75 28.25 20.4142 28.25 20V16.25C28.25 16.0511 28.171 15.8603 28.0303 15.7197L22.7803 10.4697C22.6397 10.329 22.4489 10.25 22.25 10.25L13.25 10.25C12.6287 10.25 12.1893 10.6893 12.1893 10.6893C11.75 11.1287 11.75 11.75 11.75 11.75V20C11.75 20.4142 12.0858 20.75 12.5 20.75C12.9142 20.75 13.25 20.4142 13.25 20V11.75H21.9393L26.75 16.5607Z" fill="#0B2866"/>
<path d="M22.25 17H27.5C27.9142 17 28.25 16.6642 28.25 16.25C28.25 15.8358 27.9142 15.5 27.5 15.5H23V11C23 10.5858 22.6642 10.25 22.25 10.25C21.8358 10.25 21.5 10.5858 21.5 11V16.25C21.5 16.6642 21.8358 17 22.25 17Z" fill="#0B2866"/>
<path fill-rule="evenodd" clip-rule="evenodd" d="M11.75 28.25V23.75C11.75 23.3358 12.0858 23 12.5 23H14C14 23 14.932 23 15.591 23.659C15.591 23.659 16.25 24.318 16.25 25.25C16.25 25.25 16.25 26.182 15.591 26.841C15.591 26.841 14.932 27.5 14 27.5H13.25V28.25C13.25 28.6642 12.9142 29 12.5 29C12.0858 29 11.75 28.6642 11.75 28.25ZM14 26H13.25V24.5H14C14 24.5 14.3107 24.5 14.5303 24.7197C14.5303 24.7197 14.75 24.9393 14.75 25.25C14.75 25.25 14.75 25.5607 14.5303 25.7803C14.5303 25.7803 14.3107 26 14 26Z" fill="#0B2866"/>
<path d="M24.875 23.75V28.25C24.875 28.6642 25.2108 29 25.625 29C26.0392 29 26.375 28.6642 26.375 28.25V24.5H28.25C28.6642 24.5 29 24.1642 29 23.75C29 23.3358 28.6642 23 28.25 23H25.625C25.2108 23 24.875 23.3358 24.875 23.75Z" fill="#0B2866"/>
<path d="M27.875 25.625H25.625C25.2108 25.625 24.875 25.9608 24.875 26.375C24.875 26.7892 25.2108 27.125 25.625 27.125H27.875C28.2892 27.125 28.625 26.7892 28.625 26.375C28.625 25.9608 28.2892 25.625 27.875 25.625Z" fill="#0B2866"/>
<path fill-rule="evenodd" clip-rule="evenodd" d="M18.6875 29C18.2733 29 17.9375 28.6642 17.9375 28.25V23.75C17.9375 23.3358 18.2733 23 18.6875 23H20C20 23 21.2426 23 22.1213 23.8787C22.1213 23.8787 23 24.7574 23 26C23 26 23 27.2426 22.1213 28.1213C22.1213 28.1213 21.2426 29 20 29H18.6875ZM20 27.5H19.4375V24.5H20C20 24.5 20.6213 24.5 21.0607 24.9393C21.0607 24.9393 21.5 25.3787 21.5 26C21.5 26 21.5 26.6213 21.0607 27.0607C21.0607 27.0607 20.6213 27.5 20 27.5Z" fill="#0B2866"/>
</svg>
