<svg width="40" height="40" viewBox="0 0 40 40" fill="none" xmlns="http://www.w3.org/2000/svg">
<rect width="40" height="40" rx="5" fill="#FF8A4C"/>
<path d="M22.25 11V16.25H27.5L22.25 11Z" fill="#E36C2D"/>
<path fill-rule="evenodd" clip-rule="evenodd" d="M11.75 28.25V23.75C11.75 23.3358 12.0858 23 12.5 23H14C14 23 14.932 23 15.591 23.659C15.591 23.659 16.25 24.318 16.25 25.25C16.25 25.25 16.25 26.182 15.591 26.841C15.591 26.841 14.932 27.5 14 27.5H13.25V28.25C13.25 28.6642 12.9142 29 12.5 29C12.0858 29 11.75 28.6642 11.75 28.25ZM14 26H13.25V24.5H14C14 24.5 14.3107 24.5 14.5303 24.7197C14.5303 24.7197 14.75 24.9393 14.75 25.25C14.75 25.25 14.75 25.5607 14.5303 25.7803C14.5303 25.7803 14.3107 26 14 26Z" fill="#0B2866"/>
<path fill-rule="evenodd" clip-rule="evenodd" d="M17.75 28.25V23.75C17.75 23.3358 18.0858 23 18.5 23H20C20 23 20.932 23 21.591 23.659C21.591 23.659 22.25 24.318 22.25 25.25C22.25 25.25 22.25 26.182 21.591 26.841C21.591 26.841 20.932 27.5 20 27.5H19.25V28.25C19.25 28.6642 18.9142 29 18.5 29C18.0858 29 17.75 28.6642 17.75 28.25ZM20 26H19.25V24.5H20C20 24.5 20.3107 24.5 20.5303 24.7197C20.5303 24.7197 20.75 24.9393 20.75 25.25C20.75 25.25 20.75 25.5607 20.5303 25.7803C20.5303 25.7803 20.3107 26 20 26Z" fill="#0B2866"/>
<path d="M27.5 23H24.125C23.7108 23 23.375 23.3358 23.375 23.75C23.375 24.1642 23.7108 24.5 24.125 24.5H27.5C27.9142 24.5 28.25 24.1642 28.25 23.75C28.25 23.3358 27.9142 23 27.5 23Z" fill="#0B2866"/>
<path d="M26.5625 28.25V23.75C26.5625 23.3358 26.2267 23 25.8125 23C25.3983 23 25.0625 23.3358 25.0625 23.75V28.25C25.0625 28.6642 25.3983 29 25.8125 29C26.2267 29 26.5625 28.6642 26.5625 28.25Z" fill="#0B2866"/>
<path d="M26.75 16.5607V20C26.75 20.4142 27.0858 20.75 27.5 20.75C27.9142 20.75 28.25 20.4142 28.25 20V16.25C28.25 16.0511 28.171 15.8603 28.0303 15.7197L22.7803 10.4697C22.6397 10.329 22.4489 10.25 22.25 10.25L13.25 10.25C12.6287 10.25 12.1893 10.6893 12.1893 10.6893C11.75 11.1287 11.75 11.75 11.75 11.75V20C11.75 20.4142 12.0858 20.75 12.5 20.75C12.9142 20.75 13.25 20.4142 13.25 20V11.75H21.9393L26.75 16.5607Z" fill="#0B2866"/>
<path d="M22.25 17H27.5C27.9142 17 28.25 16.6642 28.25 16.25C28.25 15.8358 27.9142 15.5 27.5 15.5H23V11C23 10.5858 22.6642 10.25 22.25 10.25C21.8358 10.25 21.5 10.5858 21.5 11V16.25C21.5 16.6642 21.8358 17 22.25 17Z" fill="#0B2866"/>
</svg>
