<svg width="40" height="40" viewBox="0 0 40 40" fill="none" xmlns="http://www.w3.org/2000/svg">
<rect width="40" height="40" rx="5" fill="#AFC6F8"/>
<path d="M22.5 11.45V16.7H27.75L22.5 11.45Z" fill="#88AAF5"/>
<path d="M27 17.0107V20.45C27 20.8642 27.3358 21.2 27.75 21.2C28.1642 21.2 28.5 20.8642 28.5 20.45V16.7C28.5 16.5011 28.421 16.3103 28.2803 16.1697L23.0303 10.9197C22.8897 10.779 22.6989 10.7 22.5 10.7L13.5 10.7C12.8787 10.7 12.4393 11.1393 12.4393 11.1393C12 11.5787 12 12.2 12 12.2V20.45C12 20.8642 12.3358 21.2 12.75 21.2C13.1642 21.2 13.5 20.8642 13.5 20.45V12.2H22.1893L27 17.0107Z" fill="#0B2866"/>
<path d="M22.5 17.45H27.75C28.1642 17.45 28.5 17.1142 28.5 16.7C28.5 16.2858 28.1642 15.95 27.75 15.95H23.25V11.45C23.25 11.0358 22.9142 10.7 22.5 10.7C22.0858 10.7 21.75 11.0358 21.75 11.45V16.7C21.75 17.1142 22.0858 17.45 22.5 17.45Z" fill="#0B2866"/>
<path d="M16.5928 25.312C16.5928 25.8144 16.4421 26.2401 16.1406 26.5891C15.8075 26.9751 15.358 27.1681 14.7921 27.1681H13.523V28.7308C13.523 28.9688 13.4463 29.1538 13.293 29.2861C13.1449 29.4183 12.9677 29.4844 12.7615 29.4844C12.5553 29.4844 12.3807 29.4209 12.238 29.294C12.0793 29.1565 12 28.9688 12 28.7308V24.2015C12 23.9635 12.082 23.7758 12.2459 23.6383C12.3887 23.5167 12.5658 23.4559 12.7774 23.4559H14.7921C15.358 23.4559 15.8075 23.6489 16.1406 24.0349C16.4421 24.3839 16.5928 24.8096 16.5928 25.312ZM15.1174 25.2723C15.1174 25.1243 15.0698 24.9974 14.9746 24.8916C14.8847 24.7858 14.7604 24.7329 14.6018 24.7329H13.523V25.8038H14.6018C14.7604 25.8038 14.8847 25.7509 14.9746 25.6452C15.0698 25.5394 15.1174 25.4151 15.1174 25.2723Z" fill="#0B2866"/>
<path d="M22.4896 27.5961C22.5002 28.2941 22.2305 28.815 21.6806 29.1587C21.2469 29.4284 20.6943 29.5633 20.0227 29.5633C19.3353 29.5633 18.7826 29.3993 18.3649 29.0715C18.1216 28.8811 18 28.6564 18 28.3972C18 28.1963 18.0687 28.0244 18.2062 27.8816C18.349 27.7336 18.5209 27.6595 18.7218 27.6595C18.8858 27.6595 19.0471 27.7071 19.2057 27.8023C19.4965 27.9821 19.8561 28.072 20.2845 28.072C20.4907 28.072 20.652 28.0376 20.7684 27.9689C20.8847 27.8949 20.9455 27.805 20.9508 27.6992C20.9508 27.567 20.8768 27.4454 20.7287 27.3343C20.5542 27.1968 20.3241 27.1228 20.0386 27.1122C19.5521 27.0911 19.1237 26.9404 18.7536 26.6601C18.3041 26.3216 18.0714 25.8616 18.0555 25.2799C18.0397 24.7246 18.2327 24.2725 18.6346 23.9235C19.0365 23.5691 19.5547 23.3867 20.1893 23.3761C21.0989 23.3656 21.7334 23.5929 22.093 24.0583C22.2358 24.2487 22.3072 24.4443 22.3072 24.6453C22.3072 24.841 22.2411 25.0102 22.1089 25.153C21.9767 25.2904 21.8128 25.3592 21.6171 25.3592C21.4056 25.3592 21.2099 25.2719 21.0301 25.0974C20.8503 24.9229 20.5859 24.8277 20.2369 24.8119C20.0518 24.8066 19.8984 24.8462 19.7768 24.9309C19.6763 24.9996 19.6208 25.0816 19.6102 25.1767C19.5944 25.2772 19.6446 25.3698 19.761 25.4544C19.8826 25.539 20.0492 25.5892 20.2607 25.6051C20.8318 25.6474 21.3289 25.8351 21.7519 26.1683C22.2332 26.5437 22.4791 27.0197 22.4896 27.5961Z" fill="#0B2866"/>
<path d="M28.4579 26.3987C28.4738 27.229 28.1724 27.9349 27.5536 28.5166C26.8662 29.1618 25.9408 29.4844 24.7774 29.4844C24.5658 29.4844 24.3887 29.4235 24.2459 29.3019C24.082 29.1644 24 28.9767 24 28.7387V24.2015C24 23.9635 24.082 23.7758 24.2459 23.6383C24.3887 23.5167 24.5658 23.4559 24.7774 23.4559C25.9302 23.4559 26.8477 23.7626 27.5298 24.376C28.138 24.9207 28.4473 25.5949 28.4579 26.3987ZM27.0222 26.4146C27.0275 26.0497 26.9058 25.7351 26.6573 25.4706C26.3876 25.1798 26.0095 24.9974 25.523 24.9233V28.0169C25.9883 27.9058 26.3559 27.6943 26.6256 27.3823C26.8794 27.0915 27.0116 26.7689 27.0222 26.4146Z" fill="#0B2866"/>
</svg>
