<svg width="40" height="40" viewBox="0 0 40 40" fill="none" xmlns="http://www.w3.org/2000/svg">
<rect width="40" height="40" rx="5" fill="#D7E3FC"/>
<path d="M22.25 11V16.25H27.5L22.25 11Z" fill="#AFC6F8"/>
<path fill-rule="evenodd" clip-rule="evenodd" d="M27.8107 29.3107C27.8107 29.3107 27.3713 29.75 26.75 29.75H13.25C13.25 29.75 12.6287 29.75 12.1893 29.3107C12.1893 29.3107 11.75 28.8713 11.75 28.25V11.75C11.75 11.75 11.75 11.1287 12.1893 10.6893C12.1893 10.6893 12.6287 10.25 13.25 10.25H22.25C22.4489 10.25 22.6397 10.329 22.7803 10.4697L28.0303 15.7197C28.171 15.8603 28.25 16.0511 28.25 16.25V28.25C28.25 28.25 28.25 28.8713 27.8107 29.3107ZM26.75 28.25V16.5607L21.9393 11.75H13.25V28.25H26.75Z" fill="#0B2866"/>
<path d="M22.25 17H27.5C27.9142 17 28.25 16.6642 28.25 16.25C28.25 15.8358 27.9142 15.5 27.5 15.5H23V11C23 10.5858 22.6642 10.25 22.25 10.25C21.8358 10.25 21.5 10.5858 21.5 11V16.25C21.5 16.6642 21.8358 17 22.25 17Z" fill="#0B2866"/>
<path d="M23.155 23.1556L23.1553 23.1553C23.296 23.0147 23.375 22.8239 23.375 22.625C23.375 22.4261 23.296 22.2353 23.1553 22.0947C23.0147 21.954 22.8239 21.875 22.625 21.875C22.4261 21.875 22.2353 21.954 22.0947 22.0947L22.0944 22.095L20 24.1893L17.9053 22.0947C17.7647 21.954 17.5739 21.875 17.375 21.875C17.1761 21.875 16.9853 21.954 16.8447 22.0947C16.704 22.2353 16.625 22.4261 16.625 22.625C16.625 22.8239 16.704 23.0147 16.8447 23.1553L19.4697 25.7803C19.6103 25.921 19.8011 26 20 26C20.1989 26 20.3897 25.921 20.5303 25.7803L23.155 23.1556Z" fill="#0B2866"/>
<path d="M19.25 19.25V25.25C19.25 25.6642 19.5858 26 20 26C20.4142 26 20.75 25.6642 20.75 25.25V19.25C20.75 18.8358 20.4142 18.5 20 18.5C19.5858 18.5 19.25 18.8358 19.25 19.25Z" fill="#0B2866"/>
</svg>
