<svg width="40" height="40" viewBox="0 0 40 40" fill="none" xmlns="http://www.w3.org/2000/svg">
<rect width="40" height="40" rx="5" fill="#D7E3FC"/>
<path d="M11 24.5H29V26.75C29 26.9489 28.9209 27.1397 28.7803 27.2803C28.6396 27.421 28.4489 27.5 28.25 27.5H11.75C11.5511 27.5 11.3604 27.421 11.2197 27.2803C11.0791 27.1397 11 26.9489 11 26.75V24.5Z" fill="#AFC6F8"/>
<path d="M29 15.5H11V13.25C11 13.0511 11.0791 12.8603 11.2197 12.7197C11.3604 12.579 11.5511 12.5 11.75 12.5H28.25C28.4489 12.5 28.6396 12.579 28.7803 12.7197C28.9209 12.8603 29 13.0511 29 13.25V15.5Z" fill="#AFC6F8"/>
<path fill-rule="evenodd" clip-rule="evenodd" d="M10.25 13.25C10.25 13.25 10.25 12.6287 10.6893 12.1893C10.6893 12.1893 11.1287 11.75 11.75 11.75H28.25C28.25 11.75 28.8713 11.75 29.3107 12.1893C29.3107 12.1893 29.75 12.6287 29.75 13.25V26.75C29.75 26.75 29.75 27.3713 29.3107 27.8107C29.3107 27.8107 28.8713 28.25 28.25 28.25H11.75C11.75 28.25 11.1287 28.25 10.6893 27.8107C10.6893 27.8107 10.25 27.3713 10.25 26.75V13.25ZM11.75 13.25V26.75H28.25V13.25H11.75Z" fill="#0B2866"/>
<path d="M19.25 12.5V27.5C19.25 27.9142 19.5858 28.25 20 28.25C20.4142 28.25 20.75 27.9142 20.75 27.5V12.5C20.75 12.0858 20.4142 11.75 20 11.75C19.5858 11.75 19.25 12.0858 19.25 12.5Z" fill="#0B2866"/>
<path d="M11 16.25H29C29.4142 16.25 29.75 15.9142 29.75 15.5C29.75 15.0858 29.4142 14.75 29 14.75H11C10.5858 14.75 10.25 15.0858 10.25 15.5C10.25 15.9142 10.5858 16.25 11 16.25Z" fill="#0B2866"/>
<path d="M11 25.25H29C29.4142 25.25 29.75 24.9142 29.75 24.5C29.75 24.0858 29.4142 23.75 29 23.75H11C10.5858 23.75 10.25 24.0858 10.25 24.5C10.25 24.9142 10.5858 25.25 11 25.25Z" fill="#0B2866"/>
<path d="M14.75 12.5V15.5C14.75 15.9142 15.0858 16.25 15.5 16.25C15.9142 16.25 16.25 15.9142 16.25 15.5V12.5C16.25 12.0858 15.9142 11.75 15.5 11.75C15.0858 11.75 14.75 12.0858 14.75 12.5Z" fill="#0B2866"/>
<path d="M23.75 12.5V15.5C23.75 15.9142 24.0858 16.25 24.5 16.25C24.9142 16.25 25.25 15.9142 25.25 15.5V12.5C25.25 12.0858 24.9142 11.75 24.5 11.75C24.0858 11.75 23.75 12.0858 23.75 12.5Z" fill="#0B2866"/>
<path d="M14.75 24.5V27.5C14.75 27.9142 15.0858 28.25 15.5 28.25C15.9142 28.25 16.25 27.9142 16.25 27.5V24.5C16.25 24.0858 15.9142 23.75 15.5 23.75C15.0858 23.75 14.75 24.0858 14.75 24.5Z" fill="#0B2866"/>
<path d="M23.75 24.5V27.5C23.75 27.9142 24.0858 28.25 24.5 28.25C24.9142 28.25 25.25 27.9142 25.25 27.5V24.5C25.25 24.0858 24.9142 23.75 24.5 23.75C24.0858 23.75 23.75 24.0858 23.75 24.5Z" fill="#0B2866"/>
</svg>
