<svg width="40" height="40" viewBox="0 0 40 40" fill="none" xmlns="http://www.w3.org/2000/svg">
<rect width="40" height="40" rx="5" fill="#4AA578"/>
<path d="M19.25 29H21.875C22.2892 29 22.625 28.6642 22.625 28.25C22.625 27.8358 22.2892 27.5 21.875 27.5H20V23.75C20 23.3358 19.6642 23 19.25 23C18.8358 23 18.5 23.3358 18.5 23.75V28.25C18.5 28.6642 18.8358 29 19.25 29Z" fill="#0B2866"/>
<path d="M15.6498 28.6997L15.65 28.7C15.7693 28.8591 15.947 28.9643 16.1439 28.9925C16.1791 28.9975 16.2145 29 16.25 29L16.2526 29C16.414 28.9994 16.5709 28.9468 16.7 28.85C16.8889 28.7084 17 28.4861 17 28.25L16.9999 28.2402C16.9979 28.0813 16.9453 27.9271 16.85 27.8L13.475 23.3C13.3557 23.1409 13.178 23.0357 12.9811 23.0075C12.9459 23.0025 12.9105 23 12.875 23L12.8724 23C12.711 23.0006 12.5541 23.0532 12.425 23.15C12.2659 23.2693 12.1607 23.447 12.1325 23.6439C12.1275 23.6791 12.125 23.7145 12.125 23.75L12.125 23.7526C12.1256 23.914 12.1782 24.0709 12.275 24.2L15.6498 28.6997Z" fill="#0B2866"/>
<path d="M12.275 27.8C12.1776 27.9298 12.125 28.0877 12.125 28.25L12.125 28.2566C12.1253 28.2899 12.1278 28.3231 12.1325 28.3561C12.1607 28.553 12.2659 28.7307 12.425 28.85C12.5548 28.9474 12.7127 29 12.875 29L12.8816 29C12.9149 28.9997 12.9481 28.9972 12.9811 28.9925C13.178 28.9643 13.3557 28.8591 13.475 28.7L16.85 24.2C16.9474 24.0702 17 23.9123 17 23.75L17 23.7434C16.9997 23.7101 16.9972 23.6769 16.9925 23.6439C16.9643 23.447 16.8591 23.2693 16.7 23.15C16.5702 23.0526 16.4123 23 16.25 23L16.2434 23C16.2101 23.0003 16.1769 23.0028 16.1439 23.0075C15.947 23.0357 15.7693 23.1409 15.65 23.3L12.275 27.8Z" fill="#0B2866"/>
<path d="M25.9043 24.4062C26.437 24.4077 26.8641 24.7262 26.8641 24.7262C26.9936 24.8228 27.1509 24.875 27.3125 24.875C27.3228 24.875 27.333 24.8748 27.3433 24.8744C27.5691 24.8651 27.7786 24.7545 27.9137 24.5734C28.0103 24.4439 28.0625 24.2866 28.0625 24.125L28.0625 24.1164C28.0621 24.0831 28.0595 24.0499 28.0547 24.017C28.026 23.8201 27.9204 23.6427 27.7609 23.5238C26.9366 22.909 25.9082 22.9062 25.9082 22.9062C24.9921 22.9062 24.3986 23.4149 24.3986 23.4149C23.75 23.9709 23.75 24.875 23.75 24.875C23.75 25.768 24.5783 26.2495 24.5783 26.2495C24.9391 26.4593 25.7713 26.6801 25.7713 26.6801C26.75 26.9398 26.75 27.125 26.75 27.125C26.75 27.368 26.6152 27.4542 26.6152 27.4542C26.3972 27.5937 25.9062 27.5937 25.9062 27.5937C25.3758 27.5923 24.9489 27.2742 24.9489 27.2742L24.9484 27.2738C24.8189 27.1772 24.6616 27.125 24.5 27.125C24.4897 27.125 24.4795 27.1252 24.4692 27.1256C24.2434 27.1349 24.0339 27.2455 23.8988 27.4266C23.8022 27.5561 23.75 27.7134 23.75 27.875L23.75 27.8836C23.7504 27.9169 23.753 27.9501 23.7578 27.983C23.7865 28.1799 23.8921 28.3573 24.0516 28.4762L24.0521 28.4766C24.8762 29.091 25.9062 29.0937 25.9062 29.0937C26.8362 29.0937 27.4238 28.7176 27.4238 28.7176C28.25 28.1889 28.25 27.125 28.25 27.125C28.25 26.1909 27.4012 25.6857 27.4012 25.6857C27.0223 25.4602 26.1561 25.2303 26.1561 25.2303C25.25 24.9898 25.25 24.875 25.25 24.875C25.25 24.4062 25.9043 24.4062 25.9043 24.4062Z" fill="#0B2866"/>
<path d="M22.25 11V16.25H27.5L22.25 11Z" fill="#1D7C4D"/>
<path d="M26.75 16.5607V20C26.75 20.4142 27.0858 20.75 27.5 20.75C27.9142 20.75 28.25 20.4142 28.25 20V16.25C28.25 16.0511 28.171 15.8603 28.0303 15.7197L22.7803 10.4697C22.6397 10.329 22.4489 10.25 22.25 10.25L13.25 10.25C12.6287 10.25 12.1893 10.6893 12.1893 10.6893C11.75 11.1287 11.75 11.75 11.75 11.75V20C11.75 20.4142 12.0858 20.75 12.5 20.75C12.9142 20.75 13.25 20.4142 13.25 20V11.75H21.9393L26.75 16.5607Z" fill="#0B2866"/>
<path d="M22.25 17H27.5C27.9142 17 28.25 16.6642 28.25 16.25C28.25 15.8358 27.9142 15.5 27.5 15.5H23V11C23 10.5858 22.6642 10.25 22.25 10.25C21.8358 10.25 21.5 10.5858 21.5 11V16.25C21.5 16.6642 21.8358 17 22.25 17Z" fill="#0B2866"/>
</svg>
