<svg width="40" height="40" viewBox="0 0 40 40" fill="none" xmlns="http://www.w3.org/2000/svg">
<rect width="40" height="40" rx="5" fill="#C6CED6"/>
<path d="M22.25 11V16.25H27.5L22.25 11Z" fill="#B3BDC9"/>
<path d="M26.75 16.5607V20C26.75 20.4142 27.0858 20.75 27.5 20.75C27.9142 20.75 28.25 20.4142 28.25 20V16.25C28.25 16.0511 28.171 15.8603 28.0303 15.7197L22.7803 10.4697C22.6397 10.329 22.4489 10.25 22.25 10.25L13.25 10.25C12.6287 10.25 12.1893 10.6893 12.1893 10.6893C11.75 11.1287 11.75 11.75 11.75 11.75V20C11.75 20.4142 12.0858 20.75 12.5 20.75C12.9142 20.75 13.25 20.4142 13.25 20V11.75H21.9393L26.75 16.5607Z" fill="#0B2866"/>
<path d="M22.25 17H27.5C27.9142 17 28.25 16.6642 28.25 16.25C28.25 15.8358 27.9142 15.5 27.5 15.5H23V11C23 10.5858 22.6642 10.25 22.25 10.25C21.8358 10.25 21.5 10.5858 21.5 11V16.25C21.5 16.6642 21.8358 17 22.25 17Z" fill="#0B2866"/>
<path fill-rule="evenodd" clip-rule="evenodd" d="M23 28.25V23.75C23 23.3358 23.3358 23 23.75 23H25.25C25.25 23 26.182 23 26.841 23.659C26.841 23.659 27.5 24.318 27.5 25.25C27.5 25.25 27.5 26.182 26.841 26.841C26.841 26.841 26.182 27.5 25.25 27.5H24.5V28.25C24.5 28.6642 24.1642 29 23.75 29C23.3358 29 23 28.6642 23 28.25ZM25.25 26H24.5V24.5H25.25C25.25 24.5 25.5607 24.5 25.7803 24.7197C25.7803 24.7197 26 24.9393 26 25.25C26 25.25 26 25.5607 25.7803 25.7803C25.7803 25.7803 25.5607 26 25.25 26Z" fill="#0B2866"/>
<path d="M19.25 23.75V28.25C19.25 28.6642 19.5858 29 20 29C20.4142 29 20.75 28.6642 20.75 28.25V23.75C20.75 23.3358 20.4142 23 20 23C19.5858 23 19.25 23.3358 19.25 23.75Z" fill="#0B2866"/>
<path d="M13.25 29H16.25C16.6642 29 17 28.6642 17 28.25C17 27.8358 16.6642 27.5 16.25 27.5H14.6514L16.874 24.166C17.1038 23.8214 17.0107 23.3557 16.666 23.126C16.5428 23.0438 16.3981 23 16.25 23L13.25 23C12.8358 23 12.5 23.3358 12.5 23.75C12.5 24.1642 12.8358 24.5 13.25 24.5H14.8486L12.626 27.834C12.5438 27.9572 12.5 28.1019 12.5 28.25C12.5 28.6642 12.8358 29 13.25 29Z" fill="#0B2866"/>
</svg>
