<svg width="115" height="40" viewBox="0 0 115 40" fill="none" xmlns="http://www.w3.org/2000/svg">
<g clip-path="url(#clip0_2601_13752)">
<path d="M54.802 0.19043H47.7638V18.1281H54.802C60.6071 18.1281 64.3548 14.6179 64.3548 9.20387C64.3548 3.78986 60.6071 0.19043 54.802 0.19043ZM51.6619 3.49238H54.6697C58.279 3.49238 60.3725 5.56874 60.3725 9.18602C60.3725 12.8033 58.2911 14.8023 54.6697 14.8023H51.6619V3.49238Z" fill="#0B2866"/>
<path d="M76.3197 3.50405C77.1774 3.45776 78.0294 3.66576 78.7668 4.1014C79.5041 4.53703 80.0932 5.18047 80.4585 5.94928L80.5006 6.03852H84.9401L84.8679 5.82434C83.6648 2.25467 80.4103 0.0117188 76.3438 0.0117188C71.02 0.0117188 67.152 3.87292 67.152 9.18579C67.152 14.4987 71.02 18.3242 76.3438 18.3242C80.4825 18.3242 83.6648 16.1526 84.8679 12.5115L84.9341 12.3033H80.5006L80.4585 12.3925C80.0963 13.1646 79.5083 13.8114 78.7705 14.2495C78.0327 14.6875 77.179 14.8966 76.3197 14.8497C73.2277 14.8497 71.1523 12.571 71.1523 9.18579C71.1523 5.80054 73.2277 3.50405 76.3197 3.50405Z" fill="#0B2866"/>
<path d="M104.852 0.19043L98.7578 8.49588L92.634 0.255874L92.5859 0.19043H88.9224V18.1281H92.7783V6.40167L97.1457 12.2083L97.1938 12.2678H100.274L104.635 6.22319V18.1281H108.491V0.19043H104.852Z" fill="#0B2866"/>
<path d="M17.2647 0H1.32945C0.595213 0 0 0.58867 0 1.31483V17.075C0 17.8011 0.595213 18.3898 1.32945 18.3898H17.2647C17.999 18.3898 18.5942 17.8011 18.5942 17.075V1.31483C18.5942 0.58867 17.999 0 17.2647 0Z" fill="#105DFB"/>
<path d="M17.2647 21.1445H1.32945C0.595213 21.1445 0 21.7332 0 22.4594V38.2195C0 38.9457 0.595213 39.5343 1.32945 39.5343H17.2647C17.999 39.5343 18.5942 38.9457 18.5942 38.2195V22.4594C18.5942 21.7332 17.999 21.1445 17.2647 21.1445Z" fill="#1650CF"/>
<path d="M38.6441 21.1445H22.7088C21.9746 21.1445 21.3794 21.7332 21.3794 22.4594V38.2195C21.3794 38.9457 21.9746 39.5343 22.7088 39.5343H38.6441C39.3784 39.5343 39.9736 38.9457 39.9736 38.2195V22.4594C39.9736 21.7332 39.3784 21.1445 38.6441 21.1445Z" fill="#105DFB"/>
<path d="M38.6441 0H22.7088C21.9746 0 21.3794 0.58867 21.3794 1.31483V17.075C21.3794 17.8011 21.9746 18.3898 22.7088 18.3898H38.6441C39.3784 18.3898 39.9736 17.8011 39.9736 17.075V1.31483C39.9736 0.58867 39.3784 0 38.6441 0Z" fill="#1650CF"/>
<g opacity="0.9">
<path d="M10.7619 29.3074L7.68194 34.8225L6.22015 32.3654C6.15272 32.2519 6.05646 32.1578 5.94092 32.0924C5.82538 32.027 5.69457 31.9926 5.56145 31.9926C5.42832 31.9926 5.29751 32.027 5.18197 32.0924C5.06643 32.1578 4.97017 32.2519 4.90274 32.3654L3.00783 35.5365C2.93829 35.6507 2.9008 35.7811 2.89922 35.9144C2.89764 36.0477 2.93202 36.179 2.99882 36.2948C3.06563 36.4105 3.16244 36.5066 3.27927 36.5731C3.39611 36.6395 3.52875 36.674 3.66353 36.6728H14.9127C15.0458 36.6742 15.177 36.6409 15.2929 36.5762C15.4089 36.5115 15.5056 36.4177 15.5733 36.3044C15.641 36.191 15.6773 36.062 15.6785 35.9303C15.6798 35.7986 15.6459 35.669 15.5804 35.5543L12.0974 29.3074C12.0312 29.1897 11.9344 29.0916 11.817 29.0233C11.6996 28.955 11.5659 28.9189 11.4297 28.9189C11.2934 28.9189 11.1597 28.955 11.0423 29.0233C10.9249 29.0916 10.8281 29.1897 10.7619 29.3074Z" fill="white"/>
<path d="M5.56447 28.9562C6.611 28.9562 7.45938 28.1171 7.45938 27.0821C7.45938 26.0471 6.611 25.208 5.56447 25.208C4.51794 25.208 3.66956 26.0471 3.66956 27.0821C3.66956 28.1171 4.51794 28.9562 5.56447 28.9562Z" fill="white"/>
</g>
<path opacity="0.9" d="M7.73607 12.3152L11.7545 9.93544C11.8854 9.85849 11.9938 9.7492 12.0691 9.6183C12.1444 9.4874 12.184 9.33938 12.184 9.18878C12.184 9.03818 12.1444 8.89017 12.0691 8.75927C11.9938 8.62837 11.8854 8.51908 11.7545 8.44213L7.73607 6.06234C7.60246 5.98322 7.44998 5.94066 7.29426 5.93901C7.13854 5.93737 6.98518 5.97671 6.84989 6.05299C6.7146 6.12928 6.60226 6.23976 6.52437 6.37313C6.44648 6.5065 6.40584 6.65796 6.40663 6.81197V11.5715C6.40874 11.7243 6.45129 11.8739 6.53004 12.0054C6.6088 12.1368 6.721 12.2456 6.85549 12.3208C6.98997 12.3961 7.14203 12.4351 7.29654 12.4342C7.45104 12.4332 7.60258 12.3922 7.73607 12.3152Z" fill="white"/>
<g opacity="0.9">
<path d="M34.0783 26.9512H27.2686C26.7869 26.9512 26.3964 27.3374 26.3964 27.8138V28.0221C26.3964 28.4985 26.7869 28.8847 27.2686 28.8847H34.0783C34.56 28.8847 34.9505 28.4985 34.9505 28.0221V27.8138C34.9505 27.3374 34.56 26.9512 34.0783 26.9512Z" fill="white"/>
<path d="M34.0783 31.7881H27.2686C26.7869 31.7881 26.3964 32.1743 26.3964 32.6508V32.859C26.3964 33.3354 26.7869 33.7217 27.2686 33.7217H34.0783C34.56 33.7217 34.9505 33.3354 34.9505 32.859V32.6508C34.9505 32.1743 34.56 31.7881 34.0783 31.7881Z" fill="white"/>
</g>
<g opacity="0.9">
<path d="M27.01 7.22276L33.8257 5.1345C33.977 5.0911 34.1373 5.08932 34.2896 5.12935C34.4418 5.16939 34.5801 5.24971 34.6896 5.36169C34.7991 5.47367 34.8757 5.61307 34.9111 5.76487C34.9465 5.91668 34.9393 6.07516 34.8904 6.22325L32.7248 12.7082C32.6683 12.8755 32.5608 13.0215 32.4172 13.1263C32.2736 13.231 32.1008 13.2893 31.9224 13.2932C31.744 13.2971 31.5688 13.2464 31.4206 13.1481C31.2724 13.0498 31.1586 12.9086 31.0946 12.7439L30.0178 9.97736C29.9992 9.93315 29.9714 9.89332 29.9362 9.86051C29.9009 9.82769 29.859 9.80263 29.8133 9.78698L26.992 8.85291C26.8184 8.79528 26.6677 8.68472 26.5616 8.53711C26.4555 8.3895 26.3994 8.21244 26.4014 8.03134C26.4034 7.85025 26.4634 7.67444 26.5727 7.52916C26.6821 7.38389 26.8352 7.27662 27.01 7.22276Z" fill="white"/>
</g>
<path d="M51.8905 28.2241C51.8905 29.6937 50.8799 30.6039 49.3399 30.6039H47.7638V25.8443H49.3278C50.8799 25.8325 51.8905 26.7725 51.8905 28.2241ZM49.3278 29.9495C49.5632 29.9749 49.8014 29.9478 50.0247 29.87C50.248 29.7923 50.4509 29.666 50.6183 29.5004C50.7858 29.3349 50.9135 29.1342 50.992 28.9133C51.0706 28.6924 51.0981 28.4569 51.0724 28.2241C51.0984 27.99 51.0714 27.753 50.9933 27.5304C50.9153 27.3078 50.7882 27.1052 50.6212 26.9372C50.4542 26.7692 50.2515 26.64 50.0278 26.5591C49.8041 26.4781 49.565 26.4473 49.3278 26.469H48.5458V29.9495H49.3278Z" fill="#0B2866"/>
<path d="M53.4004 25.8325H54.1884V30.5921H53.4004V25.8325Z" fill="#0B2866"/>
<path d="M60.3784 27.2011H59.4279C59.3065 26.9711 59.1203 26.7807 58.8919 26.6529C58.6635 26.5252 58.4026 26.4656 58.1406 26.4812C57.6964 26.5071 57.279 26.6998 56.9738 27.0199C56.6685 27.3401 56.4985 27.7635 56.4985 28.2036C56.4985 28.6437 56.6685 29.0671 56.9738 29.3873C57.279 29.7074 57.6964 29.9001 58.1406 29.926C58.5207 29.9475 58.8942 29.8215 59.1818 29.5748C59.4694 29.3282 59.6483 28.9803 59.6806 28.6052H57.8759V27.9627H60.5288V28.5576C60.4532 29.1315 60.1656 29.6575 59.7214 30.0343C59.2771 30.411 58.7076 30.6119 58.1226 30.5983C57.4919 30.5674 56.8973 30.2979 56.462 29.8455C56.0266 29.3931 55.7838 28.7924 55.7838 28.1679C55.7838 27.5434 56.0266 26.9427 56.462 26.4903C56.8973 26.038 57.4919 25.7684 58.1226 25.7376C58.6068 25.7142 59.086 25.8433 59.4913 26.1063C59.8966 26.3693 60.2072 26.7526 60.3784 27.2011Z" fill="#0B2866"/>
<path d="M62.0327 25.8325H62.8208V30.5921H62.0327V25.8325Z" fill="#0B2866"/>
<path d="M64.1622 25.8325H67.5189V26.4691H66.2376V30.5861H65.4496V26.4691H64.1622V25.8325Z" fill="#0B2866"/>
<path d="M71.2727 29.6165H69.2575L68.9086 30.5862H68.0905L69.8109 25.8267H70.7253L72.4457 30.5862H71.6156L71.2727 29.6165ZM70.2681 26.7726L69.4801 28.9858H71.0501L70.2681 26.7726Z" fill="#0B2866"/>
<path d="M74.5933 25.8326V29.9556H76.2175V30.5862H73.8113V25.8267L74.5933 25.8326Z" fill="#0B2866"/>
<path d="M82.2271 25.7671C82.7039 25.7458 83.1755 25.8726 83.5757 26.1297C83.9759 26.3869 84.2848 26.7614 84.4589 27.201H83.5144C83.3979 26.9649 83.2137 26.7679 82.9848 26.6346C82.7559 26.5013 82.4924 26.4375 82.2271 26.4513C82.0013 26.4504 81.7778 26.4961 81.571 26.5857C81.3642 26.6753 81.1786 26.8066 81.0262 26.9714C80.8738 27.1361 80.7579 27.3306 80.6861 27.5423C80.6142 27.7539 80.5879 27.9781 80.6089 28.2005C80.5886 28.4251 80.6163 28.6515 80.6903 28.8648C80.7644 29.0782 80.883 29.2737 81.0385 29.4387C81.1939 29.6037 81.3828 29.7345 81.5928 29.8225C81.8028 29.9105 82.0291 29.9538 82.2572 29.9496C82.5219 29.9647 82.7853 29.9022 83.0143 29.7699C83.2433 29.6376 83.4277 29.4414 83.5445 29.2059H84.4889C84.3129 29.6432 84.0032 30.0152 83.6032 30.2701C83.2031 30.525 82.7325 30.6501 82.2572 30.6278C81.9242 30.6441 81.5914 30.5934 81.2789 30.4786C80.9665 30.3638 80.6808 30.1874 80.4393 29.9601C80.1979 29.7328 80.0056 29.4594 79.8743 29.1564C79.7429 28.8534 79.6752 28.5272 79.6752 28.1975C79.6752 27.8678 79.7429 27.5416 79.8743 27.2386C80.0056 26.9356 80.1979 26.6621 80.4393 26.4349C80.6808 26.2076 80.9665 26.0312 81.2789 25.9164C81.5914 25.8016 81.9242 25.7508 82.2572 25.7671H82.2271Z" fill="#0B2866"/>
<path d="M88.1283 30.6338C87.6417 30.6338 87.166 30.491 86.7614 30.2237C86.3568 29.9563 86.0415 29.5762 85.8553 29.1316C85.669 28.687 85.6203 28.1977 85.7152 27.7257C85.8102 27.2537 86.0445 26.8201 86.3886 26.4798C86.7327 26.1395 87.1711 25.9077 87.6484 25.8138C88.1256 25.72 88.6203 25.7681 89.0699 25.9523C89.5195 26.1365 89.9037 26.4484 90.1741 26.8485C90.4444 27.2487 90.5887 27.7192 90.5887 28.2004C90.5961 28.522 90.5375 28.8417 90.4165 29.1402C90.2955 29.4387 90.1145 29.7099 89.8846 29.9373C89.6546 30.1648 89.3804 30.3437 89.0786 30.4634C88.7767 30.5831 88.4535 30.6411 88.1283 30.6338ZM88.1283 29.9555C88.3594 29.9594 88.5887 29.9146 88.801 29.8241C89.0132 29.7336 89.2036 29.5995 89.3595 29.4308C89.5154 29.262 89.6332 29.0623 89.7051 28.8451C89.777 28.6278 89.8014 28.3979 89.7766 28.1707C89.7961 27.9449 89.768 27.7176 89.6941 27.5031C89.6201 27.2886 89.5019 27.0917 89.3469 26.9248C89.192 26.7578 89.0036 26.6246 88.7939 26.5334C88.5841 26.4422 88.3575 26.3952 88.1283 26.3952C87.8992 26.3952 87.6726 26.4422 87.4628 26.5334C87.2531 26.6246 87.0647 26.7578 86.9098 26.9248C86.7548 27.0917 86.6366 27.2886 86.5626 27.5031C86.4887 27.7176 86.4606 27.9449 86.4801 28.1707C86.4553 28.3979 86.4797 28.6278 86.5516 28.8451C86.6235 29.0623 86.7413 29.262 86.8972 29.4308C87.0531 29.5995 87.2434 29.7336 87.4557 29.8241C87.668 29.9146 87.8972 29.9594 88.1283 29.9555Z" fill="#0B2866"/>
<path d="M96.0388 25.8208V30.5804H95.2508L92.8446 27.0107V30.5804H92.0565V25.8208H92.8446L95.2508 29.3905V25.8208H96.0388Z" fill="#0B2866"/>
<path d="M97.3863 25.8325H100.743V26.4691H99.4617V30.5861H98.6556V26.4691H97.3683L97.3863 25.8325Z" fill="#0B2866"/>
<path d="M104.755 26.4573H102.867V27.8554H104.527V28.492H102.867V29.9496H104.737V30.5862H102.078V25.8267H104.737L104.755 26.4573Z" fill="#0B2866"/>
<path d="M110.296 25.8208V30.5804H109.484L107.107 27.0107V30.5804H106.319V25.8208H107.107L109.484 29.3905V25.8208H110.296Z" fill="#0B2866"/>
<path d="M111.643 25.8325H115V26.4691H113.695V30.5861H112.907V26.4691H111.619L111.643 25.8325Z" fill="#0B2866"/>
<path d="M57.0759 38.5408H55.0667L54.7419 39.5105H53.8937L55.6202 34.751H56.5466L58.273 39.5105H57.4248L57.0759 38.5408ZM56.0773 35.6969L55.2833 37.9042H56.8533L56.0773 35.6969Z" fill="#0B2866"/>
<path d="M63.5366 34.7446V39.5042H62.7485L60.3423 35.9345V39.5042H59.5844V34.7446H60.3724L62.7786 38.3143V34.7446H63.5366Z" fill="#0B2866"/>
<path d="M68.0543 38.5408H66.0391L65.6962 39.5105H64.8721L66.5925 34.751H67.5069L69.2274 39.5105H68.3972L68.0543 38.5408ZM67.0497 35.6969L66.2617 37.9101H67.8317L67.0497 35.6969Z" fill="#0B2866"/>
<path d="M74.828 36.1252H73.8835C73.7609 35.8961 73.5745 35.7066 73.3463 35.579C73.1182 35.4514 72.8579 35.3912 72.5962 35.4053C72.152 35.4312 71.7346 35.6239 71.4293 35.9441C71.1241 36.2642 70.954 36.6877 70.954 37.1277C70.954 37.5678 71.1241 37.9912 71.4293 38.3114C71.7346 38.6315 72.152 38.8243 72.5962 38.8501C72.9756 38.8715 73.3484 38.7454 73.635 38.4986C73.9217 38.2518 74.0994 37.9039 74.1301 37.5293H72.3255V36.8868H74.9783V37.4817C74.8953 38.0524 74.6056 38.5739 74.163 38.9493C73.7204 39.3246 73.1551 39.5283 72.5721 39.5224C72.2392 39.5387 71.9064 39.4879 71.5939 39.3731C71.2814 39.2583 70.9957 39.0819 70.7543 38.8547C70.5128 38.6274 70.3206 38.3539 70.1892 38.0509C70.0578 37.7479 69.9901 37.4217 69.9901 37.092C69.9901 36.7623 70.0578 36.4361 70.1892 36.1331C70.3206 35.8301 70.5128 35.5567 70.7543 35.3294C70.9957 35.1021 71.2814 34.9257 71.5939 34.8109C71.9064 34.6962 72.2392 34.6454 72.5721 34.6617C73.0565 34.6374 73.5361 34.7661 73.9416 35.0292C74.3471 35.2923 74.6576 35.6762 74.828 36.1252Z" fill="#0B2866"/>
<path d="M79.1351 35.3816H77.2642V36.7797H78.9245V37.4163H77.2642V38.874H79.1351V39.5105H76.4762V34.751H79.1351V35.3816Z" fill="#0B2866"/>
<path d="M89.939 35.3816H88.0682V36.7797H89.7285V37.4163H88.0682V38.874H89.939V39.5105H87.2802V34.751H89.939V35.3816Z" fill="#0B2866"/>
<path d="M95.4795 34.7446V39.5042H94.6914L92.3153 35.9345V39.5042H91.5272V34.7446H92.3153L94.6914 38.3143V34.7446H95.4795Z" fill="#0B2866"/>
<path d="M96.851 34.7568H100.208V35.3934H98.9263V39.5105H98.1383V35.3934H96.851V34.7568Z" fill="#0B2866"/>
<path d="M50.152 36.9522L48.5338 34.7568H47.7638V39.5105H48.5579V36.0181L49.8753 37.8089H50.4588L51.7702 36.0181V39.5105H52.5582V34.7568H51.7822L50.164 36.97L50.152 36.9522Z" fill="#0B2866"/>
<path d="M83.1113 36.9522L81.4871 34.7568H80.7231V39.5105H81.5112V36.0181L82.8286 37.8089H83.4121L84.7235 36.0181V39.5105H85.5115V34.7568H84.7416L83.1234 36.97L83.1113 36.9522Z" fill="#0B2866"/>
</g>
<defs>
<clipPath id="clip0_2601_13752">
<rect width="115" height="39.552" fill="white"/>
</clipPath>
</defs>
</svg>
