<svg width="40" height="40" viewBox="0 0 40 40" fill="none" xmlns="http://www.w3.org/2000/svg">
<rect width="40" height="40" rx="5" fill="#D7E3FC"/>
<path d="M22.25 23H26C26.9946 23 27.9484 22.6049 28.6516 21.9016C29.3549 21.1984 29.75 20.2446 29.75 19.25C29.75 18.2554 29.3549 17.3016 28.6516 16.5984C27.9484 15.8951 26.9946 15.5 26 15.5H22.25V23Z" fill="#AFC6F8"/>
<path d="M26.7277 23.1817L26.7278 23.1813C26.7425 23.122 26.75 23.0611 26.75 23C26.75 22.9877 26.7497 22.9754 26.7491 22.9631C26.743 22.8396 26.7065 22.7195 26.6428 22.6136C26.5403 22.4431 26.3743 22.3203 26.1813 22.2722C26.122 22.2575 26.0611 22.25 26 22.25C25.9913 22.25 25.9827 22.2502 25.974 22.2505C25.6395 22.2621 25.3531 22.4939 25.2722 22.8187L25.2721 22.8192L24.0352 27.7856L23.0022 27.1001C23.0008 27.0992 23 27.0987 23 27.0987L23 15.5C23 15.0858 22.6642 14.75 22.25 14.75C21.8358 14.75 21.5 15.0858 21.5 15.5L21.5 27.09C21.4965 27.4724 21.6775 27.8092 21.6775 27.8092C21.8585 28.1461 22.1728 28.3499 22.1728 28.3499L23.2023 29.0331C23.5064 29.2362 23.8698 29.2765 23.8698 29.2765C24.2332 29.3168 24.5744 29.1853 24.5744 29.1853C24.9156 29.0539 25.1581 28.7802 25.1581 28.7802C25.4005 28.5065 25.4903 28.15 25.4903 28.15L26.7277 23.1817Z" fill="#0B2866"/>
<path fill-rule="evenodd" clip-rule="evenodd" d="M22.25 23.75C22.25 23.75 21.9739 23.75 21.4611 23.8093C21.4611 23.8093 20.4057 23.9315 19.2781 24.2382C19.2781 24.2382 15.654 25.2239 12.7063 27.6934C12.7063 27.6934 12.3717 27.9703 11.9411 28.0256C11.9411 28.0256 11.5104 28.0809 11.1168 27.8976C11.1168 27.8976 10.7232 27.7143 10.4883 27.3491C10.4883 27.3491 10.2535 26.9839 10.25 26.5437L10.25 11.9503C10.25 11.9503 10.2535 11.5161 10.4883 11.1509C10.4883 11.1509 10.7232 10.7857 11.1168 10.6024C11.1168 10.6024 11.5104 10.4191 11.9411 10.4744C11.9411 10.4744 12.3717 10.5297 12.7098 10.8095C12.7098 10.8095 15.654 13.2761 19.2781 14.2618C19.2781 14.2618 20.4057 14.5685 21.4611 14.6907C21.4611 14.6907 21.9739 14.75 22.25 14.75H26C26 14.75 27.864 14.75 29.182 16.068C29.182 16.068 30.5 17.386 30.5 19.25C30.5 19.25 30.5 21.114 29.182 22.432C29.182 22.432 27.864 23.75 26 23.75H22.25ZM22.25 22.25H26C26 22.25 27.2426 22.25 28.1213 21.3713C28.1213 21.3713 29 20.4926 29 19.25C29 19.25 29 18.0074 28.1213 17.1287C28.1213 17.1287 27.2426 16.25 26 16.25H22.25C22.25 16.25 20.8725 16.25 18.8844 15.7093C18.8844 15.7093 14.945 14.6378 11.75 11.9622L11.75 26.5378C11.75 26.5378 14.9429 23.8628 18.8844 22.7907C18.8844 22.7907 20.8725 22.25 22.25 22.25Z" fill="#0B2866"/>
</svg>
