<svg width="40" height="40" viewBox="0 0 40 40" fill="none" xmlns="http://www.w3.org/2000/svg">
<rect width="40" height="40" rx="5" fill="#D7E3FC"/>
<path d="M22.6156 12.125C22.6156 13.5748 21.4405 14.75 19.9906 14.75C18.5408 14.75 17.3656 13.5748 17.3656 12.125C17.3656 10.6752 18.5408 9.5 19.9906 9.5C21.4405 9.5 22.6156 10.6752 22.6156 12.125Z" fill="#AFC6F8"/>
<path d="M22.4282 20.6281L25.6906 23.1593C25.9062 23.3389 26.1813 23.4314 26.4616 23.4186C26.7419 23.4058 27.0074 23.2886 27.2059 23.0903C27.4042 22.8918 27.5214 22.6263 27.5342 22.3459C27.5471 22.0656 27.4546 21.7908 27.275 21.5751L23.5625 16.8032C23.3895 16.6283 23.1837 16.4895 22.9568 16.3947C22.7299 16.2996 22.4866 16.2505 22.2407 16.25H17.7407C17.2415 16.2527 16.7634 16.4512 16.4093 16.8032L12.6968 21.5751C12.5037 21.7895 12.4002 22.0702 12.4081 22.3589C12.4161 22.6477 12.5348 22.9222 12.7395 23.1258C12.9444 23.3294 13.2196 23.4464 13.5084 23.4528C13.7971 23.459 14.0773 23.3539 14.2906 23.1593L17.5532 20.6281L14.9468 28.8407C14.884 28.9747 14.8483 29.1201 14.8417 29.2681C14.835 29.416 14.8577 29.564 14.908 29.7033C14.9586 29.8425 15.036 29.9705 15.136 30.08C15.236 30.1893 15.3564 30.2779 15.4907 30.3407C15.6249 30.4035 15.7701 30.4392 15.918 30.4458C16.0662 30.4524 16.2139 30.4299 16.3533 30.3793C16.4926 30.329 16.6204 30.2515 16.7299 30.1516C16.8392 30.0516 16.9279 29.9311 16.9907 29.7969L19.9907 25.0718L22.9907 29.7969C23.0493 29.937 23.1355 30.0637 23.2444 30.1695C23.3534 30.2753 23.4825 30.3579 23.6242 30.4125C23.7659 30.467 23.9172 30.4923 24.0688 30.4868C24.2206 30.4815 24.3696 30.4454 24.507 30.3808C24.6445 30.3162 24.7673 30.2244 24.8684 30.1111C24.9693 29.9977 25.0464 29.8652 25.0947 29.7213C25.1431 29.5773 25.1619 29.4252 25.1498 29.2737C25.1379 29.1225 25.0955 28.9751 25.025 28.8407L22.4282 20.6281Z" fill="#AFC6F8"/>
<path fill-rule="evenodd" clip-rule="evenodd" d="M19.9906 8.75C19.9906 8.75 21.3886 8.75 22.3771 9.73851C22.3771 9.73851 23.3656 10.727 23.3656 12.125C23.3656 12.125 23.3656 13.523 22.3771 14.5115C22.3771 14.5115 21.3886 15.5 19.9906 15.5C19.9906 15.5 18.5927 15.5 17.6041 14.5115C17.6041 14.5115 16.6156 13.523 16.6156 12.125C16.6156 12.125 16.6156 10.727 17.6041 9.73851C17.6041 9.73851 18.5927 8.75 19.9906 8.75ZM19.9906 10.25C19.9906 10.25 19.214 10.25 18.6648 10.7992C18.6648 10.7992 18.1156 11.3483 18.1156 12.125C18.1156 12.125 18.1156 12.9017 18.6648 13.4508C18.6648 13.4508 19.214 14 19.9906 14C19.9906 14 20.7673 14 21.3164 13.4508C21.3164 13.4508 21.8656 12.9017 21.8656 12.125C21.8656 12.125 21.8656 11.3483 21.3164 10.7992C21.3164 10.7992 20.7673 10.25 19.9906 10.25Z" fill="#0B2866"/>
<path fill-rule="evenodd" clip-rule="evenodd" d="M23.868 22.6947L25.7223 28.5591C25.7223 28.5591 25.87 28.8695 25.8974 29.2146C25.8974 29.2146 25.9276 29.5969 25.8054 29.9603C25.8054 29.9603 25.6831 30.3238 25.428 30.6101C25.428 30.6101 25.1729 30.8964 24.8258 31.0595C24.8258 31.0595 24.4788 31.2227 24.0955 31.2364C24.0955 31.2364 23.7123 31.2502 23.3545 31.1124C23.3545 31.1124 22.9966 30.9746 22.7216 30.7074C22.7216 30.7074 22.4722 30.4651 22.3273 30.1517L19.9904 26.4711L17.6462 30.1632C17.6462 30.1632 17.4914 30.4713 17.2356 30.7052C17.2356 30.7052 16.9598 30.9572 16.6086 31.0845C16.6086 31.0845 16.2574 31.2118 15.8842 31.1951C15.8842 31.1951 15.5109 31.1783 15.1726 31.0199C15.1726 31.0199 14.8342 30.8616 14.5821 30.5858C14.5821 30.5858 14.3301 30.3101 14.2028 29.9588C14.2028 29.9588 14.0754 29.6076 14.0922 29.2344C14.0922 29.2344 14.1078 28.8886 14.2448 28.5728L16.1094 22.6974L14.7712 23.7356C14.7712 23.7356 14.2251 24.2184 13.4919 24.2026C13.4919 24.2026 12.7423 24.1863 12.2106 23.6577C12.2106 23.6577 11.6788 23.1291 11.6582 22.3796C11.6582 22.3796 11.638 21.6451 12.1195 21.0954L15.8172 16.3426C15.8368 16.3174 15.8579 16.2936 15.8805 16.2711C15.8805 16.2711 16.6507 15.5058 17.7404 15.5H22.242C22.242 15.5 22.7643 15.5011 23.2461 15.7027C23.2461 15.7027 23.7279 15.9043 24.0953 16.2755C24.1162 16.2967 24.1359 16.3191 24.1542 16.3426L27.8599 21.1057C27.8599 21.1057 28.316 21.6608 28.2832 22.3802C28.2832 22.3802 28.25 23.1065 27.7359 23.6205C27.7359 23.6205 27.2219 24.1346 26.4956 24.1678C26.4956 24.1678 25.7765 24.2006 25.2216 23.7449L23.868 22.6947ZM24.3097 29.0667L21.7128 20.8542C21.6528 20.6646 21.6706 20.4589 21.7624 20.2824C21.8541 20.1059 22.0121 19.973 22.2018 19.913C22.4366 19.8388 22.693 19.8846 22.8876 20.0356L26.1501 22.5668C26.1569 22.5721 26.1636 22.5774 26.1702 22.5829C26.1702 22.5829 26.282 22.676 26.4272 22.6693C26.4272 22.6693 26.5725 22.6627 26.6753 22.5599C26.6753 22.5599 26.7781 22.4571 26.7847 22.3118C26.7847 22.3118 26.7914 22.1666 26.6983 22.0548C26.6931 22.0485 26.6879 22.042 26.6828 22.0355L23.0012 17.3034C23.0012 17.3034 22.8544 17.1649 22.667 17.0865C22.667 17.0865 22.4616 17.0005 22.2388 17L17.7404 17C17.7404 17 17.2938 17.0024 16.9685 17.3056L13.2886 22.0355C13.2775 22.0498 13.2659 22.0636 13.2539 22.077C13.2539 22.077 13.1535 22.1884 13.1576 22.3383C13.1576 22.3383 13.1618 22.4882 13.2681 22.5939C13.2681 22.5939 13.3745 22.6997 13.5244 22.7029C13.5244 22.7029 13.6743 22.7061 13.7851 22.6051C13.7998 22.5918 13.815 22.579 13.8306 22.5668L17.0931 20.0356C17.4204 19.7816 17.8915 19.8411 18.1455 20.1684C18.2966 20.3632 18.3424 20.6199 18.2678 20.855L15.6615 29.0675C15.6517 29.0986 15.6398 29.1289 15.626 29.1585C15.626 29.1585 15.5941 29.2266 15.5907 29.3018C15.5907 29.3018 15.5873 29.3769 15.613 29.4476C15.613 29.4476 15.6386 29.5184 15.6894 29.5739C15.6894 29.5739 15.7401 29.6294 15.8082 29.6613C15.8082 29.6613 15.8764 29.6932 15.9515 29.6966C15.9515 29.6966 16.0267 29.6999 16.0974 29.6743C16.0974 29.6743 16.1681 29.6487 16.2237 29.5979C16.2237 29.5979 16.2792 29.5472 16.3111 29.479C16.3247 29.45 16.3401 29.4219 16.3572 29.3949L19.3572 24.6699C19.5793 24.3202 20.0427 24.2167 20.3924 24.4387C20.4855 24.4978 20.5644 24.5768 20.6236 24.6699L23.6236 29.3949C23.6463 29.4306 23.6659 29.4683 23.6823 29.5074C23.6823 29.5074 23.7119 29.5781 23.7669 29.6316C23.7669 29.6316 23.8219 29.685 23.8935 29.7126C23.8935 29.7126 23.965 29.7401 24.0417 29.7374C24.0417 29.7374 24.1183 29.7346 24.1877 29.702C24.1877 29.702 24.2571 29.6694 24.3082 29.6121C24.3082 29.6121 24.3592 29.5549 24.3836 29.4822C24.3836 29.4822 24.4081 29.4095 24.402 29.333C24.402 29.333 24.396 29.2566 24.3604 29.1886C24.3399 29.1496 24.323 29.1088 24.3097 29.0667Z" fill="#0B2866"/>
</svg>
