<svg width="269" height="221" viewBox="0 0 269 221" fill="none" xmlns="http://www.w3.org/2000/svg">
<g opacity="0.7">
<path d="M35.8118 213.481C35.8118 213.481 29.4856 208.086 28.3139 206.964C22.5701 201.46 17.375 195.393 12.9763 188.837C4.62339 176.389 -0.534593 161.713 0.0624415 146.787C0.676254 131.447 8.33773 115.606 18.7691 104.127C23.8823 98.4996 30.3679 93.7905 37.8077 91.4548C46.7702 88.6416 55.702 91.2331 64.1227 94.5427C68.1188 96.1136 72.6818 97.9082 76.5576 96.0807C84.5666 92.3042 77.888 84.37 74.4813 79.8755C61.8478 63.2103 60.2189 37.9048 75.0406 21.8835C81.2214 15.2028 89.7714 10.8341 98.7171 8.40475C122.777 1.87093 147.273 9.80505 165.8 25.0532C186.566 42.1421 202.793 65.0678 211.153 90.1418C216.292 105.554 218.329 122.001 216.304 138.07C215.795 142.104 215.044 146.278 216.283 150.163C218.608 157.457 225.464 156.597 231.78 156.919C242.576 157.472 253.174 162.024 260.151 170.075C268.053 179.194 269.656 190.375 267.768 201.776C267.574 202.951 264.939 213.481 264.939 213.481C264.939 213.481 35.9432 213.481 35.8118 213.481Z" fill="#EBF1FD"/>
</g>
<path d="M84.6167 79.0424C83.7309 79.0424 82.8018 78.8229 81.9286 78.3944C76.0869 75.5274 74.0567 67.1039 75.8891 61.3363C76.9203 58.0903 78.9819 55.2499 81.8923 52.9848C77.892 48.0764 73.1297 43.772 68.768 40.7553C59.0973 34.0649 46.3715 31.941 32.9376 34.7724C32.8879 34.7822 32.8439 34.7521 32.8341 34.7053C32.8236 34.6578 32.8544 34.6116 32.9012 34.6018C46.3848 31.7593 59.1574 33.8943 68.868 40.6113C73.2423 43.6378 78.0179 47.9533 82.03 52.8785C83.9267 51.4272 86.1771 50.2177 88.7302 49.2956C94.5593 47.1906 101.32 46.8417 106.816 48.363C113.138 50.1128 119.27 54.1963 123.638 59.5675C123.668 59.6053 123.662 59.6598 123.625 59.6906C123.588 59.7206 123.533 59.715 123.502 59.678C119.157 54.334 113.058 50.2715 106.769 48.5315C101.306 47.0193 94.5852 47.3668 88.7896 49.4606C86.2554 50.3757 84.0225 51.5754 82.1405 53.0148C85.7695 57.4947 88.761 62.4709 90.2424 67.4324C91.3686 71.2034 90.5262 77.4324 86.0561 78.8313C85.6024 78.9718 85.1166 79.0424 84.6167 79.0424ZM82.002 53.1197C79.1182 55.3631 77.0755 58.1763 76.0555 61.3887C74.2448 67.0885 76.2435 75.4099 82.0055 78.2371C83.3317 78.8879 84.788 79.0439 86.0037 78.6635C90.3675 77.2982 91.1806 71.1852 90.0746 67.4814C88.5988 62.5401 85.6185 57.5835 82.002 53.1197Z" fill="white"/>
<path d="M219.815 109.916L211.155 105.172L189.037 109.916L185.951 115.314C185.951 115.314 190.369 130.435 190.902 130.701C191.435 130.967 209.156 134.965 211.022 134.565C212.887 134.165 222.48 123.242 222.614 122.441C222.746 121.641 219.815 109.916 219.815 109.916Z" fill="#A0704E"/>
<path d="M211.954 107.523C211.954 107.523 198.363 106.324 186.771 115.784L175.712 109.521L174.494 100.727L184.372 94.5703H202.626L216.083 107.123L211.954 107.523Z" fill="#B7835F"/>
<path d="M157.392 97.8594L144.914 116.226C144.914 116.226 158.091 125.141 165.05 111.093L157.392 97.8594Z" fill="#E0A47C"/>
<path d="M144.914 116.232C144.914 116.232 146.393 117.229 148.617 118.03L158.393 99.7643L156.751 98.8086L144.914 116.232Z" fill="#EDAC80"/>
<path d="M165.855 88.8645L197.967 87.2656L200.277 96.5686C200.277 96.5686 192.033 95.4137 178.678 101.866H172.251L165.855 88.8645Z" fill="#C18C68"/>
<path d="M189.172 73.2852L132.412 77.0827C132.412 77.0827 131.686 91.9722 150.343 91.2962C150.343 91.2962 181.978 90.0734 192.37 91.8722L189.172 73.2852Z" fill="#EDAC80"/>
<g opacity="0.8">
<path d="M190.306 79.3799L189.172 73.2852L132.412 77.0827C132.412 77.0827 132.303 79.4128 133.319 82.1861C138.672 81.522 166.84 78.2271 190.306 79.3799Z" fill="#FFC69F"/>
</g>
<g opacity="0.4">
<path d="M150.341 91.2864C150.341 91.2864 181.975 90.0637 192.367 91.8625C183.336 85.3063 134.012 83.7123 133.982 83.7109C135.958 87.584 140.395 91.6465 150.341 91.2864Z" fill="#CE9772"/>
</g>
<path d="M165.306 113.25L154.924 127.732C154.924 127.732 166.846 138.251 173.245 124.771L165.306 113.25Z" fill="#D69D76"/>
<path d="M175.798 127.605L167.018 141.028C167.018 141.028 176.645 150.869 181.971 138.205L175.798 127.605Z" fill="#CE9772"/>
<path d="M156.965 129.213L165.856 114.049L165.306 113.25L154.924 127.732C154.925 127.733 155.703 128.418 156.965 129.213Z" fill="#E0A47C"/>
<path d="M168.493 142.282L175.687 129.839L175.085 128.707L167.023 141.031C167.023 141.031 167.58 141.597 168.493 142.282Z" fill="#D69D76"/>
<path d="M134.44 79.4338C134.335 79.4338 134.248 79.3506 134.244 79.2451C134.241 79.1367 134.325 79.0465 134.433 79.043L140.877 78.8214C142.09 78.7795 143.049 77.7972 143.061 76.5843C143.061 76.4773 143.149 76.3906 143.256 76.3906C143.256 76.3906 143.258 76.3906 143.258 76.3906C143.366 76.392 143.452 76.4801 143.451 76.5878C143.437 78.0104 142.313 79.1633 140.89 79.2122L134.446 79.4338C134.445 79.4338 134.443 79.4338 134.44 79.4338Z" fill="white"/>
<path d="M182.29 158.789C182.288 158.789 182.284 158.789 182.281 158.789C182.228 158.784 182.188 158.737 182.192 158.683C182.673 153.037 178.805 140.582 178.766 140.457C176.375 130.916 155.381 99.1783 155.169 98.8588C155.139 98.8141 155.151 98.7533 155.196 98.7239C155.242 98.6931 155.302 98.7057 155.332 98.7512C155.543 99.0707 176.556 130.837 178.954 140.404C178.992 140.524 182.87 153.015 182.387 158.699C182.383 158.751 182.341 158.789 182.29 158.789Z" fill="white"/>
<path d="M154.68 61.5762L109.426 56.8946C107.777 56.7241 106.303 57.922 106.133 59.57L101.451 104.825C101.281 106.473 102.478 107.947 104.127 108.118L149.381 112.799C151.029 112.97 152.504 111.772 152.674 110.124L157.356 64.869C157.526 63.2209 156.328 61.7467 154.68 61.5762Z" fill="#88AAF5"/>
<mask id="mask0_723_89609" style="mask-type:alpha" maskUnits="userSpaceOnUse" x="101" y="56" width="57" height="57">
<path d="M154.682 61.5762L109.427 56.8946C107.779 56.7241 106.305 57.922 106.135 59.57L101.453 104.825C101.283 106.473 102.48 107.947 104.129 108.118L149.383 112.799C151.031 112.97 152.506 111.772 152.676 110.124L157.358 64.869C157.528 63.2209 156.33 61.7467 154.682 61.5762Z" fill="#608DF1"/>
</mask>
<g mask="url(#mask0_723_89609)">
<path d="M101.148 107.8L102.191 97.7234L120.834 77.1914L132.022 91.8656L138.599 86.5182L153.447 102.696L152.371 113.096L101.148 107.8Z" fill="#1650CF"/>
</g>
<path d="M136.853 73.5195C137.687 72.151 137.254 70.3653 135.886 69.531C134.517 68.6968 132.731 69.13 131.897 70.4986C131.063 71.8671 131.496 73.6528 132.865 74.487C134.233 75.3213 136.019 74.8881 136.853 73.5195Z" fill="#1650CF"/>
<path d="M144.396 82.609C144.396 82.609 155.346 75.9927 164.292 83.2319C165.344 84.0827 166.228 85.1062 167.033 86.1926C170.653 91.0766 184.768 108.224 192.363 117.318C192.363 117.318 199.526 124.18 207.188 119.89C207.188 119.89 213.25 116.785 211.192 109.866C211.192 109.866 209.551 103.062 192.363 91.8694L189.165 73.2823L198.657 72.7936C204.255 72.5056 209.851 73.427 215.031 75.5712C220.268 77.7391 226.273 81.6114 231.736 87.0728C236.332 91.6694 245.06 101.196 249.154 106.751C255.096 114.814 259.219 124.053 258.679 134.054C258.424 138.778 257.781 144.213 256.452 150.029L246.592 208.122H198.395C198.395 208.122 182.364 193.999 182.364 161.727C182.364 151.728 179.981 141.834 175.858 132.725C175.575 132.101 175.281 131.474 174.975 130.843C174.975 130.842 157.587 101.263 144.396 82.609Z" fill="#EDAC80"/>
<g opacity="0.8">
<path d="M258.677 134.054C259.218 124.053 255.094 114.814 249.152 106.751C245.058 101.196 236.33 91.6694 231.734 87.0728C226.272 81.6114 220.266 77.7391 215.029 75.5712C209.85 73.427 204.254 72.5056 198.655 72.7936L189.164 73.2823L190.298 79.3771C201.684 79.9371 211.961 81.5422 217.98 85.0077C217.98 85.0077 230.162 92.1874 245.96 112.055C254.754 123.114 256.604 142.24 254.846 158.467C254.65 160.281 254.39 162.168 254.058 164.127L256.451 150.029C257.779 144.213 258.422 138.779 258.677 134.054Z" fill="#FFC69F"/>
</g>
<path d="M257.21 213.391H181.967V206.769C181.967 204.62 183.708 202.879 185.857 202.879H253.319C255.468 202.879 257.209 204.62 257.209 206.769V213.391H257.21Z" fill="#0B2866"/>
<g opacity="0.57">
<g opacity="0.8">
<path d="M188.223 117.342C190.282 119.277 192.737 120.742 195.456 121.517C198.596 122.412 202.792 122.929 205.594 120.626L205.588 120.62C198.559 123.239 192.363 117.317 192.363 117.317C184.768 108.223 170.653 91.0757 167.033 86.1917C166.228 85.1053 165.344 84.0818 164.292 83.231C155.345 75.9918 144.396 82.6081 144.396 82.6081C145.444 84.0902 146.521 85.6471 147.612 87.2474L147.63 87.2718C147.63 87.2718 157.889 80.343 169.348 95.1333C169.346 95.1326 180.187 109.789 188.223 117.342Z" fill="#FFC69F"/>
</g>
</g>
<path d="M150.691 90.6196C150.624 90.6196 150.559 90.5846 150.523 90.5224C150.468 90.4287 150.5 90.3092 150.594 90.2553C151.644 89.6471 152.027 88.3279 151.466 87.2527L148.485 81.5354C148.435 81.4397 148.472 81.3215 148.568 81.2719C148.661 81.2229 148.781 81.2586 148.832 81.3544L151.813 87.0716C152.47 88.3328 152.021 89.8799 150.79 90.5937C150.759 90.6112 150.725 90.6196 150.691 90.6196Z" fill="white"/>
<path d="M248.776 213.485C248.766 213.485 248.757 213.484 248.746 213.48C248.695 213.464 248.666 213.41 248.682 213.358L251.288 204.948C251.304 204.896 251.358 204.867 251.41 204.883C251.461 204.899 251.49 204.953 251.474 205.006L248.869 213.416C248.856 213.459 248.818 213.485 248.776 213.485Z" fill="white"/>
<path d="M246.164 213.485C246.154 213.485 246.145 213.484 246.135 213.48C246.084 213.464 246.055 213.41 246.071 213.358L248.677 204.948C248.693 204.896 248.747 204.867 248.799 204.883C248.85 204.899 248.88 204.953 248.864 205.006L246.257 213.416C246.244 213.459 246.206 213.485 246.164 213.485Z" fill="white"/>
<path d="M243.559 213.485C243.549 213.485 243.54 213.484 243.53 213.48C243.479 213.464 243.449 213.41 243.465 213.358L246.071 204.948C246.087 204.896 246.142 204.867 246.193 204.883C246.244 204.899 246.274 204.953 246.258 205.006L243.652 213.416C243.639 213.459 243.601 213.485 243.559 213.485Z" fill="white"/>
<path d="M206.408 128.127C205.629 128.127 204.888 128.072 204.191 127.982C200.07 127.444 196.178 125.368 193.232 122.138C185.914 114.113 171.413 94.8186 171.268 94.625C171.235 94.5816 171.244 94.5201 171.287 94.4879C171.329 94.4565 171.392 94.4642 171.423 94.5075C171.569 94.7012 186.065 113.989 193.376 122.006C196.291 125.203 200.141 127.257 204.217 127.789C209.312 128.455 216.861 127.114 223.866 116.94C223.896 116.896 223.955 116.884 224.001 116.914C224.045 116.945 224.057 117.006 224.026 117.05C217.92 125.917 211.394 128.127 206.408 128.127Z" fill="white"/>
<path d="M75.9595 115.101L53.8272 124.729C52.3078 125.39 51.612 127.157 52.2729 128.677L61.9005 150.809C62.5615 152.328 64.3289 153.024 65.8482 152.363L87.9805 142.736C89.4999 142.075 90.1958 140.307 89.5348 138.788L79.9072 116.656C79.2463 115.136 77.4788 114.44 75.9595 115.101Z" fill="#88AAF5"/>
<mask id="mask1_723_89609" style="mask-type:alpha" maskUnits="userSpaceOnUse" x="52" y="114" width="38" height="39">
<path d="M75.9595 115.098L53.8272 124.725C52.3078 125.386 51.612 127.154 52.2729 128.673L61.9005 150.805C62.5615 152.325 64.3289 153.02 65.8482 152.359L87.9805 142.732C89.4999 142.071 90.1958 140.303 89.5348 138.784L79.9072 116.652C79.2463 115.132 77.4788 114.437 75.9595 115.098Z" fill="#608DF1"/>
</mask>
<g mask="url(#mask1_723_89609)">
<path d="M63.0909 153.568L60.7266 148.133L64.3304 132.308L74.2507 136.574L76.0677 131.957L88.2852 135.938L90.7258 141.549L63.0909 153.568Z" fill="#1650CF"/>
</g>
<path d="M69.8172 127.477C70.754 127.431 71.4761 126.635 71.4303 125.698C71.3844 124.761 70.5879 124.039 69.6512 124.085C68.7144 124.131 67.9923 124.927 68.0381 125.864C68.084 126.801 68.8805 127.523 69.8172 127.477Z" fill="#1650CF"/>
<path d="M110.03 124.12L91.3337 118.873C89.7385 118.425 88.0824 119.356 87.6347 120.951L82.3878 139.647C81.9401 141.242 82.8704 142.899 84.4656 143.346L103.162 148.593C104.757 149.041 106.413 148.111 106.861 146.515L112.108 127.819C112.556 126.224 111.625 124.568 110.03 124.12Z" fill="#88AAF5"/>
<mask id="mask2_723_89609" style="mask-type:alpha" maskUnits="userSpaceOnUse" x="82" y="118" width="31" height="31">
<path d="M110.028 124.12L91.3318 118.873C89.7365 118.425 88.0804 119.356 87.6328 120.951L82.3858 139.647C81.9381 141.242 82.8684 142.899 84.4636 143.346L103.16 148.593C104.755 149.041 106.411 148.111 106.859 146.515L112.106 127.819C112.554 126.224 111.623 124.568 110.028 124.12Z" fill="#608DF1"/>
</mask>
<g mask="url(#mask2_723_89609)">
<path d="M81.582 142.541L82.9327 137.727L93.722 129.301L97.9348 137.376L101.583 135.326L107.45 144.44L106.056 149.409L81.582 142.541Z" fill="#1650CF"/>
</g>
<path d="M101.672 128.988C102.275 128.475 102.348 127.571 101.835 126.969C101.322 126.366 100.418 126.293 99.8156 126.806C99.2131 127.319 99.1403 128.223 99.653 128.825C100.166 129.428 101.07 129.501 101.672 128.988Z" fill="#1650CF"/>
<path d="M47.8229 137.321H107.894C109.896 137.321 111.816 136.526 113.231 135.111L118.936 129.406C120.351 127.99 122.271 127.195 124.273 127.195H146.676C150.845 127.195 154.224 130.575 154.224 134.743V205.919C154.224 210.087 150.844 213.466 146.676 213.466H47.8229C43.6542 213.466 40.2754 210.087 40.2754 205.919V144.868C40.2754 140.701 43.6549 137.321 47.8229 137.321Z" fill="#0B2866"/>
<path d="M159.382 180.496H134.035C132.378 180.496 131.035 181.839 131.035 183.496V208.842C131.035 210.499 132.378 211.842 134.035 211.842H159.382C161.038 211.842 162.382 210.499 162.382 208.842V183.496C162.382 181.839 161.038 180.496 159.382 180.496Z" fill="#88AAF5"/>
<mask id="mask3_723_89609" style="mask-type:alpha" maskUnits="userSpaceOnUse" x="131" y="180" width="32" height="32">
<path d="M159.382 180.496H134.035C132.378 180.496 131.035 181.839 131.035 183.496V208.842C131.035 210.499 132.378 211.842 134.035 211.842H159.382C161.038 211.842 162.382 210.499 162.382 208.842V183.496C162.382 181.839 161.038 180.496 159.382 180.496Z" fill="#608DF1"/>
</mask>
<g mask="url(#mask3_723_89609)">
<path d="M131.029 211.835L131.031 205.668L141.036 192.07L148.727 200.257L152.376 196.608L162.377 205.476L162.376 211.84L131.029 211.835Z" fill="#1650CF"/>
</g>
<path d="M149.687 189.675C150.564 189.248 150.929 188.19 150.501 187.313C150.073 186.436 149.016 186.072 148.139 186.499C147.262 186.927 146.897 187.984 147.325 188.861C147.752 189.739 148.81 190.103 149.687 189.675Z" fill="#1650CF"/>
<path d="M171.247 213.65H15.9052C15.8088 213.65 15.7305 213.572 15.7305 213.476C15.7305 213.379 15.8088 213.301 15.9052 213.301H171.248C171.345 213.301 171.423 213.379 171.423 213.476C171.423 213.572 171.344 213.65 171.247 213.65Z" fill="#071D4A"/>
<path d="M192.368 44.3312C192.34 44.3312 192.312 44.3172 192.295 44.2921C192.19 44.1334 181.55 28.3224 163.691 15.8791C147.215 4.39911 121.049 -6.47894 89.9576 6.88512C89.9143 6.904 89.8619 6.88443 89.843 6.83968C89.8241 6.79564 89.8444 6.74391 89.8884 6.72503C103.651 0.809915 117.608 -0.901493 131.37 1.64115C142.379 3.67414 153.288 8.41756 163.794 15.7393C181.679 28.2022 192.335 44.0376 192.441 44.1963C192.468 44.2368 192.457 44.2907 192.417 44.3172C192.402 44.3263 192.385 44.3312 192.368 44.3312Z" fill="white"/>
<path d="M156.08 176.097C156.031 176.097 155.992 176.058 155.992 176.009V138.025C155.992 137.977 156.031 137.938 156.08 137.938C156.128 137.938 156.167 137.977 156.167 138.025V176.009C156.167 176.058 156.128 176.097 156.08 176.097Z" fill="white"/>
<path d="M20.5675 111.27C20.5521 111.27 20.5361 111.266 20.5221 111.257C20.4808 111.231 20.4682 111.178 20.4934 111.136C21.7504 109.098 23.2003 107.256 24.8027 105.659C32.1384 98.3498 43.3171 95.6386 55.4724 98.2218C57.655 98.6853 59.8432 99.2852 61.96 99.8654C64.7697 100.636 67.6738 101.431 70.5926 101.916C73.7819 102.446 78.3638 102.945 81.3119 101.177C83.9476 99.5977 84.8312 95.8393 84.5369 93.0149C84.532 92.9667 84.567 92.924 84.6145 92.9184C84.6669 92.9135 84.7061 92.9485 84.711 92.996C85.0207 95.97 84.1174 99.699 81.4021 101.327C78.4037 103.123 73.7805 102.622 70.5646 102.088C67.6368 101.602 64.7278 100.804 61.9146 100.033C59.8005 99.4536 57.6144 98.8545 55.4367 98.3917C43.3408 95.8232 32.2202 98.5161 24.9264 105.782C23.3339 107.37 21.8923 109.201 20.643 111.228C20.6255 111.255 20.5969 111.27 20.5675 111.27Z" fill="white"/>
<path d="M266.885 220.499H158.392C158.344 220.499 158.305 220.46 158.305 220.412C158.305 220.363 158.344 220.324 158.392 220.324H266.885C266.934 220.324 266.973 220.363 266.973 220.412C266.973 220.46 266.934 220.499 266.885 220.499Z" fill="white"/>
</svg>
