<svg width="20" height="20" viewBox="0 0 20 20" fill="none" xmlns="http://www.w3.org/2000/svg">
<path d="M15.9911 10L13.152 12.8391L13.1518 12.8393C13.0346 12.9565 12.9688 13.1155 12.9688 13.2812C12.9688 13.2913 12.969 13.3013 12.9695 13.3113C12.9769 13.4665 13.0419 13.6133 13.1518 13.7232C13.269 13.8404 13.428 13.9062 13.5938 13.9062C13.7595 13.9062 13.9185 13.8404 14.0357 13.7232L14.0359 13.723L17.3169 10.4419C17.4342 10.3247 17.5 10.1658 17.5 10C17.5 9.83424 17.4342 9.67527 17.3169 9.55806L14.0358 6.27688C13.9185 6.1596 13.7595 6.09375 13.5938 6.09375C13.428 6.09375 13.269 6.1596 13.1518 6.27681C13.0346 6.39402 12.9688 6.55299 12.9688 6.71875C12.9688 6.88451 13.0346 7.04348 13.1518 7.16069L15.9911 10Z" fill="#0B2866"/>
<path d="M8.125 10.625H16.875C17.2202 10.625 17.5 10.3452 17.5 10C17.5 9.65482 17.2202 9.375 16.875 9.375H8.125C7.77982 9.375 7.5 9.65482 7.5 10C7.5 10.3452 7.77982 10.625 8.125 10.625Z" fill="#0B2866"/>
<path d="M3.75 3.75H8.125C8.47018 3.75 8.75 3.47018 8.75 3.125C8.75 2.77982 8.47018 2.5 8.125 2.5H3.75C3.23223 2.5 2.86612 2.86612 2.86612 2.86612C2.5 3.23223 2.5 3.75 2.5 3.75V16.25C2.5 16.7678 2.86612 17.1339 2.86612 17.1339C3.23223 17.5 3.75 17.5 3.75 17.5H8.125C8.47018 17.5 8.75 17.2202 8.75 16.875C8.75 16.5298 8.47018 16.25 8.125 16.25H3.75V3.75Z" fill="#0B2866"/>
</svg>
