<svg width="20" height="20" viewBox="0 0 20 20" fill="none" xmlns="http://www.w3.org/2000/svg">
<path fill-rule="evenodd" clip-rule="evenodd" d="M10 1.875C10 1.875 11.144 1.875 12.1897 2.3173C12.1897 2.3173 13.1993 2.74431 13.9775 3.52252C13.9775 3.52252 14.7557 4.30075 15.1827 5.3103C15.1827 5.3103 15.625 6.35601 15.625 7.5C15.625 7.5 15.625 8.64399 15.1827 9.6897C15.1827 9.6897 14.7557 10.6993 13.9775 11.4775C13.9775 11.4775 13.1993 12.2557 12.1897 12.6827C12.1897 12.6827 11.144 13.125 10 13.125C10 13.125 8.85601 13.125 7.8103 12.6827C7.8103 12.6827 6.80075 12.2557 6.02252 11.4775C6.02252 11.4775 5.24431 10.6993 4.8173 9.6897C4.8173 9.6897 4.375 8.64399 4.375 7.5C4.375 7.5 4.375 6.35601 4.8173 5.3103C4.8173 5.3103 5.24431 4.30074 6.02252 3.52252C6.02252 3.52252 6.80074 2.7443 7.8103 2.3173C7.8103 2.3173 8.85601 1.875 10 1.875ZM10 3.125C10 3.125 8.18782 3.125 6.90641 4.40641C6.90641 4.40641 5.625 5.68781 5.625 7.5C5.625 7.5 5.625 9.31219 6.90641 10.5936C6.90641 10.5936 8.18782 11.875 10 11.875C10 11.875 11.8122 11.875 13.0936 10.5936C13.0936 10.5936 14.375 9.31219 14.375 7.5C14.375 7.5 14.375 5.68782 13.0936 4.40641C13.0936 4.40641 11.8122 3.125 10 3.125Z" fill="#0B2866"/>
<path d="M14.0628 14.2137C15.9484 15.3025 17.0368 17.1881 17.0368 17.1881C17.1197 17.3317 17.2562 17.4365 17.4163 17.4794C17.4691 17.4935 17.5235 17.5007 17.5781 17.5007C17.5847 17.5007 17.5912 17.5006 17.5978 17.5004C17.7008 17.4971 17.8013 17.4685 17.8906 17.417C18.084 17.3054 18.2031 17.099 18.2031 16.8757C18.2031 16.866 18.2029 16.8564 18.2025 16.8468C18.1978 16.747 18.1694 16.6498 18.1194 16.5632C16.8635 14.3875 14.6879 13.1312 14.6879 13.1312C12.5123 11.875 10 11.875 10 11.875C7.48775 11.875 5.31213 13.1312 5.31213 13.1312C3.13668 14.3874 1.88078 16.5629 1.88078 16.5629L1.88058 16.5632C1.82574 16.6582 1.79688 16.766 1.79688 16.8757L1.79698 16.887C1.7979 16.9379 1.80502 16.9884 1.81819 17.0375C1.8611 17.1976 1.96586 17.3341 2.10942 17.417C2.20443 17.4718 2.31218 17.5007 2.42188 17.5007C2.43344 17.5007 2.44501 17.5004 2.45656 17.4997C2.66719 17.488 2.85771 17.3709 2.96317 17.1881C4.05164 15.3025 5.93718 14.2137 5.93718 14.2137C7.82271 13.125 10 13.125 10 13.125C12.1773 13.125 14.0628 14.2137 14.0628 14.2137Z" fill="#0B2866"/>
</svg>
