<svg width="40" height="40" viewBox="0 0 40 40" fill="none" xmlns="http://www.w3.org/2000/svg">
<rect width="40" height="40" rx="5" fill="#D7E3FC"/>
<path d="M10.25 13.625H22.25C23.0456 13.625 23.8088 13.9411 24.3713 14.5037C24.934 15.0663 25.25 15.8294 25.25 16.625V25.625C25.25 25.8239 25.1709 26.0147 25.0303 26.1553C24.8896 26.296 24.6989 26.375 24.5 26.375H12.5C11.7044 26.375 10.9412 26.0589 10.3787 25.4963C9.81604 24.9337 9.5 24.1706 9.5 23.375V14.375C9.5 14.1761 9.5791 13.9853 9.71973 13.8447C9.86035 13.704 10.0511 13.625 10.25 13.625Z" fill="#AFC6F8"/>
<path fill-rule="evenodd" clip-rule="evenodd" d="M9.18934 13.3143C9.18934 13.3143 9.62868 12.875 10.25 12.875H22.25C22.25 12.875 23.8033 12.875 24.9016 13.9733C24.9016 13.9733 26 15.0717 26 16.625V25.625C26 25.625 26 26.2463 25.5607 26.6857C25.5607 26.6857 25.1213 27.125 24.5 27.125H12.5C12.5 27.125 10.9467 27.125 9.84835 26.0267C9.84835 26.0267 8.75 24.9283 8.75 23.375V14.375C8.75 14.375 8.75 13.7537 9.18934 13.3143ZM10.25 14.375V23.375C10.25 23.375 10.25 24.307 10.909 24.966C10.909 24.966 11.568 25.625 12.5 25.625H24.5V16.625C24.5 16.625 24.5 15.693 23.841 15.034C23.841 15.034 23.182 14.375 22.25 14.375H10.25Z" fill="#0B2866"/>
<path d="M29.75 23.2076L25.6221 20.8488C25.5088 20.7841 25.3805 20.75 25.25 20.75L25.2332 20.7502C25.1721 20.7516 25.1115 20.7604 25.0527 20.7764C24.8608 20.8288 24.6975 20.9552 24.5988 21.1279C24.5341 21.2412 24.5 21.3695 24.5 21.5C24.5 21.515 24.5004 21.5299 24.5013 21.5449C24.5165 21.7976 24.6581 22.0256 24.8779 22.1512L30.1279 25.1512C30.4875 25.3567 30.9457 25.2317 31.1512 24.8721C31.2159 24.7588 31.25 24.6305 31.25 24.5V15.5C31.25 15.0858 30.9142 14.75 30.5 14.75C30.3695 14.75 30.2412 14.7841 30.1279 14.8488L24.8779 17.8488C24.6442 17.9823 24.5 18.2309 24.5 18.5C24.5 18.5105 24.5002 18.521 24.5007 18.5314C24.5057 18.6512 24.5393 18.768 24.5988 18.8721C24.6975 19.0448 24.8608 19.1712 25.0527 19.2236C25.117 19.2411 25.1833 19.25 25.25 19.25L25.2703 19.2497C25.3939 19.2464 25.5148 19.2125 25.6221 19.1512L29.75 16.7924V23.2076Z" fill="#0B2866"/>
</svg>
