<svg width="20" height="20" viewBox="0 0 20 20" fill="none" xmlns="http://www.w3.org/2000/svg">
<path fill-rule="evenodd" clip-rule="evenodd" d="M9.99219 0.625C9.99219 0.625 11.1572 0.625 11.9809 1.44876C11.9809 1.44876 12.8047 2.27252 12.8047 3.4375C12.8047 3.4375 12.8047 4.60248 11.9809 5.42624C11.9809 5.42624 11.1572 6.25 9.99219 6.25C9.99219 6.25 8.82721 6.25 8.00345 5.42624C8.00345 5.42624 7.17969 4.60248 7.17969 3.4375C7.17969 3.4375 7.17969 2.27252 8.00345 1.44876C8.00345 1.44876 8.82721 0.625 9.99219 0.625ZM9.99219 1.875C9.99219 1.875 9.34498 1.875 8.88733 2.33265C8.88733 2.33265 8.42969 2.79029 8.42969 3.4375C8.42969 3.4375 8.42969 4.08471 8.88733 4.54235C8.88733 4.54235 9.34498 5 9.99219 5C9.99219 5 10.6394 5 11.097 4.54235C11.097 4.54235 11.5547 4.08471 11.5547 3.4375C11.5547 3.4375 11.5547 2.79029 11.097 2.33265C11.097 2.33265 10.6394 1.875 9.99219 1.875Z" fill="#0B2866"/>
<path fill-rule="evenodd" clip-rule="evenodd" d="M13.2235 12.2456L14.7688 17.1325C14.7688 17.1325 14.8919 17.3912 14.9147 17.6788C14.9147 17.6788 14.9399 17.9974 14.838 18.3003C14.838 18.3003 14.7361 18.6032 14.5235 18.8418C14.5235 18.8418 14.3109 19.0803 14.0217 19.2163C14.0217 19.2163 13.7325 19.3522 13.4131 19.3637C13.4131 19.3637 13.0938 19.3752 12.7956 19.2603C12.7956 19.2603 12.4974 19.1455 12.2682 18.9228C12.2682 18.9228 12.0604 18.7209 11.9396 18.4597L9.99219 15.3926L8.03869 18.4694C8.03869 18.4694 7.90972 18.7261 7.69653 18.921C7.69653 18.921 7.46672 19.131 7.17403 19.2371C7.17403 19.2371 6.88134 19.3432 6.57032 19.3292C6.57032 19.3292 6.25931 19.3152 5.97732 19.1833C5.97732 19.1833 5.69533 19.0513 5.48529 18.8215C5.48529 18.8215 5.27526 18.5917 5.16916 18.299C5.16916 18.299 5.06306 18.0063 5.07704 17.6953C5.07704 17.6953 5.08999 17.4072 5.20418 17.144L6.75799 12.2478L5.64283 13.113C5.64283 13.113 5.18774 13.5153 4.57681 13.5021C4.57681 13.5021 3.95213 13.4886 3.509 13.0481C3.509 13.0481 3.06588 12.6076 3.04869 11.983C3.04869 11.983 3.03183 11.3709 3.43314 10.9128L6.51452 6.95216C6.53082 6.9312 6.54844 6.91131 6.56727 6.8926C6.56727 6.8926 7.20907 6.25485 8.11719 6.25H11.8685C11.8685 6.25 12.3037 6.25093 12.7052 6.41893C12.7052 6.41893 13.1067 6.58693 13.4129 6.89624C13.4304 6.91389 13.4468 6.93256 13.462 6.95216L16.5501 10.9214C16.5501 10.9214 16.9302 11.384 16.9028 11.9835C16.9028 11.9835 16.8752 12.5887 16.4468 13.0171C16.4468 13.0171 16.0184 13.4455 15.4132 13.4731C15.4132 13.4731 14.8139 13.5005 14.3515 13.1207L13.2235 12.2456ZM13.5916 17.5556L11.4275 10.7119C11.3775 10.5538 11.3924 10.3824 11.4688 10.2353C11.5452 10.0882 11.677 9.9775 11.835 9.92752C12.0307 9.86563 12.2444 9.9038 12.4066 10.0296L15.1253 12.139C15.131 12.1434 15.1365 12.1479 15.142 12.1524C15.142 12.1524 15.2352 12.23 15.3562 12.2244C15.3562 12.2244 15.4772 12.2189 15.5629 12.1332C15.5629 12.1332 15.6486 12.0476 15.6541 11.9265C15.6541 11.9265 15.6597 11.8055 15.5821 11.7123C15.5777 11.7071 15.5734 11.7017 15.5692 11.6963L12.5012 7.75283C12.5012 7.75283 12.3789 7.63739 12.2227 7.57205C12.2227 7.57205 12.0515 7.5004 11.8659 7.5L8.11719 7.5C8.11719 7.5 7.74499 7.502 7.4739 7.75468L4.40735 11.6963C4.39813 11.7081 4.38847 11.7197 4.37842 11.7308C4.37842 11.7308 4.29477 11.8237 4.29821 11.9486C4.29821 11.9486 4.30165 12.0735 4.39028 12.1616C4.39028 12.1616 4.4789 12.2497 4.60384 12.2524C4.60384 12.2524 4.72877 12.2551 4.82112 12.1709C4.83334 12.1598 4.846 12.1491 4.85906 12.139L7.57781 10.0296C7.85053 9.81804 8.24315 9.86759 8.45474 10.1403C8.58072 10.3027 8.61882 10.5166 8.55666 10.7125L6.38478 17.5562C6.37657 17.5821 6.36667 17.6075 6.35516 17.6321C6.35516 17.6321 6.32859 17.6888 6.32578 17.7515C6.32578 17.7515 6.32296 17.8141 6.34433 17.873C6.34433 17.873 6.36569 17.932 6.40798 17.9782C6.40798 17.9782 6.45028 18.0245 6.50706 18.0511C6.50706 18.0511 6.56384 18.0777 6.62647 18.0805C6.62647 18.0805 6.6891 18.0833 6.74803 18.0619C6.74803 18.0619 6.80697 18.0406 6.85325 17.9983C6.85325 17.9983 6.89952 17.956 6.92609 17.8992C6.9374 17.875 6.95025 17.8516 6.96455 17.8291L9.46455 13.8916C9.64957 13.6002 10.0358 13.5139 10.3272 13.6989C10.4048 13.7482 10.4706 13.814 10.5198 13.8916L13.0198 17.8291C13.0387 17.8589 13.0551 17.8902 13.0687 17.9228C13.0687 17.9228 13.0934 17.9818 13.1393 18.0263C13.1393 18.0263 13.1851 18.0709 13.2447 18.0938C13.2447 18.0938 13.3044 18.1168 13.3683 18.1145C13.3683 18.1145 13.4321 18.1122 13.49 18.085C13.49 18.085 13.5478 18.0578 13.5903 18.0101C13.5903 18.0101 13.6329 17.9624 13.6532 17.9018C13.6532 17.9018 13.6736 17.8412 13.6686 17.7775C13.6686 17.7775 13.6635 17.7138 13.6339 17.6572C13.6168 17.6246 13.6027 17.5907 13.5916 17.5556Z" fill="#0B2866"/>
</svg>
