<svg width="20" height="20" viewBox="0 0 20 20" fill="none" xmlns="http://www.w3.org/2000/svg">
<path fill-rule="evenodd" clip-rule="evenodd" d="M10 7.5C10 7.5 11.0355 7.5 11.7678 8.23223C11.7678 8.23223 12.5 8.96447 12.5 10C12.5 10 12.5 11.0355 11.7678 11.7678C11.7678 11.7678 11.0355 12.5 10 12.5C10 12.5 8.96447 12.5 8.23223 11.7678C8.23223 11.7678 7.5 11.0355 7.5 10C7.5 10 7.5 8.96447 8.23223 8.23223C8.23223 8.23223 8.96447 7.5 10 7.5ZM10 8.75C10 8.75 9.48223 8.75 9.11612 9.11612C9.11612 9.11612 8.75 9.48223 8.75 10C8.75 10 8.75 10.5178 9.11612 10.8839C9.11612 10.8839 9.48223 11.25 10 11.25C10 11.25 10.5178 11.25 10.8839 10.8839C10.8839 10.8839 11.25 10.5178 11.25 10C11.25 10 11.25 9.48223 10.8839 9.11612C10.8839 9.11612 10.5178 8.75 10 8.75Z" fill="#0B2866"/>
<path fill-rule="evenodd" clip-rule="evenodd" d="M7.5 1.875C7.5 1.875 8.53553 1.875 9.26777 2.60723C9.26777 2.60723 10 3.33947 10 4.375C10 4.375 10 5.41053 9.26777 6.14277C9.26777 6.14277 8.53553 6.875 7.5 6.875C7.5 6.875 6.46447 6.875 5.73223 6.14277C5.73223 6.14277 5 5.41053 5 4.375C5 4.375 5 3.33947 5.73223 2.60723C5.73223 2.60723 6.46447 1.875 7.5 1.875ZM7.5 3.125C7.5 3.125 6.98223 3.125 6.61612 3.49112C6.61612 3.49112 6.25 3.85723 6.25 4.375C6.25 4.375 6.25 4.89277 6.61612 5.25888C6.61612 5.25888 6.98223 5.625 7.5 5.625C7.5 5.625 8.01777 5.625 8.38388 5.25888C8.38388 5.25888 8.75 4.89277 8.75 4.375C8.75 4.375 8.75 3.85723 8.38388 3.49112C8.38388 3.49112 8.01777 3.125 7.5 3.125Z" fill="#0B2866"/>
<path fill-rule="evenodd" clip-rule="evenodd" d="M15.625 5.625C15.625 5.625 16.6605 5.625 17.3928 6.35723C17.3928 6.35723 18.125 7.08947 18.125 8.125C18.125 8.125 18.125 9.16053 17.3928 9.89277C17.3928 9.89277 16.6605 10.625 15.625 10.625C15.625 10.625 14.5895 10.625 13.8572 9.89277C13.8572 9.89277 13.125 9.16053 13.125 8.125C13.125 8.125 13.125 7.08947 13.8572 6.35723C13.8572 6.35723 14.5895 5.625 15.625 5.625ZM15.625 6.875C15.625 6.875 15.1072 6.875 14.7411 7.24112C14.7411 7.24112 14.375 7.60723 14.375 8.125C14.375 8.125 14.375 8.64277 14.7411 9.00888C14.7411 9.00888 15.1072 9.375 15.625 9.375C15.625 9.375 16.1428 9.375 16.5089 9.00888C16.5089 9.00888 16.875 8.64277 16.875 8.125C16.875 8.125 16.875 7.60723 16.5089 7.24112C16.5089 7.24112 16.1428 6.875 15.625 6.875Z" fill="#0B2866"/>
<path fill-rule="evenodd" clip-rule="evenodd" d="M15.625 11.875C15.625 11.875 16.6605 11.875 17.3928 12.6072C17.3928 12.6072 18.125 13.3395 18.125 14.375C18.125 14.375 18.125 15.4105 17.3928 16.1428C17.3928 16.1428 16.6605 16.875 15.625 16.875C15.625 16.875 14.5895 16.875 13.8572 16.1428C13.8572 16.1428 13.125 15.4105 13.125 14.375C13.125 14.375 13.125 13.3395 13.8572 12.6072C13.8572 12.6072 14.5895 11.875 15.625 11.875ZM15.625 13.125C15.625 13.125 15.1072 13.125 14.7411 13.4911C14.7411 13.4911 14.375 13.8572 14.375 14.375C14.375 14.375 14.375 14.8928 14.7411 15.2589C14.7411 15.2589 15.1072 15.625 15.625 15.625C15.625 15.625 16.1428 15.625 16.5089 15.2589C16.5089 15.2589 16.875 14.8928 16.875 14.375C16.875 14.375 16.875 13.8572 16.5089 13.4911C16.5089 13.4911 16.1428 13.125 15.625 13.125Z" fill="#0B2866"/>
<path fill-rule="evenodd" clip-rule="evenodd" d="M4.375 12.5C4.375 12.5 5.41053 12.5 6.14277 13.2322C6.14277 13.2322 6.875 13.9645 6.875 15C6.875 15 6.875 16.0355 6.14277 16.7678C6.14277 16.7678 5.41053 17.5 4.375 17.5C4.375 17.5 3.33947 17.5 2.60723 16.7678C2.60723 16.7678 1.875 16.0355 1.875 15C1.875 15 1.875 13.9645 2.60723 13.2322C2.60723 13.2322 3.33947 12.5 4.375 12.5ZM4.375 13.75C4.375 13.75 3.85723 13.75 3.49112 14.1161C3.49112 14.1161 3.125 14.4822 3.125 15C3.125 15 3.125 15.5178 3.49112 15.8839C3.49112 15.8839 3.85723 16.25 4.375 16.25C4.375 16.25 4.89277 16.25 5.25888 15.8839C5.25888 15.8839 5.625 15.5178 5.625 15C5.625 15 5.625 14.4822 5.25888 14.1161C5.25888 14.1161 4.89277 13.75 4.375 13.75Z" fill="#0B2866"/>
<path d="M9.81282 8.0341L8.82844 5.83097C8.72787 5.60588 8.50436 5.46094 8.25781 5.46094C8.2488 5.46094 8.2398 5.46113 8.2308 5.46152C8.1521 5.46493 8.07476 5.48318 8.00285 5.51531C7.77775 5.61588 7.63281 5.83939 7.63281 6.08594C7.63281 6.09495 7.63301 6.10395 7.6334 6.11295C7.6368 6.19165 7.65505 6.26899 7.68718 6.3409L8.67156 8.54403C8.73918 8.69537 8.86415 8.81365 9.01898 8.87285C9.09024 8.90009 9.16589 8.91406 9.24219 8.91406L9.25937 8.91383C9.34142 8.91157 9.42221 8.89318 9.49715 8.85969C9.72225 8.75912 9.86719 8.53561 9.86719 8.28906C9.86719 8.28005 9.86699 8.27105 9.8666 8.26205C9.8632 8.18335 9.84495 8.10601 9.81282 8.0341Z" fill="#0B2866"/>
<path d="M13.6461 8.12582L11.5836 8.81332C11.3284 8.89839 11.1562 9.13723 11.1562 9.40625L11.1564 9.41791C11.1575 9.48117 11.1683 9.54387 11.1883 9.60389C11.2734 9.85911 11.5122 10.0312 11.7813 10.0312L11.7929 10.0311C11.8562 10.03 11.9189 10.0192 11.9789 9.99918L14.0414 9.31168C14.2966 9.22661 14.4687 8.98777 14.4688 8.71875L14.4686 8.70709C14.4675 8.64383 14.4567 8.58113 14.4367 8.52111C14.3516 8.26589 14.1128 8.09375 13.8438 8.09375L13.8321 8.09386C13.7688 8.09504 13.7061 8.10582 13.6461 8.12582Z" fill="#0B2866"/>
<path d="M11.8604 10.6552L14.5322 12.7332C14.663 12.835 14.7481 12.9846 14.7686 13.149C14.7717 13.174 14.7733 13.1992 14.7734 13.2244L14.7734 13.2266C14.7734 13.3655 14.7271 13.5006 14.6418 13.6103C14.5262 13.7589 14.3497 13.8475 14.1615 13.8514L14.1484 13.8516C14.0095 13.8516 13.8744 13.8052 13.7647 13.7199L11.093 11.6419C10.9406 11.5234 10.8516 11.3413 10.8516 11.1484C10.8516 11.027 10.887 10.9081 10.9534 10.8064C10.9628 10.7921 10.9727 10.7782 10.9832 10.7647C11.1016 10.6125 11.2837 10.5234 11.4766 10.5234C11.598 10.5234 11.7169 10.5588 11.8186 10.6253C11.8329 10.6347 11.8468 10.6446 11.8604 10.6552Z" fill="#0B2866"/>
<path d="M8.18606 10.7753L5.35805 13.2908C5.22472 13.4094 5.14844 13.5794 5.14844 13.7578C5.14844 13.7672 5.14865 13.7766 5.14907 13.786C5.15553 13.9293 5.2111 14.066 5.30645 14.1732C5.41662 14.2971 5.57147 14.3721 5.73695 14.3817C5.7491 14.3825 5.76127 14.3828 5.77344 14.3828C5.78138 14.3828 5.78931 14.3827 5.79725 14.3824C5.94209 14.3768 6.08052 14.3211 6.18883 14.2248L9.01695 11.7092C9.1408 11.599 9.21582 11.4442 9.2255 11.2787C9.22621 11.2665 9.22656 11.2544 9.22656 11.2422C9.22656 11.2342 9.22641 11.2263 9.22611 11.2184C9.22059 11.0735 9.16489 10.9351 9.06855 10.8268C8.94995 10.6935 8.78001 10.6172 8.60156 10.6172C8.59218 10.6172 8.58279 10.6174 8.57342 10.6178C8.4301 10.6243 8.29337 10.6799 8.18606 10.7753Z" fill="#0B2866"/>
</svg>
